<?xml version="1.0" standalone="no"?>
<!DOCTYPE svg PUBLIC "-//W3C//DTD SVG 1.1//EN" "http://www.w3.org/Graphics/SVG/1.1/DTD/svg11.dtd" >
<svg>
<metadata>
Created by FontForge 20090914 at Tue Jun  2 20:38:03 2020
 By www-data
Copyright (C) 1990-1992 ParaGraph International
</metadata>
<defs>
<font id="IzhitsaC" horiz-adv-x="1587" >
  <font-face 
    font-family="IzhitsaC"
    font-weight="400"
    font-stretch="normal"
    units-per-em="2048"
    panose-1="2 11 5 0 0 0 0 0 0 0"
    ascent="1638"
    descent="-410"
    x-height="953.999"
    cap-height="1434"
    bbox="-61 -557 2527 1849"
    underline-thickness="56"
    underline-position="-244"
    unicode-range="U+0020-U+2030"
  />
<missing-glyph horiz-adv-x="1536" 
d="M256 0v1280h1024v-1280h-1024zM1247 33v1214h-958v-1214h958z" />
    <glyph glyph-name=".notdef" horiz-adv-x="1536" 
d="M256 0v1280h1024v-1280h-1024zM1247 33v1214h-958v-1214h958z" />
    <glyph glyph-name="space" unicode=" " horiz-adv-x="719" 
 />
    <glyph glyph-name="exclam" unicode="!" horiz-adv-x="567" 
d="M342 489l-119 0.000976562c-14 202 -28.333 347.5 -43 436.5s-31.334 173.5 -50.001 253.5s-28 144.333 -28 193c0 49.333 10 94.333 30 135s44.5 71.667 73.5 93s54.833 32 77.5 32c39.333 0 79.5 -25.833 120.5 -77.5s61.5 -112.5 61.5 -182.5
c0 -158.667 -3.5 -257.5 -10.5 -296.5s-19.167 -66.833 -36.5 -83.5s-32.166 -57.334 -44.499 -122.001s-22.833 -191.667 -31.5 -381zM162 129.001c0 56.667 3.16895 91.665 9.50195 104.998s18.833 20 37.5 20c16.667 0 29.667 -0.166992 39 -0.5
s19.666 -0.833008 30.999 -1.5c18.667 0 47.334 1.33301 86.001 4h22c18 -3.33301 27 -13.666 27 -30.999c0 -22.667 -0.166992 -40.667 -0.5 -54s-0.833008 -28 -1.5 -44c0.666992 -16 1.16699 -30.667 1.5 -44s0.5 -30.666 0.5 -51.999c0 -17.333 -9 -27.666 -27 -30.999
h-22c-38.667 2.66699 -67.334 4 -86.001 4c-14.667 0 -27 -0.166992 -37 -0.5s-21 -0.833008 -33 -1.5c-14 0 -23.333 0.666992 -28 2s-8.33398 4.66602 -11.001 9.99902c-6.66699 14 -10 34 -10 60c0.666992 9.33301 1.16699 17.833 1.5 25.5s0.5 17.5 0.5 29.5z" />
    <glyph glyph-name="quotedbl" unicode="&#x22;" horiz-adv-x="1413" 
d="M874 952l170.002 0.000976562c37.333 0 59.666 -3.83301 66.999 -11.5s15.166 -40.334 23.499 -98.001s21.5 -122.834 39.5 -195.501c38 -155.333 70.5 -274.166 97.5 -356.499s49.833 -145.833 68.5 -190.5s28 -72 28 -82c0 -12 -13.667 -18 -41 -18h-209
c-9.33301 0 -15.666 5 -18.999 15s-12.5 45.333 -27.5 106s-32.833 123.334 -53.5 188.001c-30 -100 -66.5 -174.333 -109.5 -223s-82.167 -79 -117.5 -91s-67.666 -18 -96.999 -18c-50 0 -94.667 20.5 -134 61.5s-62 88.167 -68 141.5v64
c4.66699 47.333 15.667 89.666 33 126.999s37.166 70.166 59.499 98.499l122 147.5c59 70 112.167 136 159.5 198h-487c0 -0.666992 -2 -20.167 -6 -58.5s-7.16699 -75.833 -9.5 -112.5s-3.5 -69.667 -3.5 -99c0 -18 5.16699 -81.833 15.5 -191.5s15.5 -208.5 15.5 -296.5
c0 -23.333 -5.33301 -38.666 -16 -45.999s-40 -11 -88 -11h-97c-18.667 -0 -32.334 3.83301 -41.001 11.5s-15.834 29.167 -21.501 64.5s-9.5 89.5 -11.5 162.5s-3 175.167 -3 306.5c0 122 2.83301 212.5 8.5 271.5s13.834 96.667 24.501 113s25.334 24.5 44.001 24.5
c14 0 25.333 -0.166992 34 -0.5s18 -0.833008 28 -1.5c21.333 0 52.666 1.33301 93.999 4h21c17.333 -2 26 -12 26 -30c0 -6 -1.33301 -17 -4 -33h457c-4 8 -6 22.333 -6 43c0 10.667 11.333 16 34 16zM891.002 750.001c-48.667 -62 -92.666 -131 -131.999 -207
s-59 -141.667 -59 -197c0 -28.667 9.33301 -54.167 28 -76.5s45 -33.5 79 -33.5c33.333 0 63.666 8.66699 90.999 26s48 38.833 62 64.5s21 50.5 21 74.5c0 20 -3.83301 44.167 -11.5 72.5z" />
    <glyph glyph-name="numbersign" unicode="#" horiz-adv-x="1362" 
d="M625 952l140.998 -0.00292969c14 0 23.167 -1.33301 27.5 -4s6.83301 -9.33398 7.5 -20.001c2 -17.333 8.33301 -36.333 19 -57s29.667 -49.5 57 -86.5s64.666 -84.833 111.999 -143.5l116.5 -143c29 -36 59 -78.333 90 -127s56.833 -99.5 77.5 -152.5
s33.334 -106.833 38.001 -161.5v-26c-2.66699 -24.667 -20.667 -37 -54 -37c-6.66699 0 -16.167 0.5 -28.5 1.5l-37 3c-12.333 1 -21.166 1.5 -26.499 1.5c-18.667 0 -34.167 -0.166992 -46.5 -0.5s-26.166 -0.833008 -41.499 -1.5c-16 0 -27.833 6.33301 -35.5 19
s-14.167 42.334 -19.5 89.001c-6 57.333 -22.333 115.333 -49 174s-57.334 105.334 -92.001 140.001c-30 -19.333 -61.667 -31.666 -95 -36.999v-43c0 -44.667 3.5 -95.5 10.5 -152.5s10.5 -99.833 10.5 -128.5c0 -23.333 -6 -39 -18 -47s-41 -12 -87 -12h-81
c-22 0 -37.667 4.33301 -47 13s-15.166 22.334 -17.499 41.001s-3.5 51.334 -3.5 98.001c0 102 2 179 6 231c-52 9.33301 -93 23 -123 41c-73.333 -114.667 -110 -215 -110 -301c0 -20 3 -42 9 -66s9 -38.333 9 -43c0 -10.667 -15.667 -16 -47 -16
c-15.333 0.666992 -29.333 1.16699 -42 1.5s-28.667 0.5 -48 0.5c-8 0 -18.667 -0.5 -32 -1.5l-41 -3c-14 -1 -25.333 -1.5 -34 -1.5c-18 0 -30.5 2.33301 -37.5 7s-10.833 14.667 -11.5 30v24c2.66699 54.667 23 126.5 61 215.5s110 176.167 216 261.5l79 61.5
c30 23.667 57.5 48 82.5 73s46.333 52.333 64 82s29.167 62.167 34.5 97.5c-2.66699 6 -5.5 12.833 -8.5 20.5s-5.5 14.667 -7.5 21s-3 14.166 -3 23.499c0 15.333 3 26 9 32s21.667 9 47 9zM634.998 757.997c-30 -60 -53.999 -104.334 -71.999 -133.001
s-49.333 -75.334 -94 -140.001c49.333 -30 113.666 -45 192.999 -45c73.333 0 133.333 15 180 45l-66.5 80c-39 46.667 -66.833 81.834 -83.5 105.501s-35.667 52.834 -57 87.501z" />
    <glyph glyph-name="parenleft" unicode="(" horiz-adv-x="1133" 
d="M850 -362l-46.998 -68.0029c-108.667 78.667 -203.834 172 -285.501 280s-145.334 226.333 -191.001 355s-70.5 262.334 -74.5 401.001v74c4 148.667 30.667 288 80 418s114.5 246 195.5 348s172.833 192 275.5 270l47 -67
c-39.333 -45.333 -74.833 -98.166 -106.5 -158.499s-58.834 -130.666 -81.501 -210.999s-40 -173.5 -52 -279.5s-18 -225 -18 -357c0 -180 10.333 -333.333 31 -460s49.834 -233.167 87.501 -319.5s84.167 -161.5 139.5 -225.5z" />
    <glyph glyph-name="parenright" unicode=")" horiz-adv-x="1133" 
d="M299 -430l-46.998 68c42 50 78.667 104.5 110 163.5s57.833 126.667 79.5 203s38.5 167.5 50.5 273.5s18 227.667 18 365c0 138 -6 260 -18 366s-28.833 197.167 -50.5 273.5s-48.167 144.333 -79.5 204s-68 113.834 -110 162.501l47 67
c102.667 -78 194.5 -168 275.5 -270s146.167 -218 195.5 -348s76 -269.333 80 -418v-74c-4 -138.667 -28.833 -272.334 -74.5 -401.001s-109.334 -247 -191.001 -355s-176.834 -201.333 -285.501 -280z" />
    <glyph glyph-name="asterisk" unicode="*" horiz-adv-x="1135" 
d="M551 1178c-0.666992 16 -3.16504 29.334 -7.49805 40.001s-13.5 30 -27.5 58l-25 53.5c-8 17 -13.667 31 -17 42s-5 22.833 -5 35.5c0 34 12 61.333 36 82s50.333 31 79 31c25.333 0 50.666 -9.5 75.999 -28.5s38 -47.167 38 -84.5c0 -15.333 -4.5 -34 -13.5 -56
s-20.167 -47 -33.5 -75c-22.667 -49.333 -34.334 -82 -35.001 -98c17.333 -4.66699 30.333 -13 39 -25c22.667 10 51.167 32.667 85.5 68s59.666 59.5 75.999 72.5s37.833 19.5 64.5 19.5c14.667 0 29.834 -5 45.501 -15s28.667 -24.5 39 -43.5s15.5 -40.5 15.5 -64.5
c0 -34.667 -10.833 -63.167 -32.5 -85.5s-50.5 -33.5 -86.5 -33.5c-26.667 0 -48.5 1.5 -65.5 4.5s-34 6.5 -51 10.5s-30.5 6 -40.5 6c-8 0 -17.667 -1.66699 -29 -5c0 -21.333 -3.33301 -36.333 -10 -45c20.667 -23.333 40 -39.833 58 -49.5s42.333 -20.834 73 -33.501
s52 -25.167 64 -37.5s18 -31.5 18 -57.5c0 -39.333 -12 -73.333 -36 -102s-51 -43 -81 -43c-32 0 -55.833 8.66699 -71.5 26s-26.5 41.666 -32.5 72.999s-12 64.5 -18 99.5s-14.667 62.833 -26 83.5c-9.33301 -2.66699 -25 -4 -47 -4
c-16 -31.333 -28.167 -74.833 -36.5 -130.5s-18.5 -94.834 -30.5 -117.501s-38.667 -34 -80 -34c-35.333 0 -63.666 14.667 -84.999 44s-32 63 -32 101c0 30 10.667 52.833 32 68.5s53.666 33.834 96.999 54.501s71.333 38.334 84 53.001c-10 13.333 -16 28.333 -18 45
c-34 0 -72.667 -3 -116 -9s-67.666 -9 -72.999 -9c-37.333 0 -66 10.667 -86 32s-30 50.333 -30 87c0 32 9.83301 60.5 29.5 85.5s42.5 37.5 68.5 37.5c28 0 50.667 -6.66699 68 -20s42.666 -37 75.999 -71s61 -57 83 -69c7.33301 12.667 18.333 23.667 33 33z" />
    <glyph glyph-name="comma" unicode="," horiz-adv-x="510" 
d="M141 -328l-38.998 42.998c35.333 32 65.333 65.167 90 99.5s37 66.833 37 97.5c0 43.333 -2.66699 73.333 -8 90h-39c-21.333 0 -34.333 4 -39 12c-6.66699 14 -10 34 -10 60c0.666992 9.33301 1.16699 17.833 1.5 25.5s0.5 17.5 0.5 29.5
c0 56.667 3.16699 91.667 9.5 105s18.833 20 37.5 20c16.667 0 29.667 -0.166992 39 -0.5s19.666 -0.833008 30.999 -1.5c6.66699 0.666992 12.667 1.16699 18 1.5s12.333 0.5 21 0.5c7.33301 0.666992 14.166 1.16699 20.499 1.5s14.5 0.5 24.5 0.5h20
c18 -2.66699 27 -13 27 -31c0 -102 -4.66699 -183.167 -14 -243.5s-31.333 -116.166 -66 -167.499s-88.667 -98.666 -162 -141.999z" />
    <glyph glyph-name="hyphen" unicode="-" horiz-adv-x="737" 
d="M72 504h594v-119h-594v119z" />
    <glyph glyph-name="period" unicode="." horiz-adv-x="510" 
d="M129 129c0 55.333 3.16895 89.999 9.50195 103.999s19.5 21 39.5 21c16.667 0 29.667 -0.166992 39 -0.5s19.666 -0.833008 30.999 -1.5c18.667 0 47.334 1.33301 86.001 4h20c12 -2 19.5 -5.5 22.5 -10.5s4.5 -11.833 4.5 -20.5c0 -22.667 -0.166992 -40.667 -0.5 -54
s-0.833008 -28 -1.5 -44c0.666992 -15.333 1.16699 -29.5 1.5 -42.5s0.5 -30.833 0.5 -53.5c0 -8.66699 -1.83301 -15.667 -5.5 -21s-10.834 -8.66602 -21.501 -9.99902h-20c-38.667 2.66699 -67.334 4 -86.001 4c-14.667 0 -27 -0.166992 -37 -0.5s-21 -0.833008 -33 -1.5
c-14.667 0 -25 2 -31 6s-10.5 14.5 -13.5 31.5s-4.5 46.833 -4.5 89.5z" />
    <glyph glyph-name="zero" unicode="0" horiz-adv-x="1133" 
d="M604 -29c-39.333 0 -87.999 21.832 -145.999 65.499s-115.667 103.334 -173 179.001s-104.166 158.834 -140.499 249.501s-54.5 181.334 -54.5 272.001c0 94 29.167 197.167 87.5 309.5s127.666 208 207.999 287s147.833 118.5 202.5 118.5
c41.333 0 99.166 -43.333 173.499 -130s139.666 -189.834 195.999 -309.501s84.5 -227.834 84.5 -324.501c0 -87.333 -17.167 -174 -51.5 -260s-76.833 -163.167 -127.5 -231.5s-100.667 -123 -150 -164s-85.666 -61.5 -108.999 -61.5zM739.001 218.999
c18.667 0 40.666 11.335 65.999 34.002s47 51.5 65 86.5s27 69.833 27 104.5c0 50.667 -18.167 118.667 -54.5 204s-81.166 168.666 -134.499 249.999s-106.833 148.666 -160.5 201.999s-98.167 80 -133.5 80c-19.333 0 -44 -12.5 -74 -37.5s-56.667 -58.833 -80 -101.5
s-35 -90 -35 -142c0 -56 18.167 -121.833 54.5 -197.5s83.833 -151.5 142.5 -227.5s116.667 -137.5 174 -184.5s105 -70.5 143 -70.5z" />
    <glyph glyph-name="one" unicode="1" horiz-adv-x="905" 
d="M760 0l-601.997 0.00195312v63h153v1002c0 48.667 -4.83301 84 -14.5 106s-32.834 33 -69.501 33c-8.66699 0 -24 -1.83301 -46 -5.5s-41.333 -7.83398 -58 -12.501l-12 74c99.333 19.333 186.666 44.166 261.999 74.499s153.666 72.833 234.999 127.5v-1399h152v-63z
" />
    <glyph glyph-name="two" unicode="2" horiz-adv-x="1133" 
d="M958 311l48.0029 -41l-140 -293c-58 6 -124.5 14.333 -199.5 25s-133.333 18.167 -175 22.5s-77.834 6.5 -108.501 6.5c-98.667 0 -174.334 -18 -227.001 -54l-56 60l157 166.5c51.333 53 94.833 101.167 130.5 144.5s79.167 102.666 130.5 177.999
c50 73.333 88 136 114 188s43.167 93.833 51.5 125.5s12.5 57.834 12.5 78.501c0 76 -18 137.667 -54 185s-90.333 71 -163 71c-52 0 -94.5 -11.667 -127.5 -35s-76.5 -64.333 -130.5 -123l-123 119c40.667 76.667 86.334 138.5 137.001 185.5s104.667 80.667 162 101
s117.666 30.5 180.999 30.5c56 0 112.167 -12.167 168.5 -36.5s103.333 -60.833 141 -109.5s56.5 -107.334 56.5 -176.001c0 -97.333 -42.333 -218.666 -127 -363.999s-225.334 -330.333 -422.001 -555c48 24.667 101.333 37 160 37c60 0 115 -4.16699 165 -12.5
s85.667 -12.5 107 -12.5c28 0 51.167 7.33301 69.5 22s38.833 36.667 61.5 66z" />
    <glyph glyph-name="three" unicode="3" horiz-adv-x="1133" 
d="M174 1053l-104.003 70.998c66 124 148 209.667 246 257s193.333 71 286 71c54 0 107.333 -9.33301 160 -28s95.5 -47.167 128.5 -85.5s49.5 -85.166 49.5 -140.499c0 -104.667 -69 -219.334 -207 -344.001l8 -14c77.333 -8 136.333 -28.333 177 -61
s67.834 -67.334 81.501 -104.001s20.5 -70.667 20.5 -102c0 -66 -20.167 -134.167 -60.5 -204.5s-97.166 -137.333 -170.499 -201s-159 -118.667 -257 -165s-202.333 -79.166 -313 -98.499l-45 108c141.333 38 251 83 329 135s130.333 103.667 157 155
s40 101.666 40 150.999c0 50 -14 99.667 -42 149s-82.667 74 -164 74c-34 0 -62.333 -3.33301 -85 -10s-56.667 -19.667 -102 -39l-41 75c78.667 28.667 146.167 65.834 202.5 111.501s99.5 93.834 129.5 144.501s45 97.334 45 140.001c0 31.333 -13.833 62.333 -41.5 93
s-73.167 46 -136.5 46c-36 0 -72.667 -7.5 -110 -22.5s-71.666 -36.167 -102.999 -63.5s-57.333 -60 -78 -98z" />
    <glyph glyph-name="four" unicode="4" horiz-adv-x="1247" 
d="M694 63l0.00292969 338.001c-83.333 3.33301 -142 5 -176 5c-196.667 0 -344.667 -22.667 -444 -68l-35 139l156 214.5c68 95 118 162.667 150 203s80 95.166 144 164.499c58.667 62 108.167 110.333 148.5 145s79.166 65 116.499 91s68.666 49.667 93.999 71
s56.666 53.333 93.999 96l96 -43c-30 -61.333 -50 -118 -60 -170s-15 -112 -15 -180v-471c81.333 0 159 17.667 233 53l-70 -274c-44 12.667 -98.333 20.667 -163 24v-338h143v-63h-576v63h164zM694.003 592.001v520c-39.333 -30.667 -89.5 -79.667 -150.5 -147
s-119.833 -138 -176.5 -212s-97 -133.333 -121 -178c217.333 11.333 331.333 17 342 17h106z" />
    <glyph glyph-name="five" unicode="5" horiz-adv-x="1133" 
d="M907 1462l54 -13.9971c-16.667 -32 -30.5 -61.5 -41.5 -88.5s-22 -55.667 -33 -86l-30.5 -85.5c-61.333 -6.66699 -127 -10 -197 -10c-32.667 0 -66.334 1.66699 -101.001 5s-70 7.5 -106 12.5l-118 16.5l-13 -22c-4.66699 -8 -8.83398 -17 -12.501 -27
s-5.5 -21 -5.5 -33c0 -50 13.667 -85.667 41 -107s63.166 -35.833 107.499 -43.5l150.5 -25.5c56.667 -11.333 106.5 -28.833 149.5 -52.5s77.833 -51 104.5 -82s46.334 -64.167 59.001 -99.5s19 -72 19 -110c0 -66.667 -15.333 -136.5 -46 -209.5
s-76.5 -143.833 -137.5 -212.5s-134.5 -126.5 -220.5 -173.5s-180.667 -77.167 -284 -90.5l-35 99c92.667 17.333 173.5 48.666 242.5 93.999s122 98 159 158s55.5 119.333 55.5 178c0 54 -14.167 98.333 -42.5 133s-59.333 60.167 -93 76.5s-84.167 37.166 -151.5 62.499
c-50.667 19.333 -91.167 37.333 -121.5 54s-56.666 40.167 -78.999 70.5s-33.5 68.166 -33.5 113.499c0 36 7 76 21 120s33.167 91.5 57.5 142.5s56.5 113.5 96.5 187.5c49.333 -3.33301 96.166 -7.5 140.499 -12.5l115.5 -13.5c32.667 -4 60 -7.16699 82 -9.5
s45 -3.5 69 -3.5c36.667 0 70.334 5.16699 101.001 15.5s56.334 34.5 77.001 72.5z" />
    <glyph glyph-name="six" unicode="6" horiz-adv-x="1135" 
d="M774 1507l59.998 -54.999l-233 -241.5c-37.333 -39 -78.666 -88 -123.999 -147s-80.833 -118.5 -106.5 -178.5s-38.5 -122.333 -38.5 -187c0 -62.667 9.66699 -117.334 29 -164.001s46.833 -89.334 82.5 -128.001s70.167 -70.167 103.5 -94.5s100.333 -70.833 201 -139.5
c50 44.667 87.333 84.5 112 119.5s37 74.5 37 118.5c0 42.667 -13 86.5 -39 131.5s-58.333 85.5 -97 121.5s-78 65.167 -118 87.5s-74 33.5 -102 33.5c-23.333 0 -46.666 -1.33301 -69.999 -4l-41 33c16 24 41 53 75 87s68.5 63.167 103.5 87.5s62.167 36.5 81.5 36.5
c32.667 0 69.5 -14.333 110.5 -43s80.667 -66 119 -112s70.166 -96.833 95.499 -152.5s38 -107.5 38 -155.5c0 -67.333 -29.833 -147.5 -89.5 -240.5s-128.334 -174.5 -206.001 -244.5s-139.167 -105 -184.5 -105c-23.333 0 -62 16.667 -116 50
s-109.667 77.666 -167 132.999s-105.666 117.833 -144.999 187.5s-59 140.834 -59 213.501c0 70 14.833 141.333 44.5 214s73.834 148.834 132.501 228.501s130.5 161.5 215.5 245.5s183.5 172 295.5 264z" />
    <glyph glyph-name="seven" unicode="7" horiz-adv-x="1036" 
d="M963 1462l72.999 -61.0049c-46 -63.333 -101.833 -156.166 -167.5 -278.499s-128 -250.833 -187 -385.5s-108.167 -266.167 -147.5 -394.5s-59 -232.166 -59 -311.499c0 -94.667 3.33301 -165 10 -211c-42.667 16 -80.334 27 -113.001 33s-81 11.333 -145 16
c16 86 43 183.333 81 292s81.167 219.5 129.5 332.5s97.333 220.5 147 322.5s102.5 204 158.5 306h-38h-332c-55.333 0 -94.166 -3.66699 -116.499 -11s-37.5 -24.666 -45.5 -51.999l-98 35c39.333 114 63.5 191.333 72.5 232s20.167 78 33.5 112
c76 -14.667 159.333 -23 250 -25h162c96.667 2.66699 167.334 7.83398 212.001 15.501s84.667 18.834 120 33.501z" />
    <glyph glyph-name="eight" unicode="8" horiz-adv-x="1135" 
d="M315 748c-74 48 -123.833 95.667 -149.5 143s-38.5 89 -38.5 125c0 58.667 18 114.5 54 167.5s79.5 99.333 130.5 139s102 71.167 153 94.5s89.5 35 115.5 35c36.667 0 78.167 -11.667 124.5 -35s91.833 -54.333 136.5 -93s80.834 -80.334 108.501 -125.001
s41.5 -86.667 41.5 -126s-9.16699 -75.5 -27.5 -108.5s-42.666 -63.333 -72.999 -91s-70.5 -60.167 -120.5 -97.5c68 -40.667 121.667 -77.167 161 -109.5s69.833 -70.666 91.5 -114.999s32.5 -98.5 32.5 -162.5c0 -52.667 -31.833 -112.167 -95.5 -178.5
s-137.334 -122.833 -221.001 -169.5s-150.167 -70 -199.5 -70c-37.333 0 -82.833 14.667 -136.5 44s-104.834 67.166 -153.501 113.499s-89 96.333 -121 150s-48 104.834 -48 153.501c0 57.333 16.5 111.333 49.5 162s94.833 102 185.5 154zM705 823
c30.667 12.667 56.666 30.834 77.999 54.501s32 52.167 32 85.5c0 44 -24.667 91.333 -74 142s-107.166 93.167 -173.499 127.5s-118.833 51.5 -157.5 51.5c-26.667 0 -52.5 -12.833 -77.5 -38.5s-37.5 -52.5 -37.5 -80.5c0 -36.667 13.5 -71.834 40.5 -105.501
s62 -65 105 -94s90 -56.167 141 -81.5zM730.999 147c22 10 42.333 23.1699 61 39.5029s33.667 34.333 45 54s17 40.5 17 62.5c0 54 -31.833 111.667 -95.5 173s-135.667 113.666 -216 156.999s-136.833 65 -169.5 65c-14 0 -29.667 -5.83301 -47 -17.5
s-32.333 -27.834 -45 -48.501s-19 -43 -19 -67c0 -50 25 -102.833 75 -158.5s111 -106.334 183 -152.001s142.333 -81.5 211 -107.5z" />
    <glyph glyph-name="nine" unicode="9" horiz-adv-x="1133" 
d="M358 -80l-65.001 78.002c87.333 71.333 169.333 150.5 246 237.5s138.834 175.167 186.501 264.5s71.5 172 71.5 248c0 61.333 -9.83301 115.333 -29.5 162s-47 88.334 -82 125.001s-72.167 69 -111.5 97l-189 130c-48 -43.333 -84.833 -83.5 -110.5 -120.5
s-38.5 -76.833 -38.5 -119.5c0 -57.333 21.333 -115 64 -173s92.5 -106.167 149.5 -144.5s104.5 -57.5 142.5 -57.5c31.333 0 54.666 2 69.999 6l40 -32c-26 -39.333 -66.667 -84 -122 -134s-100.666 -75 -135.999 -75c-42.667 0 -93 24.667 -151 74
s-107.667 110.166 -149 182.499s-62 140.166 -62 203.499c0 56.667 17.833 118.5 53.5 185.5s80.667 130.833 135 191.5s108.333 109.667 162 147s96.5 56 128.5 56s75.5 -16.5 130.5 -49.5s109.5 -76.833 163.5 -131.5s99.5 -116.5 136.5 -185.5s55.5 -137.833 55.5 -206.5
c0 -104.667 -30.5 -209.334 -91.5 -314.001s-136.5 -203 -226.5 -295s-213.667 -208.667 -371 -350z" />
    <glyph glyph-name="colon" unicode=":" horiz-adv-x="567" 
d="M158 846c0 39.333 1.83496 67.8301 5.50195 85.4971s8.83398 28.667 15.501 33s16 6.5 28 6.5c16.667 0 29.667 -0.166992 39 -0.5s19.333 -0.833008 30 -1.5c21.333 0 49.333 1.33301 84 4h23c11.333 -1.33301 18.666 -4.66602 21.999 -9.99902s5 -12.333 5 -21
c0 -22.667 -0.166992 -40.667 -0.5 -54s-0.833008 -28 -1.5 -44c0.666992 -15.333 1.16699 -29.666 1.5 -42.999s0.5 -31 0.5 -53c0 -8.66699 -1.83301 -15.667 -5.5 -21s-10.834 -8.66602 -21.501 -9.99902h-23c-34.667 2.66699 -62.667 4 -84 4
c-14.667 0 -26.834 -0.166992 -36.501 -0.5s-20.5 -0.833008 -32.5 -1.5c-22.667 0 -36.5 6.16699 -41.5 18.5s-7.5 48.5 -7.5 108.5zM158.002 128.997c0 39.333 1.83398 67.832 5.50098 85.499s8.83398 28.667 15.501 33s16 6.5 28 6.5c16.667 0 29.667 -0.166992 39 -0.5
s19.333 -0.833008 30 -1.5c21.333 0 49.333 1.33301 84 4h23c12 -2 19.5 -5.5 22.5 -10.5s4.5 -11.833 4.5 -20.5c0 -22.667 -0.166992 -40.667 -0.5 -54s-0.833008 -28 -1.5 -44c0.666992 -15.333 1.16699 -29.5 1.5 -42.5s0.5 -30.833 0.5 -53.5
c0 -8.66699 -1.83301 -15.667 -5.5 -21s-10.834 -8.66602 -21.501 -9.99902h-23c-34.667 2.66699 -62.667 4 -84 4c-14.667 0 -26.834 -0.166992 -36.501 -0.5s-20.5 -0.833008 -32.5 -1.5c-22.667 0 -36.5 6.16699 -41.5 18.5s-7.5 48.5 -7.5 108.5z" />
    <glyph glyph-name="semicolon" unicode=";" horiz-adv-x="565" 
d="M160 846c0 39.333 1.83301 67.832 5.5 85.499s8.83398 28.667 15.501 33s16 6.5 28 6.5c16.667 0 29.667 -0.166992 39 -0.5s19.666 -0.833008 30.999 -1.5c18.667 0 47.334 1.33301 86.001 4h22c16.667 -2.66699 25 -13 25 -31c0 -22.667 -0.166992 -40.667 -0.5 -54
s-0.833008 -28 -1.5 -44c0.666992 -16 1.16699 -30.667 1.5 -44s0.5 -30.666 0.5 -51.999c0 -18 -8.33301 -28.333 -25 -31h-22c-38.667 2.66699 -67.334 4 -86.001 4c-14.667 0 -27 -0.166992 -37 -0.5s-21 -0.833008 -33 -1.5c-20 0 -33.167 6.83301 -39.5 20.5
s-9.5 49.167 -9.5 106.5zM168 -328.001l-39.002 43c84.667 75.333 127 141 127 197c0 43.333 -2.66699 73.333 -8 90h-39c-20 0 -33.167 6.83301 -39.5 20.5s-9.5 49.167 -9.5 106.5c0 39.333 1.83301 67.833 5.5 85.5s8.83398 28.667 15.501 33s16 6.5 28 6.5
c16.667 0 29.667 -0.166992 39 -0.5s19.666 -0.833008 30.999 -1.5c20.667 0 48.334 1.33301 83.001 4h21c12 -2 19.5 -5.5 22.5 -10.5s4.5 -11.833 4.5 -20.5c0 -102 -4.66699 -182.833 -14 -242.5s-31.666 -115.667 -66.999 -168s-89 -99.833 -161 -142.5z" />
    <glyph glyph-name="less" unicode="&#x3c;" horiz-adv-x="1305" 
d="M608 952h146h30c36 -7.33301 94.667 -68 176 -182s154.333 -240.167 219 -378.5s97 -249.833 97 -334.5c0 -24 -2.83301 -40.167 -8.5 -48.5s-15.167 -12.5 -28.5 -12.5c-4 0 -13 0.666992 -27 2s-25.333 2 -34 2h-1121c-10 -0 -17 1.83301 -21 5.5
s-6.33301 12.167 -7 25.5v24c6 99.333 37.333 189.5 94 270.5s127 159.5 211 235.5c65.333 60 110.5 103 135.5 129s45.5 55.167 61.5 87.5s24 66.833 24 103.5c0 6.66699 -0.166992 12.167 -0.5 16.5s-0.833008 8.83301 -1.5 13.5c0 15.333 3 26 9 32s21.333 9 46 9z
M653 74l138 463.001l-111.5 142c-20.333 26.667 -44.833 63 -73.5 109c-32 -90.667 -77.667 -174.334 -137 -251.001zM303 78.001h234l-150 371c-25.333 -38 -44.333 -75.667 -57 -113s-20.667 -70.833 -24 -100.5s-5 -61.834 -5 -96.501
c0 -27.333 0.666992 -47.666 2 -60.999zM758 78.001h241c1.33301 6.66699 2 17.667 2 33c0 58 -10.833 110 -32.5 156s-56.5 104.333 -104.5 175z" />
    <glyph glyph-name="greater" unicode="&#x3e;" horiz-adv-x="1757" 
d="M356 530l381.007 0.00195312c94 60 162.667 119.333 206 178s65 104.667 65 138c0 4 -1 7.83301 -3 11.5l-6.5 11.5c-2.33301 4 -4.16602 8 -5.49902 12c-4 10 -6 20 -6 30c0 15.333 3 26 9 32s21.333 9 46 9h142c13.333 0 22.166 -1.33301 26.499 -4
s6.5 -9.33398 6.5 -20.001c1.33301 -16.667 5.16602 -32.334 11.499 -47.001s16 -30.667 29 -48s39 -49.666 78 -96.999s64.167 -78.333 75.5 -93c96 -120 173 -227.167 231 -321.5s87 -182.5 87 -264.5c0 -26.667 -4 -43.834 -12 -51.501s-22 -11.5 -42 -11.5l-27 2
c-9.33301 0.666992 -17.5 1.33398 -24.5 2.00098s-12.833 1.16699 -17.5 1.5s-12.334 0.5 -23.001 0.5c-19.333 0 -35 -0.166992 -47 -0.5s-25.667 -0.833008 -41 -1.5c-18.667 0 -30.334 5.33301 -35.001 16s-11.334 41.334 -20.001 92.001
c-22 136.667 -69.333 241.334 -142 314.001c-29.333 -19.333 -60.666 -31.666 -93.999 -36.999v-45c0 -44 3.5 -94.5 10.5 -151.5s10.5 -99.5 10.5 -127.5c0 -16.667 -1.83301 -28.834 -5.5 -36.501s-12.834 -13.334 -27.501 -17.001s-38.667 -5.5 -72 -5.5h-33h-47
c-17.333 0 -30.333 2.5 -39 7.5s-15.5 18.667 -20.5 41s-7.5 56.833 -7.5 103.5c0 102 1.33301 179 4 231c-52 9.33301 -93 23 -123 41c-75.333 -114 -113 -214.333 -113 -301c0 -16.667 2.5 -37.334 7.5 -62.001s7.5 -39 7.5 -43c0 -13.333 -13.667 -20 -41 -20
c-14.667 0.666992 -28.334 1.16699 -41.001 1.5s-28.334 0.5 -47.001 0.5c-11.333 0 -19.833 -0.166992 -25.5 -0.5s-13 -0.833008 -22 -1.5s-18.833 -1.33398 -29.5 -2.00098l-32 -2c-15.333 0 -27.333 2.16699 -36 6.5s-13 13.833 -13 28.5c0 46 14.5 109 43.5 189
s79.5 158.333 151.5 235h-308c0 -32.667 1.83301 -69.5 5.5 -110.5s7.83398 -84.333 12.501 -130l10 -97.5c2 -19.333 3 -38 3 -56c0 -21.333 -6.33301 -36.5 -19 -45.5s-41 -13.5 -85 -13.5h-47h-50c-20.667 1.33301 -35.334 5.83301 -44.001 13.5s-15.5 28.667 -20.5 63
s-8.33301 94.5 -10 180.5s-2.5 182 -2.5 288c0 134.667 2.5 229.334 7.5 284.001s12.5 89.167 22.5 103.5s25.667 21.5 47 21.5c14 0 25.333 -0.166992 34 -0.5s18 -0.833008 28 -1.5c21.333 0 52.666 1.33301 93.999 4h23c16 -2.66699 24 -13.334 24 -32.001
c0 -50 -5.5 -102.833 -16.5 -158.5s-16.5 -134.167 -16.5 -235.5zM1053.01 758.002c-30 -60 -53.999 -104.333 -71.999 -133s-49.333 -75.334 -94 -140.001c47.333 -30 111.333 -45 192 -45c75.333 0 136.333 15 183 45c-40.667 44.667 -77.334 87.834 -110.001 129.501
s-65.667 89.5 -99 143.5z" />
    <glyph glyph-name="question" unicode="?" horiz-adv-x="1077" 
d="M502 399l-94.002 -0.000976562c0 62.667 9.33301 115.834 28 159.501s48.334 97.834 89.001 162.501s71.167 122 91.5 172s30.5 108.667 30.5 176c0 68.667 -13 133.334 -39 194.001s-59.5 109 -100.5 145s-81.833 54 -122.5 54c-24 0 -48.5 -12 -73.5 -36
s-47.333 -55.667 -67 -95s-34.167 -81 -43.5 -125h-111c10.667 74 39.5 148.167 86.5 222.5s100.5 134.666 160.5 180.999s113.667 69.5 161 69.5c30 0 71 -15 123 -45s103.667 -69.667 155 -119s94.5 -105 129.5 -167s52.5 -124.333 52.5 -187
c0 -128.667 -33.5 -238.834 -100.5 -330.501s-132.167 -159.5 -195.5 -203.5c-28.667 -20 -54.667 -39.667 -78 -59s-42.666 -42.5 -57.999 -69.5s-23.333 -60.167 -24 -99.5zM331.998 99.999c0 56.667 3.50098 91.666 10.501 104.999s19.167 20 36.5 20h70
c38 0 66.667 0.666992 86 2h22c18 -2.66699 27 -12.667 27 -30c0 -12 -0.666992 -28.667 -2 -50s-2 -37.666 -2 -48.999c0 -9.33301 0.666992 -24.333 2 -45s2 -37 2 -49c0 -19.333 -9 -30.333 -27 -33h-22c-38.667 2.66699 -67.334 4 -86.001 4
c-14.667 0 -27 -0.166992 -37 -0.5s-21 -0.833008 -33 -1.5c-20.667 0 -33.667 6.16699 -39 18.5s-8 48.5 -8 108.5z" />
    <glyph glyph-name="at" unicode="@" horiz-adv-x="1475" 
d="M551 569l-255.999 265.001c-3.33301 3.33301 -10.333 8.83301 -21 16.5s-18.667 15.167 -24 22.5s-8 16 -8 26c0 21.333 9.66699 35.166 29 41.499s51.333 9.5 96 9.5h759c46.667 0 78.834 -2.83301 96.501 -8.5s26.5 -19.167 26.5 -40.5
c0 -20.667 -6.16699 -38.5 -18.5 -53.5s-29.833 -31.167 -52.5 -48.5l-279 -226c106 -16.667 198.667 -55.834 278 -117.501s140.166 -130.334 182.499 -206.001s65.833 -139.834 70.5 -192.501v-26c-2 -16.667 -7 -27 -15 -31s-20.333 -6 -37 -6
c-9.33301 0.666992 -19.666 1.33398 -30.999 2.00098s-21 1.33398 -29 2.00098s-15 1.16699 -21 1.5s-15 0.5 -27 0.5c-19.333 0 -35.166 -0.166992 -47.499 -0.5s-25.833 -0.833008 -40.5 -1.5c-18.667 0 -30.167 2.5 -34.5 7.5s-8 24 -11 57s-7.16699 68.167 -12.5 105.5
c-4 38 -14.5 81.667 -31.5 131s-44.333 94.666 -82 135.999s-87.167 65.666 -148.5 72.999v-133c0.666992 -58.667 4.33398 -120.167 11.001 -184.5s10 -108.166 10 -131.499c0 -21.333 -6.5 -36.5 -19.5 -45.5s-41.5 -13.5 -85.5 -13.5h-47h-49
c-18 1.33301 -31.167 4.83301 -39.5 10.5s-14.5 17 -18.5 34s-6.5 45.833 -7.5 86.5s-1.83301 83.667 -2.5 129c0 76.667 -1.33301 159.334 -4 248.001c-73.333 -8.66699 -132.333 -44.5 -177 -107.5s-73 -140.5 -85 -232.5
c-4.66699 -46.667 -7.83398 -79.834 -9.50098 -99.501s-3.66699 -34.667 -6 -45s-6.33301 -17.166 -12 -20.499s-14.834 -5 -27.501 -5c-15.333 0.666992 -29.5 1.16699 -42.5 1.5s-28.833 0.5 -47.5 0.5c-7.33301 0 -18 -0.5 -32 -1.5l-43 -3c-14.667 -1 -26 -1.5 -34 -1.5
c-18.667 0 -31.834 4 -39.501 12s-11.5 25 -11.5 51c0 32.667 11.167 74.667 33.5 126s55.166 103.833 98.499 157.5s96.833 101.334 160.5 143.001s135.5 70.167 215.5 85.5zM795.001 598.001l241.001 199c24.667 20 37 33.667 37 41c0 18 -7.83301 29.667 -23.5 35
s-43.834 8 -84.501 8h-426z" />
    <glyph glyph-name="A" unicode="A" horiz-adv-x="1415" 
d="M565 1376h-157.001v86h636v-86h-161l377 -1290h141v-86h-615v86h156l-154 530c-16 -76 -40.333 -153.167 -73 -231.5s-70.5 -148.166 -113.5 -209.499s-90.167 -110.666 -141.5 -147.999s-103.666 -56 -156.999 -56c-66.667 0 -121.5 21.5 -164.5 64.5
s-64.5 103.5 -64.5 181.5c0 68 13.833 142.167 41.5 222.5s62.667 159.333 105 237s90.5 158.167 144.5 241.5c15.333 24 44.5 67.167 87.5 129.5s73.167 112.166 90.5 149.499s26 78.666 26 123.999c0 12.667 -1.33301 31 -4 55zM728.999 811l-91.999 325.999
c-46.667 -62.667 -95.667 -135.667 -147 -219s-95 -166.666 -131 -249.999s-57.333 -158.666 -64 -225.999v-53c3.33301 -27.333 14.333 -50.833 33 -70.5s46.667 -29.5 84 -29.5c47.333 0 93.666 28.667 138.999 86s84 127.666 116 210.999s52.667 158.333 62 225z" />
    <glyph glyph-name="B" unicode="B" horiz-adv-x="1331" 
d="M227 86l-0.000976562 649.001c0 114.667 6.66699 213.834 20 297.501s39.166 158.167 77.499 223.5s94.5 116 168.5 152s169 54 285 54c93.333 0 172.166 -16.333 236.499 -49s112 -74.334 143 -125.001s46.5 -102.334 46.5 -155.001c0 -48 -10.5 -94 -31.5 -138
s-55.667 -80.5 -104 -109.5s-109.5 -43.5 -183.5 -43.5c-61.333 0 -123.666 21.667 -186.999 65l-90 -112c69.333 -55.333 137 -95.833 203 -121.5s142.333 -38.5 229 -38.5h70c41.333 -2.66699 67.333 -14.667 78 -36s16 -57 16 -107v-326
c0 -54.667 -3.16699 -92.5 -9.5 -113.5s-20.166 -35 -41.499 -42s-57.666 -10.5 -108.999 -10.5h-987v86h170zM544.999 86.001h251.999c32 0 55 8 69 24s21 53.667 21 113v232c0 24 -2 41.333 -6 52s-15.667 23 -35 37s-47.333 31.333 -84 52
c-56.667 31.333 -99.167 57 -127.5 77s-58.166 47.667 -89.499 83v-670zM544.998 827.001l119.001 162.002c40 -23.333 71.333 -35 94 -35c31.333 0 60.666 16.5 87.999 49.5s41 86.833 41 161.5c0 53.333 -8 95.666 -24 126.999s-36.333 53.166 -61 65.499
s-50.334 18.5 -77.001 18.5c-73.333 0 -121.666 -38.333 -144.999 -115s-35 -179.667 -35 -309v-125z" />
    <glyph glyph-name="C" unicode="C" horiz-adv-x="1419" 
d="M1362 926l-537.001 -0.00292969v86h88c0 74.667 -7 137 -21 187s-32.167 87.667 -54.5 113s-45.5 42.333 -69.5 51s-49.333 13 -76 13c-71.333 0 -130.166 -35 -176.499 -105s-69.5 -181.667 -69.5 -335c0 -122 4.66699 -201.333 14 -238s24 -67.834 44 -93.501
s35.167 -68 45.5 -127s15.5 -173.167 15.5 -342.5c0 -16 -1.16699 -29.667 -3.5 -41s-5.5 -23.166 -9.5 -35.499s-7.66699 -25.166 -11 -38.499c9.33301 -8 25.666 -12 48.999 -12c43.333 0 90.5 22.667 141.5 68s94.333 106.333 130 183s53.5 159 53.5 247
c0 24.667 -0.666992 43 -2 55h-88v86h537v-86h-84c-4 -90.667 -28.667 -174.167 -74 -250.5s-103.666 -141.166 -174.999 -194.499s-146.666 -93.5 -225.999 -120.5s-152.333 -40.5 -219 -40.5c-62 0 -112 8.33301 -150 25v57
c-0.666992 36.667 -7.33398 72.834 -20.001 108.501s-28.334 68.167 -47.001 97.5s-40.334 59.666 -65.001 90.999l-64 82c-64 85.333 -105.333 158.833 -124 220.5s-28 125.167 -28 190.5c0 119.333 26.333 227.5 79 324.5s126.667 173 222 228s204 82.5 326 82.5
c127.333 0 231.333 -23.667 312 -71s139.834 -104.166 177.501 -170.499s62.834 -135.833 75.501 -208.5h84v-86z" />
    <glyph glyph-name="D" unicode="D" horiz-adv-x="1473" 
d="M961 0l-173.002 0.00390625c-37.333 -24.667 -63 -37 -77 -37c-16 0 -35.5 3.16699 -58.5 9.5s-43.167 15.5 -60.5 27.5h-80c-52.667 0 -94 -6.16699 -124 -18.5s-53.833 -33.166 -71.5 -62.499s-34.5 -72.666 -50.5 -129.999l-25.5 -105
c-7 -28.667 -15.333 -50.334 -25 -65.001s-23.5 -22 -41.5 -22c-27.333 0 -53 26 -77 78s-43.5 113.167 -58.5 183.5s-22.5 129.166 -22.5 176.499c0 20.667 7.83301 38.5 23.5 53.5s37.834 22.5 66.501 22.5c29.333 0 58.166 -4.16699 86.499 -12.5
s65.166 -12.5 110.499 -12.5h184c-190.667 180 -286 372.667 -286 578c0 140.667 31.333 275.167 94 403.5s134.5 232 215.5 311s142.833 118.5 185.5 118.5c30 0 73.667 -14.833 131 -44.5s115.333 -72.334 174 -128.001s108.167 -125 148.5 -208s60.5 -176.5 60.5 -280.5
c0 -42.667 -4 -90.334 -12 -143.001s-23.5 -111.5 -46.5 -176.5s-56.167 -134.333 -99.5 -208s-99.666 -147.834 -168.999 -222.501h286c40.667 0 80.334 4.16699 119.001 12.5s64.667 12.5 78 12.5c30.667 0 53.334 -7.5 68.001 -22.5s22 -32.833 22 -53.5
c0 -46 -7.5 -104.333 -22.5 -175s-34.667 -132.167 -59 -184.5s-49.833 -78.5 -76.5 -78.5c-17.333 0 -30.166 6 -38.499 18s-17.5 38.167 -27.5 78.5s-18.667 72.166 -26 95.499c-16.667 57.333 -33.334 100.833 -50.001 130.5s-39.5 50.5 -68.5 62.5s-71.167 18 -126.5 18
zM484.998 1204c-52.667 -58.667 -79 -141.332 -79 -247.999c0 -76 12.167 -153 36.5 -231s56.333 -148.5 96 -211.5s83 -112.833 130 -149.5s91.833 -55 134.5 -55c49.333 0 86.666 2 111.999 6c23.333 65.333 35 131.666 35 198.999c0 116.667 -18 228 -54 334
s-89.167 191.833 -159.5 257.5s-154.166 98.5 -251.499 98.5z" />
    <glyph glyph-name="E" unicode="E" horiz-adv-x="1481" 
d="M741 717l75.9951 0.000976562c-12.667 42 -32 73 -58 93s-49.667 30 -71 30c-42 0 -83.667 -7.66699 -125 -23s-76.666 -39.333 -105.999 -72c13.333 -86 24.333 -146.833 33 -182.5s20.667 -79.334 36 -131.001s26 -93.167 32 -124.5s9 -73.666 9 -126.999
c0 -34.667 -6.66699 -70.667 -20 -108c18 -10 43.333 -15 76 -15c124 0 214.5 32.833 271.5 98.5s93.5 135.5 109.5 209.5h-103v84h537v-84l-76 -3c-42 -76 -96 -144 -162 -204s-136.5 -106.167 -211.5 -138.5s-149.833 -48.5 -224.5 -48.5c-142 0 -254 13 -336 39
c2.66699 22.667 4 39 4 49c0 52 -11.167 99.167 -33.5 141.5s-52.833 86.833 -91.5 133.5c-58 70.667 -103.333 131.334 -136 182.001s-55 97.667 -67 141s-18 92 -18 146c0 130.667 23.333 239.667 70 327s106.834 155.333 180.501 204s149 82.167 226 100.5
s151.5 27.5 223.5 27.5c119.333 0 232.666 -24.5 339.999 -73.5s183.333 -131.5 228 -247.5h98v-86h-508v86h64c-6.66699 38 -20.667 75.167 -42 111.5s-50.833 66 -88.5 89s-84.5 34.5 -140.5 34.5c-80.667 0 -142.667 -28.333 -186 -85s-71.666 -122.334 -84.999 -197.001
s-20 -148 -20 -220c0 -4 1.66699 -20.333 5 -49c97.333 86 211.333 129 342 129c46.667 0 95.334 -8.5 146.001 -25.5s96.334 -43.333 137.001 -79s70.334 -79.834 89.001 -132.501h84v-86h-508v86z" />
    <glyph glyph-name="F" unicode="F" horiz-adv-x="1925" 
d="M1460 768l38.999 0.00195312c121.333 0 199.666 4.16699 234.999 12.5s63.666 12.5 84.999 12.5c30.667 0 53.334 -7.83301 68.001 -23.5s22 -32.5 22 -50.5c0 -46 -7.66699 -104.333 -23 -175s-35.166 -132.167 -59.499 -184.5s-49.5 -78.5 -75.5 -78.5
c-18 0 -31.333 6.83301 -40 20.5s-18.334 41.5 -29.001 83.5s-18.334 71.333 -23.001 88c-21.333 70.667 -45.333 123.167 -72 157.5s-73 51.5 -139 51.5c-12.667 -77.333 -37.334 -157.5 -74.001 -240.5s-80.5 -161.5 -131.5 -235.5s-101.5 -133 -151.5 -177
s-92 -66 -126 -66c-57.333 0 -127 36.333 -209 109s-152.667 165 -212 277s-89 223 -89 333c-32.667 -2.66699 -59.667 -10 -81 -22s-38.666 -28.167 -51.999 -48.5s-24.166 -42.333 -32.499 -66s-20.833 -63.5 -37.5 -119.5l-18 -69
c-8 -31.333 -15.833 -51.833 -23.5 -61.5s-19.834 -14.5 -36.501 -14.5c-26 0 -51.167 26.167 -75.5 78.5s-44.166 113.833 -59.499 184.5s-23 129 -23 175c0 18 7.33301 34.833 22 50.5s37.334 23.5 68.001 23.5c23.333 0 44.666 -2.66699 63.999 -8s45.333 -9.5 78 -12.5
s89.334 -4.5 170.001 -4.5h43c0 79.333 28.333 177.5 85 294.5s123.834 218.667 201.501 305s145.167 129.5 202.5 129.5c32 0 76.833 -14.667 134.5 -44s115.5 -71.833 173.5 -127.5s106.833 -124.834 146.5 -207.501s59.5 -176.667 59.5 -282
c0 -14.667 -1.33301 -37.334 -4 -68.001zM679.999 768.002l498 0.00292969c-14.667 61.333 -38.5 124.666 -71.5 189.999s-80.167 122.666 -141.5 171.999s-136.666 74 -225.999 74c-20.667 -24 -37.834 -54.667 -51.501 -92s-22.167 -89.333 -25.5 -156v-84
c2 -34.667 8 -69.334 18 -104.001zM1194 682.005l-487.001 0.000976562c38.667 -100.667 90.334 -188 155.001 -262s129.667 -111 195 -111c48.667 0 86 2 112 6c23.333 65.333 35 131.666 35 198.999c0 66 -3.33301 122 -10 168z" />
    <glyph glyph-name="H" unicode="H" 
d="M567 993v-907h142v-86h-629v86h170v1262h-170v86h629v-86h-142v-218l453 -555v773h-141v86h628v-86h-170v-1262h170v-86h-628v86h141v354z" />
    <glyph glyph-name="I" unicode="I" horiz-adv-x="850" 
d="M266 86v1262h-170v86h658v-86h-170v-1262h170v-86h-658v86h170z" />
    <glyph glyph-name="J" unicode="J" horiz-adv-x="1942" 
d="M1169 408l68.0029 0.00195312c23.333 93.333 45.166 176.666 65.499 249.999s43.166 149.666 68.499 228.999s53 157.666 83 234.999c30 78 58 140.167 84 186.5s58.333 83.5 97 111.5s85.667 42 141 42c30 0 61.167 -3.66699 93.5 -11s56.5 -17.333 72.5 -30
c-0.666992 -3.33301 -7.33398 -26.166 -20.001 -68.499s-20.167 -72.833 -22.5 -91.5s-3.5 -54.667 -3.5 -108l-30 -2c-51.333 24.667 -92.333 37 -123 37c-55.333 0 -103.333 -22 -144 -66s-75.667 -103.5 -105 -178.5s-56.833 -160.333 -82.5 -256l-74.5 -279.5h76v-86
h-244v-236h170v-86h-628v86h170v236h-381l-332 1048h-139v64h612v-64h-141l301 -962h80v1271l288 66v-1337z" />
    <glyph glyph-name="K" unicode="K" horiz-adv-x="1473" 
d="M1446 -457l-65.9902 -53.001c-28 13.333 -65.167 28.333 -111.5 45s-90.333 29.334 -132 38.001s-82.5 13 -122.5 13c-52 0 -90.333 -2 -115 -6c-42.667 -6 -110.834 -20.5 -204.501 -43.5s-177.167 -34.5 -250.5 -34.5c-77.333 0 -143.333 14 -198 42
s-96 65.167 -124 111.5s-42 94.833 -42 145.5c0 38.667 11.667 78 35 118s54 73 92 99s77.667 39 119 39c102 0 214.667 -21.667 338 -65c53.333 -18 94.666 -29.667 123.999 -35s56 -8 80 -8c39.333 0 68 21.667 86 65s28.333 98 31 164v78
c-4 108.667 -18.667 189.834 -44 243.501s-57.5 88.667 -96.5 105s-89.167 24.5 -150.5 24.5c-52.667 0 -103.667 -14.833 -153 -44.5s-74 -90.834 -74 -183.501c0 -8.66699 1.33301 -28.334 4 -59.001h-360c2 112 31.667 197.333 89 256s148.333 97 273 115
c68 6.66699 125.667 12.667 173 18s91.5 16.833 132.5 34.5s74 49.5 99 95.5s37.5 110.667 37.5 194c0 194 -76.333 291 -229 291c-66 0 -118.333 -17 -157 -51s-65.5 -80.833 -80.5 -140.5s-22.5 -129.834 -22.5 -210.501h-315c0 81.333 16 157.166 48 227.499
s79.333 127.833 142 172.5s137.667 70.334 225 77.001l-198 262h295l79 -219c26.667 68 47 116.833 61 146.5s34.667 56.834 62 81.501s61.666 37 102.999 37c31.333 0 64 -5.66699 98 -17s61.333 -29.666 82 -54.999l-33 -42.5c-17.333 -22.333 -29.833 -40.5 -37.5 -54.5
s-13.834 -30.5 -18.501 -49.5s-7 -39.167 -7 -60.5h-60c-10 35.333 -33.667 53 -71 53c-20 0 -39.833 -7.5 -59.5 -22.5s-34.834 -34.833 -45.501 -59.5c97.333 -0.666992 183.166 -18.167 257.499 -52.5s130.666 -77.833 168.999 -130.5s57.5 -107 57.5 -163
c0 -71.333 -13.167 -130.333 -39.5 -177s-64.666 -85.167 -114.999 -115.5s-115.166 -59.166 -194.499 -86.499v-24c116.667 -34.667 206.667 -75 270 -121s106.666 -96.833 129.999 -152.5s35 -120.834 35 -195.501c0 -90.667 -16.333 -165.334 -49 -224.001
s-73.334 -101.167 -122.001 -127.5s-97 -39.5 -145 -39.5c-58.667 0 -114 4.66699 -166 14c-58.667 11.333 -107 22.5 -145 33.5s-81 25.167 -129 42.5s-84.5 29.166 -109.5 35.499s-54.167 9.5 -87.5 9.5c-67.333 0 -116.833 -16.667 -148.5 -50s-47.5 -70 -47.5 -110
c0 -26.667 9.83301 -54.667 29.5 -84s48 -53.666 85 -72.999s78.5 -29 124.5 -29c102 0 180.667 8 236 24c23.333 6.66699 58.5 20.834 105.5 42.501s91 38.834 132 51.501s85.833 19 134.5 19c57.333 0 112.666 -11 165.999 -33s99.666 -47.833 138.999 -77.5
s71.666 -57.834 96.999 -84.501z" />
    <glyph glyph-name="M" unicode="M" horiz-adv-x="2210" 
d="M889 86l-222.996 1040c-76 -115.333 -134 -224.833 -174 -328.5s-60 -212.5 -60 -326.5c0 -36.667 1.83301 -73.167 5.5 -109.5s8 -76.333 13 -120s8.5 -80.5 10.5 -110.5v-102c-2.66699 -20.667 -12.334 -35 -29.001 -43c-14 -6 -29 -9 -45 -9c-12 0 -36.667 3 -74 9
c-12 1.33301 -29.667 2 -53 2c-28.667 0 -50.334 -0.666992 -65.001 -2c-20 -2.66699 -35 -4 -45 -4c-22.667 0 -40 10.167 -52 30.5s-18 59.166 -18 116.499c0 99.333 13.333 189.333 40 270s58.667 150.334 96 209.001s89.666 132.334 156.999 221.001
s115.666 155.667 144.999 201c65.333 102 98 190.667 98 266c0 12 -1.33301 29.333 -4 52h-151v86h586v-86h-115l260 -1203l227 1203h-90v86h551v-86h-133l274 -1262h142v-86h-549v86h90l-231 1077l-201 -1077h108v-86h-598v86h107z" />
    <glyph glyph-name="O" unicode="O" horiz-adv-x="1305" 
d="M666 1489c34 0 82.1699 -23.832 144.503 -71.499s124.833 -108.834 187.5 -183.501s115.5 -157.334 158.5 -248.001s64.5 -177 64.5 -259c0 -88 -14.667 -165.167 -44 -231.5s-67.833 -126 -115.5 -179s-126.5 -133.167 -236.5 -240.5
c-58.667 -57.333 -97.334 -93.5 -116.001 -108.5s-36.667 -22.5 -54 -22.5c-14 0 -31.167 6.83301 -51.5 20.5s-61.833 47.167 -124.5 100.5c-81.333 70.667 -141.833 124.834 -181.5 162.501s-76.334 79.834 -110.001 126.501s-59.334 97.5 -77.001 152.5
s-26.5 117.167 -26.5 186.5c0 141.333 39.333 267.333 118 378s173 208.667 283 294c16.667 12.667 38.167 31.167 64.5 55.5s47.833 41.666 64.5 51.999s34 15.5 52 15.5zM530.003 1219c-51.333 -7.33301 -95.6689 -27.5 -133.002 -60.5s-65.666 -71.667 -84.999 -116
s-29 -85.833 -29 -124.5c0 -54.667 17.833 -111.667 53.5 -171s85.167 -124 148.5 -194l145 -148.5c51.333 -50.333 84.5 -86.5 99.5 -108.5s24.5 -51 28.5 -87c64 24 120.667 63.333 170 118s78 109.667 86 165v69c-8 54 -29.167 101.333 -63.5 142
s-84.166 89.834 -149.499 147.501s-120 113.667 -164 168s-79.667 121.166 -107 200.499z" />
    <glyph glyph-name="P" unicode="P" horiz-adv-x="1358" 
d="M567 547l0.00195312 -460.998h170v-86h-657v86h170v750c0 55.333 0.5 110.166 1.5 164.499s2.5 103.166 4.5 146.499c26 62 62.667 116.5 110 163.5s104.166 84 170.499 111s137.5 40.5 213.5 40.5c75.333 0 145.5 -9.5 210.5 -28.5s120 -46.167 165 -81.5
s80 -78.333 105 -129s37.5 -107.334 37.5 -170.001c0 -67.333 -13.833 -131.833 -41.5 -193.5s-67.834 -111.167 -120.501 -148.5s-114 -56 -184 -56c-22 0 -40.667 1.5 -56 4.5s-31.5 8.16699 -48.5 15.5s-33.167 15.333 -48.5 24s-35.333 19.334 -60 32.001z
M567.002 670.002l131.001 166c28.667 -23.333 54 -35 76 -35c34.667 0 65.5 18.833 92.5 56.5s40.5 104.167 40.5 199.5c0 94.667 -11.5 171.5 -34.5 230.5s-68.833 88.5 -137.5 88.5s-113.834 -32.667 -135.501 -98s-32.5 -150 -32.5 -254v-78v-276z" />
    <glyph glyph-name="Q" unicode="Q" horiz-adv-x="2277" 
d="M0 664c0 142 30.501 276.502 91.501 403.502s132.167 230.333 213.5 310s144.333 119.5 189 119.5c34.667 0 81 -14.833 139 -44.5s115.5 -72 172.5 -127s105 -123.833 144 -206.5s58.5 -177 58.5 -283c0 -90.667 -17 -187.334 -51 -290.001
s-77.833 -198.334 -131.5 -287.001s-108.834 -160.167 -165.501 -214.5s-106.667 -81.5 -150 -81.5c-34.667 0 -81.167 19.667 -139.5 59s-116 92 -173 158s-104.167 141.333 -141.5 226s-56 170.667 -56 258zM283.001 1204
c-23.333 -30.667 -42.167 -64.3301 -56.5 -100.997s-21.5 -85.667 -21.5 -147c0 -78.667 11.5 -156.334 34.5 -233.001s54 -146.334 93 -209.001s82.5 -112.5 130.5 -149.5s94.333 -55.5 139 -55.5c49.333 0 87 2 113 6c12.667 37.333 21.667 71.166 27 101.499
s8 62.833 8 97.5c0 114 -18 224.5 -54 331.5s-89.5 193.5 -160.5 259.5s-155.167 99 -252.5 99zM1776 0.00585938l-107 -0.000976562c-5.33301 -52 -8.66602 -104.667 -9.99902 -158v-92c1.33301 -71.333 6.5 -128.166 15.5 -170.499s13.5 -64.5 13.5 -66.5
c0 -8 -1.66699 -16.333 -5 -25l-190 -14v37c1.33301 62.667 3.66602 115.334 6.99902 158.001s8.5 92.5 15.5 149.5l22.5 181.5h-186l-326 1348h-84v86h551v-86h-141l256 -1092c63.333 292.667 111.666 503 144.999 631s61.333 228.333 84 301
c28.667 86 61.834 153.167 99.501 201.5s92.5 72.5 164.5 72.5c30.667 0 65.167 -5.5 103.5 -16.5s62.5 -24.5 72.5 -40.5c-3.33301 -27.333 -9.16602 -49.833 -17.5 -67.5c-8.33301 -17.667 -14.666 -38.667 -19 -63c-4.33301 -24.333 -6.5 -74.5 -6.5 -150.5h-30l-47 25
c-13.333 7.33301 -26.333 13.333 -39 18s-24.334 7 -35.001 7c-42.667 0 -78 -14.833 -106 -44.5s-49.167 -63.334 -63.5 -101.001s-32.166 -93.167 -53.499 -166.5c-54.667 -198 -89.667 -327.667 -105 -389s-25.333 -105.5 -30 -132.5l-16 -94
c-6 -35.667 -18 -89.167 -36 -160.5h103v-86z" />
    <glyph glyph-name="R" unicode="R" horiz-adv-x="2341" 
d="M1122 1434l0.000976562 -85.998h-170v-506c28.667 -24 60.167 -45.5 94.5 -64.5s72.166 -36 113.499 -51s82.5 -26.5 123.5 -34.5s79.5 -12 115.5 -12c9.33301 0 23.333 0.666992 42 2s32.667 2 42 2c45.333 0 77.5 -7.83301 96.5 -23.5s28.5 -52.167 28.5 -109.5v-408
c0 -60.667 -9.5 -99.667 -28.5 -117s-50.5 -26 -94.5 -26h-1020v86h170v1262h-135c-54.667 0 -103.667 -13.667 -147 -41s-80.333 -86.333 -111 -177c-2.66699 -8 -8.5 -27.833 -17.5 -59.5s-17.833 -52.834 -26.5 -63.501s-21.334 -16 -38.001 -16
c-13.333 0 -30.166 7.5 -50.499 22.5s-39.833 51.667 -58.5 110s-28 143.166 -28 254.499c0 22 5.83301 41.167 17.5 57.5s28.167 24.5 49.5 24.5c4.66699 0 9.5 -0.5 14.5 -1.5s11.667 -2.5 20 -4.5l25.5 -6c46 -9.33301 83.333 -14 112 -14h860zM952.001 86.002
l185.001 -0.00292969c47.333 0 84.666 6.83301 111.999 20.5s41 45.167 41 94.5v243c0 50 -3 84 -9 102s-20.667 32 -44 42c-15.333 6.66699 -37.5 14.834 -66.5 24.501s-53.5 18.834 -73.5 27.501s-42 19.834 -66 33.501s-50.333 32.167 -79 55.5v-643zM1780 85.999v1262
h-142v86h629v-86h-170v-1262h170v-86h-600v86h113z" />
    <glyph glyph-name="S" unicode="S" horiz-adv-x="1303" 
d="M1161 1022l-275.995 1.99609c-18 0 -27 13.667 -27 41c0 92.667 -10.333 162.334 -31 209.001s-43.334 76.667 -68.001 90s-47.667 20 -69 20c-38.667 0 -70.167 -10.167 -94.5 -30.5s-42.333 -48.333 -54 -84s-19.5 -75.667 -23.5 -120s-6 -96.5 -6 -156.5
c0 -60.667 7.83301 -109.167 23.5 -145.5s37 -63.666 64 -81.999s51.5 -29.666 73.5 -33.999s66.667 -11.833 134 -22.5c149.333 -22.667 255 -68.667 317 -138s93 -145 93 -227c0 -62 -10.333 -123.833 -31 -185.5s-59.334 -114 -116.001 -157
s-133.334 -64.5 -230.001 -64.5c-34.667 0 -64.834 1.5 -90.501 4.5s-50.667 7.66699 -75 14s-51.166 14.5 -80.499 24.5c-74.667 26 -120.167 41.667 -136.5 47s-35.833 8 -58.5 8c-60 0 -90 -47 -90 -141c0 -6 1.33301 -18.333 4 -37c1.33301 -10 2 -23 2 -39
c0 -8.66699 -8.66699 -13 -26 -13c-12.667 0.666992 -25 1.16699 -37 1.5s-37.333 0.5 -76 0.5c-26 -4 -49.5 -10.667 -70.5 -20s-33.5 -14 -37.5 -14c-10.667 0 -20.834 12.5 -30.501 37.5s-14.5 54.833 -14.5 89.5c0 78.667 23 141.667 69 189s106.667 71 182 71
c36.667 0 79.334 -6 128.001 -18s110.667 -31.333 186 -58l37.5 -13c13 -4.66699 25.833 -8.16699 38.5 -10.5s23.334 -3.5 32.001 -3.5c106.667 0 160 109.333 160 328c0 100 -25.333 168.667 -76 206s-115.334 60 -194.001 68c-66.667 8 -120.5 16 -161.5 24
s-83 23.667 -126 47s-78.167 58.5 -105.5 105.5s-41 107.167 -41 180.5c0 72.667 14.167 136.834 42.5 192.501s67.666 102.5 117.999 140.5s106.666 66.333 168.999 85s128.5 28 198.5 28c110.667 0 204.5 -22 281.5 -66s134 -97.167 171 -159.5s55.5 -119.5 55.5 -171.5
c0 -28.667 -9 -43 -27 -43z" />
    <glyph glyph-name="T" unicode="T" 
d="M635 86l0.00292969 1262h-88c-9.33301 0.666992 -17.833 1.16699 -25.5 1.5s-17.5 0.5 -29.5 0.5c-41.333 0 -76.833 -13.333 -106.5 -40s-57.834 -83.667 -84.501 -171c-4.66699 -16.667 -12.334 -46.334 -23.001 -89.001s-20.334 -70.667 -29.001 -84s-22 -20 -40 -20
c-26 0 -51.167 26.167 -75.5 78.5s-44.166 113.833 -59.499 184.5s-23 129 -23 175c0 20.667 8.16699 38.834 24.5 54.501s38.166 23.5 65.499 23.5c39.333 0 67.166 -3.83301 83.499 -11.5s42.333 -12.667 78 -15s72.167 -3.5 109.5 -3.5
c14 0.666992 26.333 1.16699 37 1.5s24 0.5 40 0.5h609c16 0 29.5 -0.166992 40.5 -0.5s23.5 -0.833008 37.5 -1.5c36.667 0 72.667 1.33301 108 4c36.667 2 63.167 6.83301 79.5 14.5s43.833 11.5 82.5 11.5c27.333 0 49.166 -7.83301 65.499 -23.5
s24.5 -33.834 24.5 -54.501c0 -46 -7.66699 -104.333 -23 -175s-35.166 -132.167 -59.499 -184.5s-49.5 -78.5 -75.5 -78.5c-16 0 -28.333 5.66699 -37 17s-17.667 35.333 -27 72s-18.666 71.334 -27.999 104.001c-16.667 61.333 -36.5 107.333 -59.5 138
s-48.167 50.167 -75.5 58.5s-64.333 12.5 -111 12.5h-88v-1262h170v-86h-657v86h170z" />
    <glyph glyph-name="U" unicode="U" horiz-adv-x="1415" 
d="M342 1501l73.9961 -59.001c-36.667 -25.333 -68 -57.666 -94 -96.999s-39 -77.333 -39 -114c0 -51.333 20.833 -98.833 62.5 -142.5s111.667 -100.167 210 -169.5s163.833 -117.666 196.5 -144.999c93.333 45.333 178.333 107.166 255 185.499s115 174.166 115 287.499
c0 40 -7.16699 79.333 -21.5 118s-43.166 84 -86.499 136l51 64c76.667 -20.667 144.334 -31 203.001 -31c28.667 0 58.667 2 90 6c-0.666992 -5.33301 -1.16699 -9.83301 -1.5 -13.5s-1.16602 -9.5 -2.49902 -17.5c-14.667 -106.667 -39.167 -204.334 -73.5 -293.001
s-75.166 -165.167 -122.499 -229.5s-98.5 -119.166 -153.5 -164.499s-112.833 -82.333 -173.5 -111v-9c62.667 -29.333 116.5 -61 161.5 -95s80 -71 105 -111s37.5 -80.333 37.5 -121c0 -54 -12.5 -112.333 -37.5 -175s-69.333 -116.5 -133 -161.5
s-147.5 -67.5 -251.5 -67.5c-122 0 -219.167 29.333 -291.5 88s-108.5 142 -108.5 250c0 82.667 19.667 147.5 59 194.5s80 83.833 122 110.5c-116.667 26.667 -216.167 75 -298.5 145s-123.5 159 -123.5 267c0 38.667 4.83301 75.5 14.5 110.5s34 82.333 73 142
s99.833 133.834 182.5 222.501zM581.996 577.999c-49.333 -30.667 -86.667 -69.832 -112 -117.499s-38 -95.5 -38 -143.5c0 -62 21.5 -118 64.5 -168s108.167 -75 195.5 -75c64 0 115.833 20.167 155.5 60.5s59.5 86.166 59.5 137.499c0 54.667 -26.167 109.5 -78.5 164.5
s-134.5 102.167 -246.5 141.5z" />
    <glyph glyph-name="V" unicode="V" horiz-adv-x="1536" 
d="M543 1348l273.998 -1112c40.667 124 70.834 220.667 90.501 290s42.5 155.333 68.5 258s53 202.334 81 299.001c22.667 78.667 45 144.834 67 198.501s51.667 97.5 89 131.5s85.666 51 144.999 51c12 0 33.333 -2.66699 64 -8s57.334 -12.166 80.001 -20.499
s34 -17.833 34 -28.5c0 -14.667 -5 -31.834 -15 -51.501s-17.833 -38.667 -23.5 -57s-8.5 -48.5 -8.5 -90.5c0 -10.667 1.33301 -38 4 -82h-33c-24 14 -44.333 24.667 -61 32s-36.667 11 -60 11c-48 0 -86 -14.833 -114 -44.5s-54.167 -79.5 -78.5 -149.5
s-68.166 -218.5 -131.499 -445.5s-105.333 -374.833 -126 -443.5h96v-86h-428l-344 1348h-170v86h643v-86h-143z" />
    <glyph glyph-name="W" unicode="W" horiz-adv-x="2040" 
d="M1057 420c-56 -86.667 -105.165 -159.502 -147.498 -218.502s-81.833 -108 -118.5 -147s-79 -76.167 -127 -111.5c-115.333 82 -212 175 -290 279s-138.667 210 -182 318s-73.5 210.167 -90.5 306.5s-25.5 185.5 -25.5 267.5c0 50 2.83301 113.5 8.5 190.5
s14.5 119.5 26.5 127.5h43h69h56c15.333 0.666992 29.333 1.16699 42 1.5s30.667 0.5 54 0.5c17.333 0 28.833 -1.83301 34.5 -5.5s8.5 -14.167 8.5 -31.5c0 -56 -1.66699 -85.833 -5 -89.5s-5 -29.834 -5 -78.501c0 -100.667 8.5 -207.834 25.5 -321.501
s52.5 -230.5 106.5 -350.5s132 -226.333 234 -319c34.667 34 75.167 81.667 121.5 143s80.166 114 101.499 158c-34 66.667 -61.5 135.334 -82.5 206.001s-36.167 142.167 -45.5 214.5s-15 147.833 -17 226.5v96c1.33301 16 2.5 31.833 3.5 47.5l2 31
c0.333008 5 0.5 16.5 0.5 34.5v18c0.666992 8 4 13.167 10 15.5s21.667 3.5 47 3.5h68h64c12 0.666992 23 1.16699 33 1.5s23.333 0.5 40 0.5c27.333 0 45.5 -2.66699 54.5 -8s13.5 -20 13.5 -44c0 -21.333 -1.33301 -51.333 -4 -90v-71c2.66699 -70 7 -136.167 13 -198.5
s21.167 -142.666 45.5 -240.999s61 -193.666 110 -285.999s114.833 -170.166 197.5 -233.499c42.667 62 77.167 118.5 103.5 169.5s46.166 102.667 59.499 155s20 107.5 20 165.5c0 105.333 -13.5 183.833 -40.5 235.5l-81 155.5c-27 52 -40.5 131 -40.5 237
c0 22 5.33301 36.167 16 42.5s27 9.5 49 9.5h246c34 0 56.5 -5.33301 67.5 -16s16.5 -28 16.5 -52c0 -10 -0.166992 -18.5 -0.5 -25.5s-0.833008 -14.833 -1.5 -23.5c0 -86.667 -2 -163.667 -6 -231s-14.833 -145.333 -32.5 -234s-44.5 -181 -80.5 -277
c-34 -88 -68.833 -163.5 -104.5 -226.5s-78.167 -125.667 -127.5 -188s-111.333 -134.166 -186 -215.499c-84 76 -155.667 152.667 -215 230s-111 159.666 -155 246.999z" />
    <glyph glyph-name="X" unicode="X" horiz-adv-x="1475" 
d="M520 1348l215 -349.001c41.333 109.333 78.833 196 112.5 260s76.5 113.833 128.5 149.5s118.667 53.5 200 53.5c40 0 83.333 -6.83301 130 -20.5s70 -27.834 70 -42.501c0 -16 -8.83301 -39.167 -26.5 -69.5s-30.334 -53.166 -38.001 -68.499
s-11.5 -37.666 -11.5 -66.999c0 -24.667 -2 -47.334 -6 -68.001h-59c-42.667 30.667 -74.167 50 -94.5 58s-44.166 12 -71.499 12c-50.667 0 -94.834 -20 -132.501 -60s-81.5 -122.333 -131.5 -247l467 -803h174v-86h-731v86h194l-317 541l-119 -228
c-61.333 -116 -92 -204.667 -92 -266c0 -18 8.83301 -30.333 26.5 -37s40.167 -10 67.5 -10h51v-86h-497v86c54 0 100.333 11.5 139 34.5s71.334 53.333 98.001 91s50.5 79.334 71.5 125.001l65.5 144.5l123 254l-358 613h-135v86h639v-86h-152z" />
    <glyph glyph-name="Y" unicode="Y" horiz-adv-x="1757" 
d="M1036 86h113.002v-86h-545v86h115v655c-324.667 78 -504.334 280.333 -539.001 607h-125v86h582v-86h-96c0 -128 17.167 -231.833 51.5 -311.5s77.166 -136.167 128.499 -169.5s103.333 -50 156 -50c56.667 0 111.5 18.5 164.5 55.5s95.833 90.333 128.5 160
s49 151.5 49 245.5c0 28 -1.66699 51.333 -5 70h-94v86h582v-86h-125c-36 -330 -216.333 -532.333 -541 -607v-655z" />
    <glyph glyph-name="Z" unicode="Z" horiz-adv-x="1247" 
d="M66 70l735.005 1278c-130.667 -2.66699 -224.667 -6.5 -282 -11.5s-101.333 -17.833 -132 -38.5c-24 -15.333 -42.667 -38.166 -56 -68.499s-26.5 -70.333 -39.5 -120s-25.167 -85.834 -36.5 -108.501s-28 -34 -50 -34c-18.667 0 -39.834 23.833 -63.501 71.5
s-43.667 105.334 -60 173.001s-24.5 126.834 -24.5 177.501c0 38 27.333 57 82 57c31.333 0 62 -2 92 -6s51.333 -6 64 -6h860l-4 -58l-762 -1290h80c224 0 379 -6 465 -18c70.667 -11.333 128.167 -31.666 172.5 -60.999s76.166 -63.666 95.499 -102.999
s29 -82.333 29 -129c0 -52.667 -14.333 -101.834 -43 -147.501s-71.667 -82.334 -129 -110.001s-127 -41.5 -209 -41.5c-54 0 -106.667 6 -158 18l21 53h39c47.333 2 83.666 21.5 108.999 58.5s38 81.167 38 132.5c0 80.667 -21.333 139.834 -64 177.501
s-99.334 61.167 -170.001 70.5s-167.334 14 -290.001 14h-309v70z" />
    <glyph glyph-name="bracketleft" unicode="[" horiz-adv-x="1135" 
d="M324 1604h628v-86h-311v-1840h311v-86h-628v2012z" />
    <glyph glyph-name="backslash" unicode="\" horiz-adv-x="1812" 
d="M928 561h-571.999c0.666992 -44 6 -124.167 16 -240.5s15 -203.5 15 -261.5c0 -21.333 -6.33301 -36.5 -19 -45.5s-41 -13.5 -85 -13.5h-47h-50c-20.667 1.33301 -35.334 5.83301 -44.001 13.5s-15.5 28.667 -20.5 63s-8.33301 94.5 -10 180.5s-2.5 182 -2.5 288
c0 133.333 2.5 227.5 7.5 282.5s12.5 89.833 22.5 104.5s25.667 22 47 22c14 0 25.333 -0.166992 34 -0.5s18 -0.833008 28 -1.5c21.333 0 52.666 1.33301 93.999 4h23c16 -2.66699 24 -13.334 24 -32.001c0 -12.667 -3.33301 -34.5 -10 -65.5
s-11.334 -59.167 -14.001 -84.5c-2 -27.333 -3 -42.5 -3 -45.5s-2 -32.833 -6 -89.5h523l-209 197c-6.66699 4.66699 -14.334 10.334 -23.001 17.001s-16 13.834 -22 21.501s-9 16.5 -9 26.5c0 21.333 9.83301 35.166 29.5 41.499s52.167 9.5 97.5 9.5h758
c35.333 0 61.333 -3 78 -9s25 -19.333 25 -40c0 -20 -5 -35.5 -15 -46.5s-31 -30.167 -63 -57.5l-279 -226c78 -14.667 148.833 -40.334 212.5 -77.001s118.334 -79.834 164.001 -129.501s81.5 -101.5 107.5 -155.5s41 -105.333 45 -154v-26
c-2 -17.333 -6.83301 -27.833 -14.5 -31.5s-20.167 -5.5 -37.5 -5.5c-9.33301 0.666992 -19.333 1.33398 -30 2.00098s-20 1.33398 -28 2.00098s-15 1.16699 -21 1.5s-15 0.5 -27 0.5c-19.333 -0 -35.333 -0.166992 -48 -0.5s-26.667 -0.833008 -42 -1.5
c-18.667 0 -30.334 3.83301 -35.001 11.5s-7.66699 28.834 -9 63.501s-4.33301 66.334 -9 95.001c-11.333 85.333 -34.666 154.5 -69.999 207.5s-90.666 97.167 -165.999 132.5v-133v-88c0.666992 -32 4.33398 -71 11.001 -117s10 -83 10 -111
c0 -22 -5.83301 -37.333 -17.5 -46s-41.5 -13 -89.5 -13h-47h-49c-22 1.33301 -36.667 5 -44 11s-12.666 19.167 -15.999 39.5s-6 54.166 -8 101.499v120c0.666992 15.333 1.16699 29.5 1.5 42.5s0.5 31.167 0.5 54.5c0 56 -2 102.333 -6 139
c-76.667 -36.667 -132.834 -81.5 -168.501 -134.5s-57.167 -121.5 -64.5 -205.5s-13 -133.333 -17 -148s-17 -22 -39 -22c-15.333 0.666992 -29.333 1.16699 -42 1.5s-28.667 0.5 -48 0.5c-11.333 0 -20 -0.166992 -26 -0.5s-13.333 -0.833008 -22 -1.5
s-18.334 -1.33398 -29.001 -2.00098l-31 -2c-16 0 -27.667 2.33301 -35 7s-12 14.667 -14 30v26c7.33301 90 47.333 181.333 120 274s192.334 168.667 359.001 228v2zM1169 598l241.999 198.999c22.667 18.667 35 32.334 37 41.001v18
c-3.33301 10.667 -12.666 17.5 -27.999 20.5s-42.333 4.5 -81 4.5h-426z" />
    <glyph glyph-name="bracketright" unicode="]" horiz-adv-x="1135" 
d="M811 1604v-2012h-629v86h312v1840h-312v86h629z" />
    <glyph glyph-name="asciicircum" unicode="^" horiz-adv-x="1530" 
d="M666 1288l-116.996 -0.00292969c-76.667 0 -130.834 -3.5 -162.501 -10.5s-56.834 -23.833 -75.501 -50.5c-13.333 -19.333 -23.333 -46.166 -30 -80.499s-12 -57.166 -16 -68.499s-14.667 -17 -32 -17c-12.667 0 -29.834 15.167 -51.501 45.5
s-40.667 68.166 -57 113.499s-24.5 88 -24.5 128c0 16 17.333 24 52 24c-10 0 35.667 -2 137 -6c101.333 -5.33301 166.666 -8 195.999 -8h578c32.667 0 98.334 2.66699 197.001 8c96 4 141.667 6 137 6c25.333 0 41.666 -8 48.999 -24v-35
c-30.667 -86 -50.667 -141 -60 -165s-19.833 -44.5 -31.5 -61.5s-24.834 -25.5 -39.501 -25.5c-14 0 -23.5 4.33301 -28.5 13s-8.5 21.334 -10.5 38.001s-4.66699 31 -8 43c-15.333 55.333 -38.5 91.333 -69.5 108s-73.5 25 -127.5 25h-76h-114
c-4.66699 -32.667 -7 -60.667 -7 -84c0 0.666992 1.83301 -28 5.5 -86s5.5 -97 5.5 -117c0 -23.333 -5.5 -39 -16.5 -47s-37.833 -12 -80.5 -12h-20h-47c-21.333 0 -37.166 5.16699 -47.499 15.5s-15.833 31.833 -16.5 64.5v102c3.33301 72.667 6.33301 127.334 9 164.001z
M760.004 280.997c-35.333 -67.333 -73.9961 -125.67 -115.996 -175.003s-92.667 -97.666 -152 -144.999c-136 92 -238 210 -306 354s-102 286 -102 426c0 130.667 8.33301 201 25 211h28h53h41c12.667 0.666992 24 1.16699 34 1.5s23.333 0.5 40 0.5
c12 0 20.167 -1.16699 24.5 -3.5s6.5 -9.16602 6.5 -20.499c0 -8 -1.33301 -23 -4 -45s-4 -44.667 -4 -68c0 -60.667 5.33301 -127.167 16 -199.5s35.167 -150.833 73.5 -235.5s93.833 -159.334 166.5 -224.001c46.667 59.333 77.667 100.5 93 123.5
s28.666 48.5 39.999 76.5c-20.667 50.667 -34.334 97.834 -41.001 141.501s-10 90.834 -10 141.501c0 15.333 3.16699 27 9.5 35s20.166 12 41.499 12c13.333 0 23.833 -0.166992 31.5 -0.5s16.167 -0.833008 25.5 -1.5c24 0 57.333 1.33301 100 4h17
c28.667 -4.66699 46.667 -27.167 54 -67.5s14.333 -84.166 21 -131.499s23.167 -98.5 49.5 -153.5s71.5 -109.5 135.5 -163.5c41.333 45.333 73.166 97.833 95.499 157.5s33.5 115.167 33.5 166.5c0 77.333 -19.667 160.666 -59 249.999l-36 84
c-7.33301 17.333 -13.5 33.5 -18.5 48.5s-7.5 27.5 -7.5 37.5c0 22.667 15 34 45 34h66h49h61h29c22 -3.33301 33 -29.333 33 -78c0 -103.333 -5.66699 -190.5 -17 -261.5s-33 -148.167 -65 -231.5c-35.333 -90 -74.333 -163.833 -117 -221.5s-104 -123.834 -184 -198.501
c-60 39.333 -118 88.333 -174 147s-97.667 116.334 -125 173.001z" />
    <glyph glyph-name="underscore" unicode="_" horiz-adv-x="737" 
d="M113 545c0 127.333 2.83105 220.164 8.49805 278.497s13.834 94.666 24.501 108.999s26.334 21.5 47.001 21.5c13.333 0 24.333 -0.166992 33 -0.5s18 -0.833008 28 -1.5c21.333 0 52.666 1.33301 93.999 4h21c17.333 -2.66699 26 -13.334 26 -32.001
c0 -72 -5.33301 -129.167 -16 -171.5s-17 -108.833 -19 -199.5v-178c0.666992 -45.333 1 -85.666 1 -120.999s1.83301 -65.166 5.5 -89.499s9.83398 -41.5 18.501 -51.5s22.334 -15 41.001 -15c24 0 46.5 3.33301 67.5 10s46.167 16.834 75.5 30.501
s52.166 23.334 68.499 29.001s32.5 8.5 48.5 8.5c7.33301 0 14 -2.16699 20 -6.5s9 -11.833 9 -22.5c0 -34.667 -22.833 -65 -68.5 -91s-103.5 -45.667 -173.5 -59s-136.333 -20 -199 -20c-49.333 0 -85.333 8.5 -108 25.5s-37.5 46.5 -44.5 88.5s-10.5 106.667 -10.5 194
c0.666992 39.333 1.16699 75.833 1.5 109.5s0.5 83.834 0.5 150.501z" />
    <glyph glyph-name="a" unicode="a" horiz-adv-x="1020" 
d="M481 952l208.999 -0.000976562c15.333 0 23.666 -4 24.999 -12c0 -2 1.5 -14.833 4.5 -38.5s6.16699 -42.834 9.5 -57.501c30 -125.333 59.333 -235.333 88 -330c3.33301 -12.667 20 -69.167 50 -169.5s51 -167.5 63 -201.5c10 -33.333 20 -61.5 30 -84.5
s15 -36.5 15 -40.5c0 -12 -13.667 -18 -41 -18h-209c-9.33301 0 -15.666 5 -18.999 15s-12.5 45.333 -27.5 106s-32.833 123.334 -53.5 188.001c-69.333 -221.333 -177.333 -332 -324 -332c-82 0 -139 29.333 -171 88s-48 118.334 -48 179.001c0 57.333 20.5 118 61.5 182
s92.833 132.333 155.5 205l94.5 105c27.667 29.333 45.834 49.333 54.501 60s13 21.667 13 33c0 18.667 -3.5 39.167 -10.5 61.5s-10.5 38.833 -10.5 49.5c0 8 13.667 12 41 12zM497.999 749.999c-54.667 -59.333 -97.167 -114.168 -127.5 -164.501
s-50.833 -92.5 -61.5 -126.5s-16 -62 -16 -84c0 -37.333 10.333 -69.833 31 -97.5s50.667 -41.5 90 -41.5c34.667 0 65.167 8.5 91.5 25.5s46.666 38.167 60.999 63.5s21.5 50.666 21.5 75.999c0 13.333 -5.16699 42.333 -15.5 87s-23.166 93.334 -38.499 146.001
s-27.333 91.334 -36 116.001z" />
    <glyph glyph-name="c" unicode="c" horiz-adv-x="852" 
d="M698 336l67.998 -52.998c-35.333 -73.333 -73.166 -135.833 -113.499 -187.5s-80 -92.167 -119 -121.5s-70.833 -44 -95.5 -44c-24 0 -55.833 17 -95.5 51s-79.167 78.667 -118.5 134s-72.166 116.333 -98.499 183s-39.5 132 -39.5 196c0 66.667 13.167 132.667 39.5 198
s58 122.166 95 170.499s74.167 87.333 111.5 117s66 44.5 86 44.5c20.667 0 58.167 -11.667 112.5 -35s104.166 -50 149.499 -80s68 -55 68 -75c0 -6 -9.83301 -25.5 -29.5 -58.5s-41 -63.667 -64 -92s-41.167 -42.5 -54.5 -42.5c-8 0 -17.167 6.66699 -27.5 20l-46.5 61
c-20.667 27.333 -47.5 51 -80.5 71s-76.5 35.667 -130.5 47c-22.667 -48.667 -34 -108 -34 -178c0 -56.667 13.333 -118.834 40 -186.501s63.334 -128.667 110.001 -183s97 -91.833 151 -112.5c20 20 34.5 36 43.5 48s22.667 32 41 60z" />
    <glyph glyph-name="d" unicode="d" horiz-adv-x="1374" 
d="M860 70l176 -0.00390625c7.33301 0 37 1.66699 89 5s94 5 126 5c82 0 123 -17 123 -51c0 -16 -5.16699 -33.667 -15.5 -53s-29.333 -50.666 -57 -93.999s-53.5 -86.333 -77.5 -129s-47 -88.667 -69 -138l-106 14c38 92 57 162.333 57 211c0 40 -10.833 76.667 -32.5 110
s-61.5 50 -119.5 50h-161c-43.333 -46.667 -80.333 -70 -111 -70c-21.333 0 -46.166 6.83301 -74.499 20.5s-52.5 30.167 -72.5 49.5h-129c-28.667 0 -58.5 -11.833 -89.5 -35.5s-46.5 -64.5 -46.5 -122.5c0 -26 6.16699 -59.833 18.5 -101.5s24.833 -78.167 37.5 -109.5
l-107 -14c-20 50 -43.333 98.5 -70 145.5s-49.5 85.333 -68.5 115s-37.167 59.5 -54.5 89.5s-26 52 -26 66c0 30 32.667 45 98 45c18.667 0 46.667 -1.33301 84 -4s62 -4 74 -4h201c-57.333 55.333 -98.666 115.666 -123.999 180.999s-38 127.666 -38 186.999
c0 76.667 14.167 150.834 42.5 222.501s63.833 134.834 106.5 189.501s85.167 97.334 127.5 128.001s75.166 46 98.499 46c27.333 0 63 -11.167 107 -33.5s87.833 -54.333 131.5 -96s80 -93.167 109 -154.5s43.5 -129.666 43.5 -204.999
c0 -49.333 -13.833 -117.666 -41.5 -204.999s-80.834 -174 -159.501 -260zM516 794.996c-34 -47.333 -51.001 -102.001 -51.001 -164.001c0 -63.333 14.667 -131.666 44 -204.999s73 -135 131 -185s128 -75 210 -75c14.667 55.333 22 107.333 22 156
c0 79.333 -15.667 154 -47 224s-74.166 127 -128.499 171s-114.5 70 -180.5 78z" />
    <glyph glyph-name="e" unicode="e" horiz-adv-x="1020" 
d="M946 860l52.998 -62.999c-27.333 -18.667 -59 -35.334 -95 -50.001s-67.667 -22 -95 -22c-46 0 -94.333 24 -145 72c-8 7.33301 -22 22.333 -42 45s-37 39.167 -51 49.5s-29.667 15.5 -47 15.5c-62 0 -103 -39.5 -123 -118.5s-31.333 -179.5 -34 -301.5
c34.667 26.667 80.334 52.834 137.001 78.501s101.667 38.5 135 38.5c26 0 50.667 -4 74 -12c13.333 -4.66699 37.166 -16.834 71.499 -36.501s57.5 -29.5 69.5 -29.5c26.667 0 52.667 11 78 33l41 -55c-88.667 -100 -161.667 -150 -219 -150
c-18.667 0 -34.334 2.5 -47.001 7.5s-29.334 14.167 -50.001 27.5c-36.667 24.667 -65.167 41.5 -85.5 50.5s-42.166 13.5 -65.499 13.5c-46.667 0 -92.334 -20 -137.001 -60v-26c2 -68.667 15.333 -128.667 40 -180s58.334 -91.166 101.001 -119.499
s90.334 -42.5 143.001 -42.5c80 0 168.333 35.333 265 106l38 -43c-23.333 -24.667 -53.333 -49.5 -90 -74.5s-78.667 -45.167 -126 -60.5s-98 -23 -152 -23c-110.667 0 -200.667 19.833 -270 59.5s-121.166 88 -155.499 145s-56.166 108.5 -65.499 154.5
s-15 88.333 -17 127v69c3.33301 55.333 14.833 112 34.5 170s47.5 111.667 83.5 161s81.167 89.166 135.5 119.499s115.833 45.5 184.5 45.5c56 0 98.5 -6 127.5 -18s56.5 -29.5 82.5 -52.5s50.167 -39.833 72.5 -50.5s55.833 -16 100.5 -16c18 0 33 5.33301 45 16z" />
    <glyph glyph-name="f" unicode="f" horiz-adv-x="1602" 
d="M1192 485l225.004 -0.00488281c4.66699 0 22.334 1.83301 53.001 5.5s52 5.5 64 5.5c45.333 0 68 -15.667 68 -47c0 -17.333 -4.33301 -33.666 -13 -48.999s-27 -44.666 -55 -87.999s-54.5 -87.166 -79.5 -131.499s-49.167 -94.166 -72.5 -149.499l-106 14
c36.667 90 55 160.333 55 211c0 51.333 -13.333 90.833 -40 118.5s-63.667 41.5 -111 41.5c-18 -70.667 -48.167 -143.167 -90.5 -217.5s-89 -137.666 -140 -189.999s-95.167 -78.5 -132.5 -78.5c-27.333 0 -62.833 14.167 -106.5 42.5s-87.167 67 -130.5 116
s-78.5 101.833 -105.5 158.5s-40.5 113 -40.5 169c-26.667 0 -52.334 -4.5 -77.001 -13.5s-45.334 -25.333 -62.001 -49s-25 -54.834 -25 -93.501c0 -51.333 18.667 -121.666 56 -210.999l-107 -14c-18.667 43.333 -42.334 90.333 -71.001 141l-78.5 133.5
c-23.667 38.333 -41.167 68.333 -52.5 90s-17 39.5 -17 53.5c0 28.667 23.333 43 70 43c14.667 0 39 -1.83301 73 -5.5s52.667 -5.5 56 -5.5h233c13.333 96 42.166 185.333 86.499 268s93.666 148.5 147.999 197.5s100.5 73.5 138.5 73.5c16.667 0 46.5 -8.83301 89.5 -26.5
s87 -45 132 -82s84.167 -87.667 117.5 -152s50 -140.5 50 -228.5c0 -22 -0.666992 -38.667 -2 -50zM614.004 484.995h371c-24 82.667 -67 153 -129 211s-130.333 91 -205 99c-20.667 -28.667 -34.667 -58 -42 -88s-11 -55.333 -11 -76c0 -53.333 5.33301 -102 16 -146z
M999.004 415.995h-358c28.667 -72 73 -131.667 133 -179s130.333 -71 211 -71c15.333 58.667 23 112 23 160c0 30 -3 60 -9 90z" />
    <glyph glyph-name="g" unicode="g" horiz-adv-x="793" 
d="M242 61c-22.667 58.667 -43.3301 120.499 -61.9971 185.499s-33.834 128.333 -45.501 190s-17.5 114.834 -17.5 159.501c0 104.667 30 186.834 90 246.501s130.333 99.667 211 120s158.334 30.5 233.001 30.5c17.333 0 29.5 -1.66699 36.5 -5s10.5 -11 10.5 -23
c0 -58 -3.5 -102.167 -10.5 -132.5s-15 -49 -24 -56s-19.833 -10.5 -32.5 -10.5h-35c-58 0 -106.167 -5 -144.5 -15s-66.833 -26.333 -85.5 -49s-28 -52.667 -28 -90c0 -35.333 4 -76.333 12 -123c32 20 77.833 43.833 137.5 71.5s100.5 41.5 122.5 41.5
c13.333 0 21.666 -5.33301 24.999 -16v-41c0 -19.333 3 -39.5 9 -60.5s9 -37.167 9 -48.5c0 -25.333 -4.33301 -42.5 -13 -51.5s-21.334 -13.5 -38.001 -13.5c-5.33301 0 -11.666 0.5 -18.999 1.5s-14.333 1.83301 -21 2.5s-12.667 1.16699 -18 1.5s-13.333 0.5 -24 0.5
c-52.667 0 -96.334 -22.667 -131.001 -68c4 -34 11.667 -68.667 23 -104s26.333 -53 45 -53c32 0 67.333 8 106 24c31.333 13.333 56.666 25.166 75.999 35.499s33 15.5 41 15.5c11.333 0 18.666 -4.66699 21.999 -14v-12v-45c0.666992 -8 1.33398 -16.833 2.00098 -26.5
s1 -17.5 1 -23.5c0 -19.333 -20 -42.666 -60 -69.999s-129.333 -49 -268 -65h-53c-22 6 -39.333 17.167 -52 33.5s-22.667 35.166 -30 56.499z" />
    <glyph glyph-name="h" unicode="h" horiz-adv-x="1417" 
d="M776 881c-1.33301 -40 -3.50195 -94.1709 -6.50195 -162.504s-4.66699 -110.166 -5 -125.499s-0.5 -37.666 -0.5 -66.999c92 -7.33301 171.167 -19.666 237.5 -36.999s124.5 -46 174.5 -86c64 -50 106.833 -104.333 128.5 -163s32.5 -112 32.5 -160
c0 -37.333 -10.167 -60.666 -30.5 -69.999s-48.833 -14 -85.5 -14c-31.333 0 -54.666 0.666992 -69.999 2c-8 0.666992 -15.167 1.16699 -21.5 1.5s-14.833 0.5 -25.5 0.5h-520c-20 -0 -35 3.33301 -45 10s-17 21 -21 43s-6 55 -6 99c0 66.667 0.5 116.334 1.5 149.001
s3.33301 92.667 7 180s7 162 10 224l8.5 176h-47c-42.667 0 -81.167 -4 -115.5 -12s-63.666 -25.333 -87.999 -52s-36.5 -65 -36.5 -115c0 -34.667 8 -73.334 24 -116.001l-106 -19c-12.667 51.333 -27.5 94.333 -44.5 129s-33 63.167 -48 85.5l-42 64
c-13 20.333 -19.5 39.5 -19.5 57.5c0 16 6.33301 32.667 19 50s26.334 26 41.001 26c7.33301 0 14.833 -1.16699 22.5 -3.5s25.167 -6 52.5 -11s67.666 -8.66699 120.999 -11s118.333 -3.5 195 -3.5h76c4.66699 99.333 9.83398 199.333 15.501 300s11 166.5 16 197.5
s11.833 50.833 20.5 59.5s22.667 13 42 13h156c32.667 0 49 -10.333 49 -31c0 -30 -2.16699 -56.167 -6.5 -78.5l-15.5 -79c-6 -30.333 -12.333 -77 -19 -140s-12.334 -143.5 -17.001 -241.5h308c8 0 19.833 0.5 35.5 1.5l47 3c15.667 1 27.5 1.5 35.5 1.5
c12 0 21.833 -4 29.5 -12s11.5 -18.333 11.5 -31c0 -14 -11 -43.167 -33 -87.5l-49.5 -100c-11 -22.333 -26.5 -66.833 -46.5 -133.5l-88 8c10 55.333 15 90.333 15 105c0 32 -3.33301 60.5 -10 85.5s-23.167 46.333 -49.5 64s-66.833 26.5 -121.5 26.5h-92z
M765.998 69.9961l233 -0.00195312l35 2c1.33301 14.667 2 36.334 2 65.001c0 38 -6.66699 77.667 -20 119s-40.5 79 -81.5 113s-97.833 55.667 -170.5 65c-2.66699 -23.333 -4 -59.333 -4 -108c0 -105.333 2 -190.666 6 -255.999z" />
    <glyph glyph-name="i" unicode="i" horiz-adv-x="537" 
d="M315 0l-96.001 0.00292969c-17.333 0 -30.666 4.66699 -39.999 14s-16.833 31.166 -22.5 65.499s-9.66699 86.5 -12 156.5s-3.5 173.667 -3.5 311c0 129.333 2.83301 223.166 8.5 281.499s13.5 93.833 23.5 106.5s25.333 19 46 19c16 0 28.833 -0.166992 38.5 -0.5
s20.167 -0.833008 31.5 -1.5c20 0 48 1.33301 84 4h22c18 -2.66699 27 -13.334 27 -32.001c0 -20 -3.5 -47.333 -10.5 -82s-12.5 -72.5 -16.5 -113.5s-6 -98.833 -6 -173.5c0 -84 1.5 -144.5 4.5 -181.5s8.16699 -88.667 15.5 -155s11 -119.5 11 -159.5
c0 -23.333 -6 -39 -18 -47s-41 -12 -87 -12zM218.999 1331l69.9971 0.000976562c26.667 0.666992 48.834 1.16699 66.501 1.5s30.834 0.5 39.501 0.5c18 0 27 -10 27 -30c0 -22.667 -0.166992 -40.834 -0.5 -54.501s-0.833008 -28.5 -1.5 -44.5
c0.666992 -15.333 1.16699 -29.333 1.5 -42s0.5 -30 0.5 -52c0 -19.333 -9 -30.333 -27 -33h-22c-38.667 2.66699 -66.667 4 -84 4c-14.667 0 -27 -0.166992 -37 -0.5s-21 -0.833008 -33 -1.5c-22.667 0 -36.5 6.16699 -41.5 18.5s-7.5 48.5 -7.5 108.5
c0 39.333 1.83301 67.833 5.5 85.5s8.83398 28.667 15.501 33s16 6.5 28 6.5z" />
    <glyph glyph-name="j" unicode="j" horiz-adv-x="1360" 
d="M719 -2l0.00195312 -522.004h-168v522h-289c-10 0 -17 0.333008 -21 1s-7.66699 2.66699 -11 6s-5.33301 7 -6 11s-1 11 -1 21v45c-6 164 -19.5 289.5 -40.5 376.5s-48.167 176 -81.5 267s-50 159.833 -50 206.5c0 10.667 5.66699 18.667 17 24h28
c22.667 -2.66699 57 -4 103 -4h102c14.667 0 25.334 -7.66699 32.001 -23s13.5 -42 20.5 -80s25.167 -145 54.5 -321c16.667 -100.667 28 -175.167 34 -223.5s11 -93.166 15 -134.499s8.66699 -75.333 14 -102h80l-16 1036c-0.666992 37.333 -2.83398 80.5 -6.50098 129.5
s-7.33398 91.167 -11.001 126.5s-6.16699 65.333 -7.5 90c0 28.667 4.66699 47.5 14 56.5s23 13.5 41 13.5c13.333 0 24.166 -0.166992 32.499 -0.5s17.5 -0.833008 27.5 -1.5c42 0 73.333 0.666992 94 2h22c16.667 -3.33301 25 -7.66602 25 -12.999
c0 -2 -1.33301 -16 -4 -42s-4.66699 -60.333 -6 -103c-1.33301 -41.333 -3 -84.166 -5 -128.499l-6 -129.5l-24 -1036h96c10 52 17.167 108.5 21.5 169.5s9.5 114.333 15.5 160s18.333 105.834 37 180.501c34 138.667 76.833 239.5 128.5 302.5s115.167 94.5 190.5 94.5
c66 0 99 -13.667 99 -41c0 -10.667 -5.33301 -25.834 -16 -45.501s-18.667 -35.834 -24 -48.501s-8.33301 -32.667 -9 -60c0 -34 -1.66699 -71.333 -5 -112l-47 -2c-11.333 35.333 -38 53 -80 53c-34 0 -62.5 -11.5 -85.5 -34.5s-41.333 -53.5 -55 -91.5
s-23.167 -71.167 -28.5 -99.5s-15.666 -89.166 -30.999 -182.499c-8 -49.333 -12.833 -85.166 -14.5 -107.499s-3.16699 -45.833 -4.5 -70.5s-5.33301 -60 -12 -106c-2 -12.667 -4.83301 -20.667 -8.5 -24s-11.834 -5 -24.501 -5h-145z" />
    <glyph glyph-name="k" unicode="k" horiz-adv-x="1075" 
d="M231 1192l211.002 -0.00292969l68 -170c19.333 72 39.5 123.5 60.5 154.5s51.5 46.5 91.5 46.5c58 0 97.333 -16.333 118 -49l-35 -56.5c-9.33301 -15 -16.333 -30.5 -21 -46.5s-7 -35 -7 -57h-39c-8 24.667 -24.333 37 -49 37c-15.333 0 -29.833 -6.66699 -43.5 -20
s-22.5 -32 -26.5 -56c81.333 -1.33301 155.666 -21.5 222.999 -60.5s101 -103.5 101 -193.5c0 -38.667 -5.83301 -75.167 -17.5 -109.5s-36.5 -66.166 -74.5 -95.499s-93.333 -49.666 -166 -60.999c130 -32 216.333 -74.5 259 -127.5s64 -117.833 64 -194.5
c0 -86 -20.167 -153.167 -60.5 -201.5s-93.833 -72.5 -160.5 -72.5c-77.333 0 -153 13.667 -227 41l-80.5 30c-25.667 10 -47.667 17.333 -66 22s-35.833 7 -52.5 7c-52 0 -87.167 -14.167 -105.5 -42.5s-27.5 -61.166 -27.5 -98.499c0 -48 27.167 -86 81.5 -114
s117.166 -42 188.499 -42c20.667 0 42.667 6.16699 66 18.5l65 34.5c67.333 36 124 54 170 54c58 0 109.5 -16.333 154.5 -49s95.167 -81.334 150.5 -146.001l-40 -57c-41.333 33.333 -96 60 -164 80s-133.667 30 -197 30c-33.333 0 -71.666 -4.66699 -114.999 -14
c-6.66699 -1.33301 -22 -5.16602 -46 -11.499s-44 -9.5 -60 -9.5c-60 0 -116 9.66699 -168 29s-94 49.333 -126 90s-48 90.667 -48 150c0 41.333 16 79.333 48 114s80.667 52 146 52c25.333 0 48.333 -2.33301 69 -7s42.334 -11 65.001 -19l69 -24
c56 -18.667 104 -28 144 -28c52.667 0 79 71.667 79 215c0 86.667 -13.667 153 -41 199s-78.333 69 -153 69c-100 0 -150 -78.333 -150 -235h-239c0 84 21.5 147 64.5 189s101.167 70.333 174.5 85c8.66699 2 38.167 6.66699 88.5 14s89.166 18 116.499 32
s49.166 37 65.499 69s24.5 77.667 24.5 137c0 74.667 -13.5 126.5 -40.5 155.5s-63.833 43.5 -110.5 43.5c-52 0 -94 -20 -126 -60s-48 -117 -48 -231h-209c0 56.667 10.333 110.167 31 160.5s51.5 92 92.5 125s91.833 52.5 152.5 58.5z" />
    <glyph glyph-name="m" unicode="m" horiz-adv-x="1645" 
d="M948 70l319.999 -0.00195312c-14 120 -21 279 -21 477c0 124 2.66699 216 8 276s13.166 96.833 23.499 110.5s25.833 20.5 46.5 20.5c14 0 25.167 -0.166992 33.5 -0.5s17.5 -0.833008 27.5 -1.5c22 0 53.667 1.33301 95 4h22c18 -3.33301 27 -14 27 -32
c0 -23.333 -3.66699 -48.333 -11 -75s-13.166 -59.167 -17.499 -97.5s-6.5 -103.833 -6.5 -196.5c0 -78 1.66699 -141.167 5 -189.5s8.83301 -105.166 16.5 -170.499s11.5 -110.666 11.5 -135.999c0 -24 -5.5 -39.833 -16.5 -47.5s-41.167 -11.5 -90.5 -11.5h-483
c2 -40 5.83301 -85.5 11.5 -136.5s10.334 -95.5 14.001 -133.5s5.5 -79.667 5.5 -125c0 -21.333 -3.5 -36.333 -10.5 -45s-23.5 -13 -49.5 -13h-96c-15.333 0 -28 3.83301 -38 11.5s-19.5 25.834 -28.5 54.501s-17 74 -24 136s-12.833 145.667 -17.5 251h-512
c-19.333 0 -33.666 5.5 -42.999 16.5s-16.666 34 -21.999 69s-8.83301 96.333 -10.5 184s-2.5 180.167 -2.5 277.5c0 124 2.66699 215.833 8 275.5s13 96.5 23 110.5s25.667 21 47 21c13.333 0 24.333 -0.166992 33 -0.5s18 -0.833008 28 -1.5
c21.333 0 52.666 1.33301 93.999 4h23c17.333 -3.33301 26 -14 26 -32c0 -33.333 -3.83301 -63 -11.5 -89s-13.5 -55.167 -17.5 -87.5s-6 -96.5 -6 -192.5c0 -79.333 1.33301 -151.166 4 -215.499s7.66699 -154.166 15 -269.499h319
c-4.66699 47.333 -8.83398 104 -12.501 170s-5.5 168.333 -5.5 307c0 126 3 218 9 276s14.333 94.333 25 109s26 22 46 22c14 0 25.167 -0.166992 33.5 -0.5s17.5 -0.833008 27.5 -1.5c22 0 53.667 1.33301 95 4h20c18 -2.66699 27 -13.334 27 -32.001
c0 -22.667 -5.83301 -70.834 -17.5 -144.501s-17.5 -148.5 -17.5 -224.5c0 -25.333 0.666992 -57.833 2 -97.5s2.83301 -79.834 4.5 -120.501s3.5 -82.167 5.5 -124.5s4 -89.833 6 -142.5z" />
    <glyph glyph-name="o" unicode="o" horiz-adv-x="907" 
d="M80 416c0 74.667 12.835 149.167 38.502 223.5s58.334 140.166 98.001 197.499s80.167 102.833 121.5 136.5s77.333 50.5 108 50.5c44 0 96.333 -19.833 157 -59.5s113.167 -96.167 157.5 -169.5s66.5 -160 66.5 -260c0 -91.333 -22.333 -183.833 -67 -277.5
s-96.834 -171.667 -156.501 -234s-108.5 -93.5 -146.5 -93.5c-36.667 0 -85.834 23.5 -147.501 70.5s-115.334 107.833 -161.001 182.5s-68.5 152.334 -68.5 233.001zM289.002 795c-19.333 -26 -34.833 -54.499 -46.5 -85.499s-17.5 -57.167 -17.5 -78.5
c0 -63.333 15.5 -129.833 46.5 -199.5s76.833 -128.334 137.5 -176.001s132.667 -71.5 216 -71.5c22.667 44.667 34 94.667 34 150c0 78.667 -16.167 151.667 -48.5 219s-76.5 122.5 -132.5 165.5s-119 68.5 -189 76.5z" />
    <glyph glyph-name="p" unicode="p" horiz-adv-x="965" 
d="M301 147c6.66699 -58.667 11.1689 -100.498 13.502 -125.498l7 -75.5c2.33301 -25.333 4 -57.333 5 -96s1.5 -72 1.5 -100c0 -182.667 -43 -274 -129 -274c-10 0 -19.833 1.83301 -29.5 5.5s-15.5 8.5 -17.5 14.5v12c1.33301 20.667 2 49.334 2 86.001v175
c-2.66699 80.667 -6.33398 140.667 -11.001 180c-6.66699 76.667 -14.5 161.5 -23.5 254.5s-13.5 169.167 -13.5 228.5c0 105.333 22.5 203.333 67.5 294s98.333 162.667 160 216s114.5 80 158.5 80c38 0 78.5 -18.667 121.5 -56s83.167 -87.333 120.5 -150
s67.333 -131.334 90 -206.001s34 -150.334 34 -227.001c0 -126.667 -28 -227.334 -84 -302.001s-123.667 -112 -203 -112c-46.667 0 -96.334 17.167 -149.001 51.5s-93 76.5 -121 126.5zM358.002 829.002c-33.333 -52 -56.001 -101.501 -68.001 -148.501
s-18 -103.167 -18 -168.5c0 -76 13.333 -146 40 -210s60.167 -114.667 100.5 -152s78.833 -56 115.5 -56c26.667 0 50.667 11.667 72 35s34.333 64.333 39 123v76c-4 58 -19.167 121.333 -45.5 190s-60.666 131.834 -102.999 189.501s-86.5 98.167 -132.5 121.5z" />
    <glyph glyph-name="q" unicode="q" horiz-adv-x="1841" 
d="M86 416c0 112.667 27.002 223.166 81.002 331.499s129.333 192.833 226 253.5c22.667 15.333 42.667 23 60 23c44 0 96.333 -19.833 157 -59.5s113.167 -96.167 157.5 -169.5s66.5 -160 66.5 -260c0 -92 -22.667 -185 -68 -279s-97.833 -171.833 -157.5 -233.5
s-108.167 -92.5 -145.5 -92.5c-36.667 0 -85.834 23.5 -147.501 70.5s-115.334 107.833 -161.001 182.5s-68.5 152.334 -68.5 233.001zM295.002 794.999c-19.333 -26 -34.833 -54.501 -46.5 -85.501s-17.5 -57.167 -17.5 -78.5c0 -63.333 15.5 -129.833 46.5 -199.5
s76.833 -128.334 137.5 -176.001s132.667 -71.5 216 -71.5c23.333 46 35 96 35 150c0 78.667 -16.5 151.834 -49.5 219.501s-77.5 122.834 -133.5 165.501s-118.667 68 -188 76zM1788 667.998l-46.999 -1.99805c-11.333 35.333 -37.333 53 -78 53
c-54.667 0 -104.834 -47.333 -150.501 -142s-68.5 -288.334 -68.5 -581.001c0 -105.333 3 -191.666 9 -258.999s12.833 -122.333 20.5 -165s11.5 -70 11.5 -82c0 -13.333 -10.667 -24.5 -32 -33.5s-69.333 -13.5 -144 -13.5c-16.667 0 -27 3.5 -31 10.5s-6 19.167 -6 36.5
c0 82 1.83301 144.5 5.5 187.5s9.66699 87.167 18 132.5l18.5 100c4 21.333 7.66699 51.333 11 90h-119c-26.667 0 -46.5 -0.333008 -59.5 -1l-61 -3c-27.667 -1.33301 -44.167 -2 -49.5 -2c-9.33301 0 -15 3.5 -17 10.5s-3 17.833 -3 32.5v45
c-5.33301 137.333 -16.666 252.166 -33.999 344.499s-37.333 170.5 -60 234.5l-56 158c-14.667 41.333 -22 79 -22 113c0 10 4.66699 16.167 14 18.5s29.333 3.5 60 3.5c16 0 29.167 -0.166992 39.5 -0.5s21.5 -0.833008 33.5 -1.5h68c21.333 2.66699 33.666 4 36.999 4
c10 0 17.667 -6.5 23 -19.5s12 -41.833 20 -86.5l10.5 -52.5c3.66699 -17.667 7.5 -38.5 11.5 -62.5c7.33301 -36.667 11.666 -57.667 12.999 -63c4.66699 -27.333 9.33398 -51.333 14.001 -72c23.333 -125.333 35 -202.333 35 -231c0 -6 -0.666992 -12 -2 -18
s-2 -11.667 -2 -17c0 -26.667 15 -115.334 45 -266.001h82c14 165.333 40.333 336 79 512c27.333 110 64 203.333 110 280s116 115 210 115c64 0 96 -13.667 96 -41c0 -30.667 -2 -51.667 -6 -63s-10.167 -20.5 -18.5 -27.5s-14.5 -16.333 -18.5 -28s-6 -33.5 -6 -65.5
c0 -34.667 -1.33301 -62 -4 -82z" />
    <glyph glyph-name="r" unicode="r" horiz-adv-x="1905" 
d="M375 586l-107.003 -19.0029c-14 44.667 -28.5 81.667 -43.5 111s-30.667 57.833 -47 85.5s-30.833 53.834 -43.5 78.501s-19 45 -19 61c0 19.333 6.16699 36.833 18.5 52.5s25.833 23.5 40.5 23.5c6 0 14.667 -1.5 26 -4.5s27.333 -6.16699 48 -9.5
s59.667 -6.33301 117 -9s124 -4 200 -4h191c29.333 0.666992 53.833 1.16699 73.5 1.5s33.834 0.5 42.501 0.5c18 0 27 -10.667 27 -32c0 -6.66699 -3.66699 -27.834 -11 -63.501s-13.333 -81.5 -18 -137.5c-4 -68 -6 -133.667 -6 -197c96 -2 177.333 -15.5 244 -40.5
s118 -51.833 154 -80.5c65.333 -49.333 108.5 -103.666 129.5 -162.999s31.5 -112.666 31.5 -159.999c0 -25.333 -4.5 -44 -13.5 -56s-21 -19.667 -36 -23s-37.167 -5 -66.5 -5c-31.333 0 -54.666 0.666992 -69.999 2c-8 0.666992 -15.167 1.16699 -21.5 1.5
s-14.833 0.5 -25.5 0.5h-508c-46.667 0 -70 26.667 -70 80v270c0 127.333 1.66699 230.833 5 310.5s9.33301 153.834 18 222.501h-45c-95.333 0 -159.166 -16.333 -191.499 -49s-48.5 -76.667 -48.5 -132c0 -36 8.33301 -74.667 25 -116zM865.997 69.9971l234 -0.000976562
l35 2c0.666992 3.33301 1.16699 6.5 1.5 9.5s0.5 6.5 0.5 10.5v45c-7.33301 175.333 -98.333 274.333 -273 297c-2.66699 -23.333 -4 -59.333 -4 -108c0 -105.333 2 -190.666 6 -255.999zM1683 -0.00390625l-95.998 0.000976562c-16.667 0 -29.834 4.66699 -39.501 14
s-17.334 31.333 -23.001 66s-9.66699 86.667 -12 156s-3.5 172.333 -3.5 309c0 129.333 2.83301 223.166 8.5 281.499s13.5 93.833 23.5 106.5s25.333 19 46 19c16 0 28.833 -0.166992 38.5 -0.5s20.167 -0.833008 31.5 -1.5c20 0 48 1.33301 84 4h22
c18 -2.66699 27 -13.334 27 -32.001c0 -20.667 -3.5 -48.5 -10.5 -83.5s-12.5 -72.5 -16.5 -112.5s-6 -97.667 -6 -173c0 -83.333 1.5 -143.5 4.5 -180.5s8.16699 -88.667 15.5 -155s11 -119.166 11 -158.499c0 -23.333 -6 -39 -18 -47s-41 -12 -87 -12z" />
    <glyph glyph-name="s" unicode="s" horiz-adv-x="1192" 
d="M78 -184l-53 44.9941c48 78.667 93.167 137.167 135.5 175.5s79.5 62.333 111.5 72s65.667 14.5 101 14.5c22 0 41.167 -1.66699 57.5 -5s34.666 -8.66602 54.999 -15.999s36.833 -12.666 49.5 -15.999c38.667 -12 71.334 -18 98.001 -18c70 0 118.5 26.333 145.5 79
s40.5 107.334 40.5 164.001c0 42 -16.167 79.167 -48.5 111.5s-80.166 48.5 -143.499 48.5c-13.333 0 -45.666 -4.66699 -96.999 -14c-87.333 -18 -161.666 -27 -222.999 -27c-52.667 0 -106.834 17.5 -162.501 52.5s-83.5 99.5 -83.5 193.5
c0 78.667 23.833 140.334 71.5 185.001s104 74.834 169 90.501s127.5 23.5 187.5 23.5c67.333 0 134.166 -10.5 200.499 -31.5s121 -46.333 164 -76s64.5 -54.5 64.5 -74.5c0 -6.66699 -13.833 -18.334 -41.5 -35.001s-59.167 -31.834 -94.5 -45.501s-62 -20.5 -80 -20.5
c-24 0 -39 6 -45 18s-13 35.667 -21 71s-19.333 61.5 -34 78.5s-40.667 25.5 -78 25.5c-58.667 0 -104 -16.167 -136 -48.5s-48 -71.5 -48 -117.5c0 -47.333 18.833 -88.5 56.5 -123.5s90.5 -52.5 158.5 -52.5c34.667 0 79.667 7.33301 135 22
c46 12.667 78.667 21.334 98 26.001s38.666 7 57.999 7c68.667 0 122.667 -17.333 162 -52s65.5 -73 78.5 -115s19.5 -77 19.5 -105c0 -37.333 -6.5 -76.666 -19.5 -117.999s-35.833 -81.166 -68.5 -119.499s-77.167 -69.5 -133.5 -93.5s-125.166 -36 -206.499 -36
c-22 0 -52.667 3.66699 -92 11s-62.666 11.333 -69.999 12c-28.667 4 -58 6 -88 6c-46 0 -85.5 -4.5 -118.5 -13.5s-60.333 -20.333 -82 -34s-49.334 -35.667 -83.001 -66s-55.834 -49.833 -66.501 -58.5z" />
    <glyph glyph-name="u" unicode="u" horiz-adv-x="1075" 
d="M231 1325l48 -48.9961c-63.333 -59.333 -95 -118 -95 -176c0 -36 10.167 -68.333 30.5 -97s44.833 -54 73.5 -76s75 -55 139 -99s111.333 -79 142 -105l124 92.5c74.667 55.667 128.5 98.834 161.5 129.501s59.667 65.167 80 103.5s30.5 82.166 30.5 131.499
c0 54.667 -7.66699 99.334 -23 134.001s-44 76.667 -86 126l45 69c12.667 -3.33301 27.167 -7.5 43.5 -12.5s31.166 -9.33301 44.499 -13s28 -6.83398 44 -9.50098s32 -4 48 -4c6 0 22.333 1.66699 49 5h17c5.33301 -2 8 -8.33301 8 -19v-20
c-5.33301 -85.333 -12.333 -151.833 -21 -199.5s-28.5 -99.5 -59.5 -155.5s-79.833 -117 -146.5 -183s-161 -144.667 -283 -236c72.667 -62 128.334 -120.333 167.001 -175s58 -118.667 58 -192c0 -63.333 -15.833 -119 -47.5 -167s-74.667 -85.167 -129 -111.5
s-112.833 -39.5 -175.5 -39.5c-74.667 0 -138.167 13.667 -190.5 41s-91 63.166 -116 107.499s-37.5 91.833 -37.5 142.5c0 62.667 13 112.167 39 148.5s76.667 89.166 152 158.499l-173 128.5c-51.333 38.333 -90.333 77.666 -117 117.999s-40 91.5 -40 153.5
c0 50 9.83301 97.167 29.5 141.5s44 83.666 73 117.999s60.167 64.5 93.5 90.5zM449 524.004c-110.667 -76 -165.999 -160.668 -165.999 -254.001c0 -53.333 21 -101.166 63 -143.499s100 -63.5 174 -63.5c61.333 0 108.5 17.833 141.5 53.5s49.5 73.834 49.5 114.501
c0 32 -9 63 -27 93s-40.167 56.833 -66.5 80.5s-53.833 45.167 -82.5 64.5s-57.334 37.666 -86.001 54.999z" />
    <glyph glyph-name="v" unicode="v" horiz-adv-x="1026" 
d="M975 668l-51.0049 0.00488281c-4 15.333 -13 27.666 -27 36.999s-31 14 -51 14c-39.333 0 -71.833 -16.667 -97.5 -50s-45.667 -74.5 -60 -123.5s-25.166 -97.333 -32.499 -145s-15 -104.834 -23 -171.501c-4.66699 -36 -7.66699 -73.333 -9 -112
s-4.66602 -68.667 -9.99902 -90c-3.33301 -13.333 -7.16602 -21.5 -11.499 -24.5s-11.833 -4.5 -22.5 -4.5h-318c-10 0 -17 0.333008 -21 1s-7.66699 2.66699 -11 6s-5.33301 7 -6 11s-1 11 -1 21v45c-3.33301 114.667 -13.5 219.167 -30.5 313.5
s-32.833 165.166 -47.5 212.499l-58 182c-24 74 -36 121.333 -36 142c0 10.667 5.66699 18.667 17 24h28c22.667 -2.66699 57 -4 103 -4h67c22.667 0 39 -2.83301 49 -8.5s18.167 -17.834 24.5 -36.501s13.5 -50.167 21.5 -94.5s19.333 -115.166 34 -212.499l37.5 -231
c9.66699 -60.667 17.834 -121 24.501 -181c8 -74 12.667 -114 14 -120h64c10 114 20.333 210 31 288s24.667 152.667 42 224c33.333 135.333 76.333 235.333 129 300s116.334 97 191.001 97c65.333 0 98 -14.333 98 -43c0 -21.333 -6.16699 -40.833 -18.5 -58.5
s-20.833 -32.334 -25.5 -44.001s-7 -38.834 -7 -81.501v-82z" />
    <glyph glyph-name="w" unicode="w" horiz-adv-x="1415" 
d="M733 281c-18 -37.333 -42.168 -76.502 -72.501 -117.502s-64.333 -80.167 -102 -117.5s-73.5 -65.666 -107.5 -84.999c-152 109.333 -258 233.666 -318 372.999s-90 275 -90 407c0 34 1.66699 68 5 102s6.33301 61.667 9 83c2 12.667 5.5 20.5 10.5 23.5
s15.167 4.5 30.5 4.5c12 0 21.667 -0.166992 29 -0.5s15 -0.833008 23 -1.5h43c12 0.666992 23 1.16699 33 1.5s23.333 0.5 40 0.5c12 0 20.167 -1.16699 24.5 -3.5s6.5 -9.16602 6.5 -20.499c0 -8.66699 -1.33301 -24.667 -4 -48s-4 -45 -4 -65
c0 -65.333 5.16699 -132.833 15.5 -202.5s34.5 -146.167 72.5 -229.5s93.333 -159 166 -227c32.667 29.333 59.5 58.5 80.5 87.5s43.833 66.5 68.5 112.5c-18 37.333 -33.167 72.5 -45.5 105.5s-24.333 78.167 -36 135.5s-17.834 120.333 -18.501 189v66
c0 35.333 0.666992 59 2 71s5 19.833 11 23.5s16.667 5.5 32 5.5c11.333 0 20.333 -0.166992 27 -0.5s14 -0.833008 22 -1.5h47c9.33301 0.666992 18 1.16699 26 1.5s19.333 0.5 34 0.5c19.333 0 31.666 -1.83301 36.999 -5.5s8 -13.167 8 -28.5
c0 -10 -0.666992 -26.333 -2 -49s-2 -42.667 -2 -60c0 -46 3.5 -96 10.5 -150s19.333 -111.333 37 -172s42.834 -118.667 75.501 -174s74 -102.333 124 -141c39.333 39.333 70.666 88.5 93.999 147.5s35 117.833 35 176.5c0 64 -4.83301 106.833 -14.5 128.5
s-24.5 41.834 -44.5 60.501s-35.167 43.5 -45.5 74.5s-15.5 83.167 -15.5 156.5c0 22.667 15.667 34 47 34h63h49h64h26c14 -0.666992 23 -6 27 -16s6 -30.667 6 -62c0 -86.667 -4.5 -166 -13.5 -238s-31.833 -157 -68.5 -255
c-23.333 -63.333 -48.166 -117.333 -74.499 -162s-56.666 -86.167 -90.999 -124.5s-78.833 -82.833 -133.5 -133.5c-53.333 46.667 -99.666 94 -138.999 142s-79 107.333 -119 178z" />
    <glyph glyph-name="x" unicode="x" horiz-adv-x="963" 
d="M84 952l133.002 -0.00390625l17.5 2c5.66699 0.666992 10.5 1.33398 14.5 2.00098s7.16699 1.16699 9.5 1.5s5.5 0.5 9.5 0.5c13.333 0 25 -7.33301 35 -22c3.33301 -5.33301 7.66602 -15.666 12.999 -30.999s18 -48 38 -98l19 -49l22 -55.5
c7.33301 -18.333 19.666 -47.166 36.999 -86.499l17.5 -38.5l17.5 -38.5c8 -19.333 16.333 -38 25 -56c28 97.333 53.333 176.5 76 237.5s45.5 110.333 68.5 148s47.333 64.834 73 81.501s55.5 25 89.5 25c26 0 56 -7.33301 90 -22s51 -29.334 51 -44.001
c0 -6 -5.83301 -20.833 -17.5 -44.5s-20.167 -47.5 -25.5 -71.5c0 -11.333 -1.16699 -25.166 -3.5 -41.499s-3.83301 -31.166 -4.5 -44.499c0 -24.667 1.33301 -42.667 4 -54l-39 -24c-33.333 38 -68.666 57 -105.999 57c-28 0 -51.667 -8.83301 -71 -26.5
s-38.666 -47.834 -57.999 -90.501s-44 -108 -74 -196c58 -148 148.667 -348.667 272 -602c8 -16.667 25.167 -47.667 51.5 -93s45.166 -78.833 56.499 -100.5s17 -39.834 17 -54.501c0 -16.667 -9.66699 -25 -29 -25h-190c-20.667 0 -37.667 9.5 -51 28.5
s-27.5 48.167 -42.5 87.5s-26.167 67 -33.5 83c-76.667 162.667 -138.667 300.667 -186 414c-40 -138.667 -75.667 -250.667 -107 -336s-58.333 -147.166 -81 -185.499s-43 -63.166 -61 -74.499s-37 -17 -57 -17c-50 0 -75 15.667 -75 47c0 9.33301 2.66699 19.166 8 29.499
s20.166 34.5 44.499 72.5s47.333 76 69 114s45.167 84.333 70.5 139c61.333 128.667 104.333 244 129 346c-76 186 -135.5 323 -178.5 411s-74.833 149.5 -95.5 184.5s-31 58.167 -31 69.5c0 18 2.5 29.333 7.5 34s15.5 7 31.5 7z" />
    <glyph glyph-name="y" unicode="y" horiz-adv-x="1036" 
d="M459 70l82 0.000976562c16 192.667 42.667 362.667 80 510c24.667 105.333 60.5 197.5 107.5 276.5s117.5 118.5 211.5 118.5c64 0 96 -13.667 96 -41c0 -30.667 -2 -51.667 -6 -63s-10.167 -20.5 -18.5 -27.5s-14.5 -16.333 -18.5 -28s-6 -33.5 -6 -65.5
c0 -34.667 -1.33301 -62 -4 -82l-47 -2c-11.333 35.333 -37.333 53 -78 53c-22.667 0 -45.334 -7.5 -68.001 -22.5s-45.667 -46.5 -69 -94.5s-42.833 -122.5 -58.5 -223.5s-23.5 -228.5 -23.5 -382.5c0 -105.333 3 -191.666 9 -258.999s12.833 -122.333 20.5 -165
s11.5 -70 11.5 -82c0 -13.333 -10.667 -24.5 -32 -33.5s-69.333 -13.5 -144 -13.5c-16.667 0 -27 3.5 -31 10.5s-6 19.167 -6 36.5c0 82 1.83301 144.5 5.5 187.5s9.66699 87.167 18 132.5l18.5 100c4 21.333 7.66699 51.333 11 90h-119c-26.667 0 -46.5 -0.333008 -59.5 -1
l-61 -3c-27.667 -1.33301 -44.167 -2 -49.5 -2c-9.33301 0 -15 3.5 -17 10.5s-3 17.833 -3 32.5v45c-5.33301 137.333 -16.666 252.166 -33.999 344.499s-37.333 170.5 -60 234.5l-56 158c-14.667 41.333 -22 79 -22 113c0 10 4.66699 16.167 14 18.5s29.333 3.5 60 3.5
c16 0 29.167 -0.166992 39.5 -0.5s21.5 -0.833008 33.5 -1.5h68c21.333 2.66699 33.666 4 36.999 4c10 0 17.667 -6.5 23 -19.5s12 -41.833 20 -86.5l10.5 -52.5c3.66699 -17.667 7.5 -38.5 11.5 -62.5l5 -25c2 -10 4.66699 -22.667 8 -38
c4.66699 -27.333 9.33398 -51.333 14.001 -72c18 -94.667 29.833 -167.834 35.5 -219.501s10.5 -99.5 14.5 -143.5s12.667 -99.667 26 -167z" />
    <glyph glyph-name="z" unicode="z" horiz-adv-x="1077" 
d="M414 602l-121.001 0.00292969c-10 40.667 -22.333 76.334 -37 107.001s-31 60.167 -49 88.5s-31 50.166 -39 65.499s-12 30.666 -12 45.999c0 36 21 54 63 54c24.667 0 63 -1.83301 115 -5.5s97.667 -5.5 137 -5.5h348c12 0.666992 22.833 1.16699 32.5 1.5
s22.834 0.5 39.501 0.5c42 0 75.333 -4.33301 100 -13s37 -26 37 -52c0 -36 -30 -81.667 -90 -137l-228.5 -205.5l-208 -188c-51 -47.667 -92 -90.834 -123 -129.501s-46.5 -72 -46.5 -100c0 -19.333 9 -32 27 -38s46.333 -9 85 -9c15.333 0 37 0.666992 65 2s48.667 2 62 2
c86.667 0 161.5 -4.5 224.5 -13.5s118.833 -31.667 167.5 -68s73 -91.166 73 -164.499c0 -84.667 -38.667 -160.334 -116 -227.001s-167 -117.334 -269 -152.001l-28 54c41.333 29.333 76.166 63.833 104.499 103.5s42.5 83.5 42.5 131.5
c0 164.667 -94.333 249.334 -283 254.001h-145c-76 -2.66699 -134 -4 -174 -4c-28 0 -57.5 8.5 -88.5 25.5s-46.5 51.5 -46.5 103.5c0 16.667 4.33301 33.5 13 50.5s20 32.5 34 46.5s29.333 27.5 46 40.5l36 28.5c82.667 68 165 130.5 247 187.5l256 172.5
c88.667 58 149.5 100.667 182.5 128s49.5 51.666 49.5 72.999c0 12 -4.66699 19.5 -14 22.5s-30.666 4.5 -63.999 4.5h-174c-66.667 0 -118.334 -3.33301 -155.001 -10s-64 -19.167 -82 -37.5s-27 -44.833 -27 -79.5c0 -21.333 2.83301 -44.833 8.5 -70.5
s13.834 -53.5 24.501 -83.5z" />
    <glyph glyph-name="braceleft" unicode="{" horiz-adv-x="1077" 
d="M702 -188l-0.000976562 223.003c-69.333 -36.667 -153.666 -55 -252.999 -55c-104.667 0 -184.667 30.667 -240 92s-90.666 126 -105.999 194s-23 121.333 -23 160c0 103.333 14.167 191.5 42.5 264.5s65.666 130.167 111.999 171.5s96.333 70.5 150 87.5
s108.5 25.5 164.5 25.5c48.667 0 97.834 -5.66699 147.501 -17s98 -29.166 145 -53.499s84.667 -55 113 -92s42.5 -79.167 42.5 -126.5c0 -21.333 -4.33301 -34.5 -13 -39.5s-31.667 -7.5 -69 -7.5c-10 0 -23.333 0.666992 -40 2s-29 2 -37 2
c-23.333 0 -41.333 -0.666992 -54 -2h-36c-23.333 11.333 -39 42.833 -47 94.5s-17.833 89.167 -29.5 112.5s-42.834 35 -93.501 35c-42.667 0 -80.5 -12.333 -113.5 -37s-59.667 -65 -80 -121s-30.5 -128.333 -30.5 -217c0 -101.333 9.33301 -180.333 28 -237
s44 -95.834 76 -117.501s71 -32.5 117 -32.5c56 0 98.333 2.66699 127 8c0 17.333 -0.166992 30.833 -0.5 40.5s-0.833008 20.167 -1.5 31.5c0 60.667 4.83301 100.667 14.5 120s26.167 29 49.5 29c13.333 0 24 -0.166992 32 -0.5s17 -0.833008 27 -1.5
c41.333 0 71.333 0.666992 90 2h23c18 -2.66699 27 -13 27 -31c0 -16.667 -2.5 -39.834 -7.5 -69.501s-8.16699 -55.5 -9.5 -77.5c-2.66699 -54.667 -4 -109.334 -4 -164.001c0 -12 2.66699 -53 8 -123s8 -124.667 8 -164c0 -21.333 -4 -36.5 -12 -45.5s-25 -13.5 -51 -13.5
h-129c-26 0 -43.167 8.66699 -51.5 26s-12.5 58.666 -12.5 123.999zM300.999 1311l439.999 -0.00195312c10 0 15 4 15 12c-2.66699 23.333 -4 58 -4 104c0 22.667 3.66699 38.334 11 47.001s26 13 56 13h90c20 0 35.333 -5.16699 46 -15.5s16 -32.5 16 -66.5
c0 -49.333 -3.83301 -85.666 -11.5 -108.999s-18.5 -38.333 -32.5 -45s-34.333 -10 -61 -10h-45h-426h-16c-6.66699 0 -10.667 -4 -12 -12v-17v-18c0 -8 0.666992 -20 2 -36s2 -28 2 -36c0 -24.667 -5.16699 -40.667 -15.5 -48s-27.166 -11 -50.499 -11h-92
c-19.333 0 -34.333 5.33301 -45 16s-16 32 -16 64c0 72 8.16699 118 24.5 138s42.833 30 79.5 30h45z" />
    <glyph glyph-name="bar" unicode="|" horiz-adv-x="2040" 
d="M289 586l-107.003 -19.0029c-14 44.667 -28.5 81.667 -43.5 111s-30.667 57.833 -47 85.5s-30.833 53.834 -43.5 78.501s-19 45 -19 61c0 19.333 6.16699 36.833 18.5 52.5s25.833 23.5 40.5 23.5c6 0 14.667 -1.5 26 -4.5s27.333 -6.16699 48 -9.5
s59.667 -6.33301 117 -9s124 -4 200 -4h191c29.333 0.666992 53.833 1.16699 73.5 1.5s33.834 0.5 42.501 0.5c18 0 27 -10.667 27 -32c0 -6.66699 -3.66699 -27.834 -11 -63.501s-13.333 -81.5 -18 -137.5c-4 -68 -6 -133.667 -6 -197c96 -2 177.333 -15.5 244 -40.5
s118 -51.833 154 -80.5c65.333 -49.333 108.5 -103.666 129.5 -162.999s31.5 -112.666 31.5 -159.999c0 -25.333 -4.5 -44 -13.5 -56s-21 -19.667 -36 -23s-37.167 -5 -66.5 -5c-31.333 0 -54.666 0.666992 -69.999 2c-8 0.666992 -15.167 1.16699 -21.5 1.5
s-14.833 0.5 -25.5 0.5h-508c-46.667 0 -70 26.667 -70 80v270c0 127.333 1.66699 230.833 5 310.5s9.33301 153.834 18 222.501h-45c-95.333 0 -159.166 -16.333 -191.499 -49s-48.5 -76.667 -48.5 -132c0 -36 8.33301 -74.667 25 -116zM779.997 69.9971l234 -0.000976562
l35 2c0.666992 3.33301 1.16699 6.5 1.5 9.5s0.5 6.5 0.5 10.5v45c-7.33301 175.333 -98.333 274.333 -273 297c-2.66699 -23.333 -4 -59.333 -4 -108c0 -105.333 2 -190.666 6 -255.999zM1417 544.996c0 92 1.50293 166.838 4.50293 224.505s7.66699 99.667 14 126
s13.833 42.666 22.5 48.999s21 9.5 37 9.5c14 0 25.167 -0.166992 33.5 -0.5s17.5 -0.833008 27.5 -1.5c22 0 53.667 1.33301 95 4h22c16.667 -2.66699 25 -13.334 25 -32.001c0 -28.667 -3.5 -60.667 -10.5 -96s-12.833 -83.333 -17.5 -144s-7 -163.667 -7 -309v-113
c0 -58 4.16699 -99.833 12.5 -125.5s26.166 -38.5 53.499 -38.5c22 0 45.833 4.16699 71.5 12.5s61.167 21.333 106.5 39s72.666 26.5 81.999 26.5c18.667 0 28 -9.66699 28 -29c0 -24.667 -16.167 -50.334 -48.5 -77.001s-81.833 -48.834 -148.5 -66.501
s-147.667 -26.5 -243 -26.5c-34.667 0 -62.834 4.16699 -84.501 12.5s-38.167 22.666 -49.5 42.999s-18.833 47.833 -22.5 82.5s-5.5 83.667 -5.5 147c0.666992 42 1.16699 81.333 1.5 118s0.5 91.667 0.5 165z" />
    <glyph glyph-name="braceright" unicode="}" horiz-adv-x="1020" 
d="M549 80l0.00195312 247.999c-44 -11.333 -87.667 -17 -131 -17c-49.333 0 -99 6.5 -149 19.5s-95 41.167 -135 84.5s-60 106.333 -60 189c0 98.667 22.5 175.334 67.5 230.001s100.167 91.834 165.5 111.501s132.333 29.5 201 29.5c65.333 0 131.333 -10.833 198 -32.5
s121.667 -47.334 165 -77.001s65 -53.834 65 -72.501c0 -11.333 -28.833 -31 -86.5 -59s-100.5 -42 -128.5 -42c-33.333 0 -53.666 7.16699 -60.999 21.5s-12 38 -14 71s-9.33301 58 -22 75s-39.667 25.5 -81 25.5c-64.667 0 -114.334 -22.667 -149.001 -68
s-52 -107.333 -52 -186s21.5 -133.5 64.5 -164.5s89.833 -47.833 140.5 -50.5c0 66.667 20.333 100 61 100c13.333 0 24.166 -0.166992 32.499 -0.5s17.5 -0.833008 27.5 -1.5c42 0 73.333 0.666992 94 2h22c11.333 -1.33301 18.666 -4.5 21.999 -9.5s5 -12.167 5 -21.5
c0 -11.333 -2.33301 -33.666 -7 -66.999s-7 -71 -7 -113c0 -25.333 2.66699 -67.333 8 -126s8 -98.667 8 -120c0 -22 -4.33301 -37.333 -13 -46s-29.667 -13 -63 -13h-125c-42 0 -63 26.667 -63 80zM252.002 1311l441.998 -2.00098h13c8 0 13.333 2.66699 16 8v6v37
c0 8 -0.666992 21.333 -2 40s-2 32.667 -2 42c0 22 3.5 37.333 10.5 46s26.5 13 58.5 13h95c20.667 0 36.334 -5 47.001 -15s16 -32.333 16 -67c0 -56.667 -3.33301 -97 -10 -121s-18.834 -39.833 -36.501 -47.5s-47.167 -11.5 -88.5 -11.5
c-19.333 0.666992 -37.5 1.16699 -54.5 1.5s-41.833 0.5 -74.5 0.5h-334h-10c-1.33301 0 -2.33301 -0.166992 -3 -0.5l-3 -1.5h-6c-1.33301 0 -3.66602 -3.33301 -6.99902 -10v-39c3.33301 -19.333 5 -46.666 5 -81.999c0 -25.333 -5.16699 -41.5 -15.5 -48.5
s-28.5 -10.5 -54.5 -10.5h-94c-18.667 0 -34 4.66699 -46 14s-18 31 -18 65c0 54.667 3.83301 95 11.5 121s18.834 42.833 33.501 50.5s36.667 11.5 66 11.5h45z" />
    <glyph glyph-name="asciitilde" unicode="~" horiz-adv-x="1135" 
d="M362 514l140.003 0.00195312c4 94.667 34.167 177.167 90.5 247.5s127.333 124.333 213 162s170.834 58.167 255.501 61.5v-59c-64.667 -24.667 -115.5 -54.334 -152.5 -89.001s-64.5 -77.5 -82.5 -128.5s-29.667 -115.833 -35 -194.5h253v-78h-253
c6 -217.333 96 -353.666 270 -408.999v-62c-122 15.333 -224 45.5 -306 90.5s-143.833 100.667 -185.5 167s-64.167 137.5 -67.5 213.5h-142c4 -60.667 8 -110.667 12 -150s7.5 -68.833 10.5 -88.5s5.5 -40.334 7.5 -62.001s3 -47.167 3 -76.5c0 -23.333 -6 -39 -18 -47
s-40.667 -12 -86 -12h-96c-20 0 -35.167 5.66699 -45.5 17s-17.833 34.666 -22.5 69.999s-7.83398 84 -9.50098 146s-2.5 166 -2.5 312c0 127.333 2.83301 219.833 8.5 277.5s13.667 93.334 24 107.001s26.166 21.167 47.499 22.5h61c42 0 73.333 0.666992 94 2h21
c18.667 -4.66699 28 -15.334 28 -32.001c0 -20.667 -3.33301 -41.5 -10 -62.5s-12.334 -51.333 -17.001 -91s-7.33398 -111.5 -8.00098 -215.5v-39z" />
    <glyph glyph-name="afii10052" horiz-adv-x="1235" 
d="M80 1434l770 0.00195312c84.667 0 139 4.66699 163 14s70 14 138 14c22.667 0 39.667 -7.33301 51 -22s17 -34 17 -58c0 -22.667 -6.16699 -67.334 -18.5 -134.001s-28.666 -126.167 -48.999 -178.5s-43.833 -78.5 -70.5 -78.5c-14.667 0 -26.334 4.33301 -35.001 13
s-16 21.667 -22 39s-11.833 37.666 -17.5 60.999s-12.167 43 -19.5 59c-22 56 -47.333 97.333 -76 124s-60.167 43.5 -94.5 50.5s-78.5 10.5 -132.5 10.5h-117v-1262h170v-86h-657v86h170v1262h-170v86z" />
    <glyph glyph-name="afii10061" horiz-adv-x="1473" 
d="M567 801h76.001l29 57c4.66699 8.66699 25.667 57.167 63 145.5s74.5 164.333 111.5 228s81.5 118 133.5 163s110.333 67.5 175 67.5c67.333 0 127.333 -12.333 180 -37c-25.333 -68 -41.166 -116.333 -47.499 -145s-9.5 -73.667 -9.5 -135h-41
c-27.333 10.667 -50.333 20 -69 28s-35.167 13.833 -49.5 17.5s-33.5 5.5 -57.5 5.5c-40.667 0 -77 -14.667 -109 -44s-62.833 -70 -92.5 -122s-73.834 -136 -132.501 -252c8 -1.33301 14.333 -2.66602 19 -3.99902s10 -2.66602 16 -3.99902
c60.667 -14 117.334 -31.333 170.001 -52s107.167 -55 163.5 -103s103.666 -115.667 141.999 -203s58.5 -196 60.5 -326h123v-86h-557v86h80c2.66699 49.333 4 85.666 4 108.999c0 78.667 -6.83301 148.167 -20.5 208.5s-34.834 111.666 -63.501 153.999
s-67.5 78 -116.5 107s-109.167 50.5 -180.5 64.5v-643h127v-86h-614v86h170v1262h-170v86h629v-86h-142v-547z" />
    <glyph glyph-name="afii10060" 
d="M659 1339v-356c58.667 -40.667 111.5 -73.667 158.5 -99s94.833 -44.166 143.5 -56.499s103.667 -18.5 165 -18.5c37.333 0 65.333 0.666992 84 2h66c26 -7.33301 42.667 -21.5 50 -42.5s11 -51.167 11 -90.5v-592h170v-86h-600v86h113v197v288
c0 48.667 -3 82.667 -9 102s-20.667 34 -44 44c-19.333 9.33301 -49 20.5 -89 33.5s-77.5 27.667 -112.5 44s-70.5 38.166 -106.5 65.499v-774h115v-86h-602v86h170v1253h-303v86h303v320l317 86v-406h549v-86h-549z" />
    <glyph glyph-name="afii10109" horiz-adv-x="965" 
d="M356 516h17.0039c31.333 56 61.666 107.167 90.999 153.5s64.5 93.833 105.5 142.5s83.5 88 127.5 118s88.667 45 134 45c23.333 0 44 -3.16699 62 -9.5s27 -14.166 27 -23.499c0 -4.66699 -6 -19.334 -18 -44.001s-22.667 -55 -32 -91
c-3.33301 -16.667 -7.33301 -56.334 -12 -119.001l-53 -2c-8 19.333 -20.667 34.833 -38 46.5s-36 17.5 -56 17.5c-34.667 0 -68.334 -13.667 -101.001 -41s-62.667 -59.333 -90 -96l-86 -117c117.333 -32.667 212.833 -79 286.5 -139s126.334 -121 158.001 -183
s47.5 -113.333 47.5 -154c0 -10.667 -5.33301 -17.667 -16 -21s-30.667 -5 -60 -5c-6.66699 0.666992 -13.834 1.33398 -21.501 2.00098s-14.5 1.33398 -20.5 2.00098s-10.833 1.16699 -14.5 1.5s-9.5 0.5 -17.5 0.5c-6.66699 0 -17.334 -0.666992 -32.001 -2
s-26.334 -2 -35.001 -2c-24.667 0 -41.334 2.5 -50.001 7.5s-14.667 13.333 -18 25s-11 44.5 -23 98.5c-7.33301 33.333 -21 71.333 -41 114s-48.667 83 -86 121s-82.333 65.333 -135 82v-69c0.666992 -52 4.33398 -111.167 11.001 -177.5s10 -112.5 10 -138.5
c0 -22.667 -5.33301 -38.167 -16 -46.5s-36.667 -12.5 -78 -12.5h-97c-20 0 -35 5.5 -45 16.5s-17.167 32.833 -21.5 65.5s-7.16602 81.5 -8.49902 146.5s-2 170.5 -2 316.5c0 118 2.16699 207 6.5 267s11.666 99 21.999 117s26.5 27 48.5 27c6 0 15 -0.666992 27 -2
s21 -2 27 -2c32.667 0 66.667 2 102 6h23c16 -2.66699 24 -13.334 24 -32.001s-5.83301 -65.167 -17.5 -139.5s-17.5 -144.833 -17.5 -211.5c0.666992 -9.33301 1.16699 -18 1.5 -26s0.5 -19 0.5 -33z" />
    <glyph glyph-name="afii10108" horiz-adv-x="1133" 
d="M903 870l-390.997 -0.00195312c-10.667 -114.667 -16 -215 -16 -301c101.333 -4.66699 185.5 -18 252.5 -40s121.833 -50.333 164.5 -85c108 -84.667 162 -206 162 -364c0 -28.667 -7.33301 -49.167 -22 -61.5s-46.334 -18.5 -95.001 -18.5h-116
c-22 0 -34.5 4.33301 -37.5 13s-5.16699 37.834 -6.5 87.501s-7.33301 101.5 -18 155.5c-16.667 88.667 -53 149.334 -109 182.001s-115 49 -177 49c-2.66699 -37.333 -4.5 -78 -5.5 -122s-1.5 -103.667 -1.5 -179c0 -6 1.83301 -24.833 5.5 -56.5s5.5 -55.167 5.5 -70.5
c0 -24 -5.5 -39.833 -16.5 -47.5s-41.167 -11.5 -90.5 -11.5h-78c-20.667 0 -35.334 3.16699 -44.001 9.5s-14.5 20 -17.5 41s-5.5 54.833 -7.5 101.5v198c4.66699 170 12.667 343.333 24 520h-245l2 78h245c8.66699 100 15.167 188.333 19.5 265s8.83301 140.5 13.5 191.5
s11.167 82.333 19.5 94s23.166 17.5 44.499 17.5c6.66699 0 16 -0.333008 28 -1s23 -1.33398 33 -2.00098c42.667 0 74 1 94 3h23c16 -3.33301 24 -13.666 24 -30.999c0 -16.667 -4.16699 -53.167 -12.5 -109.5s-16 -116.833 -23 -181.5s-12.833 -146.667 -17.5 -246h387
v-78z" />
    <glyph glyph-name="nonbreakingspace" unicode="&#xa0;" horiz-adv-x="1077" 
 />
    <glyph glyph-name="afii10057" unicode="&#xa3;" horiz-adv-x="1942" 
d="M1169 408l68.0029 0.00195312c23.333 93.333 45.166 176.666 65.499 249.999s43.166 149.666 68.499 228.999s53 157.666 83 234.999c30 78 58 140.167 84 186.5s58.333 83.5 97 111.5s85.667 42 141 42c30 0 61.167 -3.66699 93.5 -11s56.5 -17.333 72.5 -30
c-0.666992 -3.33301 -7.33398 -26.166 -20.001 -68.499s-20.167 -72.833 -22.5 -91.5s-3.5 -54.667 -3.5 -108l-30 -2c-51.333 24.667 -92.333 37 -123 37c-55.333 0 -103.333 -22 -144 -66s-75.667 -103.5 -105 -178.5s-56.833 -160.333 -82.5 -256l-74.5 -279.5h76v-86
h-244v-236h170v-86h-628v86h170v236h-381l-332 1048h-139v64h612v-64h-141l301 -962h80v1271l288 66v-1337z" />
    <glyph glyph-name="currency" unicode="&#xa4;" horiz-adv-x="1982" 
d="M651 1434l502.005 0.00292969c25.333 -56.667 53.666 -108.667 84.999 -156s76.166 -108.5 134.499 -183.5l161.5 -210.5c49.333 -65.333 99 -137.333 149 -216c132.667 -204.667 199 -398.667 199 -582h60v-86h-504v86h78c0 97.333 -15.5 189.333 -46.5 276
s-79.833 183 -146.5 289c-10.667 -4.66699 -29.334 -12.334 -56.001 -23.001s-48.334 -18 -65.001 -22s-42 -8.66699 -76 -14v-506h113v-86h-541v86h113v506c-99.333 16.667 -185.333 44.667 -258 84c-36 -48 -63.5 -119.333 -82.5 -214s-28.5 -187.334 -28.5 -278.001
c0 -38.667 3 -71.334 9 -98.001h77v-86h-487v86h61c2 95.333 13.667 182.833 35 262.5s51 151.667 89 216s81.833 125 131.5 182s109.5 118.833 179.5 185.5c95.333 91.333 166.666 169 213.999 233s82.333 125 105 183h-205v86zM922.005 1255
c-22.667 -53.333 -46.1689 -97.165 -70.502 -131.498s-65.666 -89 -123.999 -164s-103.5 -139.5 -135.5 -193.5c28.667 -16.667 65.834 -31.834 111.501 -45.501s91.667 -24.167 138 -31.5s86.833 -11 121.5 -11c131.333 0 233 22.333 305 67
c-63.333 109.333 -112 185.166 -146 227.499l-93 113c-28 33 -63.667 89.5 -107 169.5z" />
    <glyph glyph-name="brokenbar" unicode="&#xa6;" horiz-adv-x="567" 
d="M158 846c0 39.333 1.83496 67.8301 5.50195 85.4971s8.83398 28.667 15.501 33s16 6.5 28 6.5c16.667 0 29.667 -0.166992 39 -0.5s19.333 -0.833008 30 -1.5c21.333 0 49.333 1.33301 84 4h23c11.333 -1.33301 18.666 -4.66602 21.999 -9.99902s5 -12.333 5 -21
c0 -22.667 -0.166992 -40.667 -0.5 -54s-0.833008 -28 -1.5 -44c0.666992 -15.333 1.16699 -29.666 1.5 -42.999s0.5 -31 0.5 -53c0 -8.66699 -1.83301 -15.667 -5.5 -21s-10.834 -8.66602 -21.501 -9.99902h-23c-34.667 2.66699 -62.667 4 -84 4
c-14.667 0 -26.834 -0.166992 -36.501 -0.5s-20.5 -0.833008 -32.5 -1.5c-22.667 0 -36.5 6.16699 -41.5 18.5s-7.5 48.5 -7.5 108.5zM158.002 128.997c0 39.333 1.83398 67.832 5.50098 85.499s8.83398 28.667 15.501 33s16 6.5 28 6.5c16.667 0 29.667 -0.166992 39 -0.5
s19.333 -0.833008 30 -1.5c21.333 0 49.333 1.33301 84 4h23c12 -2 19.5 -5.5 22.5 -10.5s4.5 -11.833 4.5 -20.5c0 -22.667 -0.166992 -40.667 -0.5 -54s-0.833008 -28 -1.5 -44c0.666992 -15.333 1.16699 -29.5 1.5 -42.5s0.5 -30.833 0.5 -53.5
c0 -8.66699 -1.83301 -15.667 -5.5 -21s-10.834 -8.66602 -21.501 -9.99902h-23c-34.667 2.66699 -62.667 4 -84 4c-14.667 0 -26.834 -0.166992 -36.501 -0.5s-20.5 -0.833008 -32.5 -1.5c-22.667 0 -36.5 6.16699 -41.5 18.5s-7.5 48.5 -7.5 108.5z" />
    <glyph glyph-name="afii10023" unicode="&#xa8;" horiz-adv-x="1481" 
d="M741 717l75.9951 0.000976562c-12.667 42 -32 73 -58 93s-49.667 30 -71 30c-42 0 -83.667 -7.66699 -125 -23s-76.666 -39.333 -105.999 -72c13.333 -86 24.333 -146.833 33 -182.5s20.667 -79.334 36 -131.001s26 -93.167 32 -124.5s9 -73.666 9 -126.999
c0 -34.667 -6.66699 -70.667 -20 -108c18 -10 43.333 -15 76 -15c124 0 214.5 32.833 271.5 98.5s93.5 135.5 109.5 209.5h-103v84h537v-84l-76 -3c-42 -76 -96 -144 -162 -204s-136.5 -106.167 -211.5 -138.5s-149.833 -48.5 -224.5 -48.5c-142 0 -254 13 -336 39
c2.66699 22.667 4 39 4 49c0 52 -11.167 99.167 -33.5 141.5s-52.833 86.833 -91.5 133.5c-58 70.667 -103.333 131.334 -136 182.001s-55 97.667 -67 141s-18 92 -18 146c0 130.667 23.333 239.667 70 327s106.834 155.333 180.501 204s149 82.167 226 100.5
s151.5 27.5 223.5 27.5c119.333 0 232.666 -24.5 339.999 -73.5s183.333 -131.5 228 -247.5h98v-86h-508v86h64c-6.66699 38 -20.667 75.167 -42 111.5s-50.833 66 -88.5 89s-84.5 34.5 -140.5 34.5c-80.667 0 -142.667 -28.333 -186 -85s-71.666 -122.334 -84.999 -197.001
s-20 -148 -20 -220c0 -4 1.66699 -20.333 5 -49c97.333 86 211.333 129 342 129c46.667 0 95.334 -8.5 146.001 -25.5s96.334 -43.333 137.001 -79s70.334 -79.834 89.001 -132.501h84v-86h-508v86zM900.995 1729c0 50.667 3.16797 82.001 9.50098 94.001s18.833 18 37.5 18
c16.667 0 29.667 -0.166992 39 -0.5s19.666 -0.833008 30.999 -1.5c43.333 0 75.333 0.666992 96 2h25c12 -2 19.333 -5.33301 22 -10s4 -11.667 4 -21c0 -19.333 -0.166992 -34.666 -0.5 -45.999s-0.833008 -24 -1.5 -38c0.666992 -14.667 1.16699 -28.334 1.5 -41.001
s0.5 -29.667 0.5 -51c0 -18.667 -8.66699 -30.334 -26 -35.001h-25c-36.667 3.33301 -68.667 5 -96 5c-14.667 0 -27 -0.166992 -37 -0.5s-21 -0.833008 -33 -1.5c-21.333 0 -34.5 6.16699 -39.5 18.5s-7.5 48.5 -7.5 108.5zM376.996 1729
c0 50.667 3.16895 82.001 9.50195 94.001s18.833 18 37.5 18c16.667 0 29.667 -0.166992 39 -0.5s19.666 -0.833008 30.999 -1.5c43.333 0 75.333 0.666992 96 2h24c11.333 -1.33301 18.666 -4.5 21.999 -9.5s5 -12.167 5 -21.5c0 -19.333 -0.166992 -34.666 -0.5 -45.999
s-0.833008 -24 -1.5 -38c0.666992 -14.667 1.16699 -28.334 1.5 -41.001s0.5 -29.667 0.5 -51c0 -18.667 -9 -30.334 -27 -35.001h-24c-36.667 3.33301 -68.667 5 -96 5c-14.667 0 -27 -0.166992 -37 -0.5s-21 -0.833008 -33 -1.5c-21.333 0 -34.5 6.16699 -39.5 18.5
s-7.5 48.5 -7.5 108.5z" />
    <glyph glyph-name="plusminus" unicode="&#xb1;" horiz-adv-x="2550" 
d="M737 1434l0.000976562 -86.0049h-170v-588h414c50.667 63.333 94 115.333 130 156l143 157.5c59.333 64.333 101 114.5 125 150.5s45 77.333 63 124h-205v86h477c49.333 -110.667 122 -227.167 218 -349.5l261.5 -329c78.333 -97 142.833 -197.667 193.5 -302
s77 -219.166 79 -344.499v-23h61v-86h-504v86h78v66c-2.66699 50.667 -13.667 106.334 -33 167.001s-43.666 120.834 -72.999 180.501s-58.666 110.167 -87.999 151.5c-64.667 -26.667 -129 -45 -193 -55v-510h111v-86h-541v86h113v506
c-52.667 8.66699 -92.834 18.334 -120.501 29.001s-64.834 29 -111.501 55c-26.667 -43.333 -51.334 -105.166 -74.001 -185.499s-34 -182.5 -34 -306.5c0 -38 2.66699 -70.667 8 -98h78v-86h-1063v86h170v1262h-170v86h657zM567.001 665.995l0.000976562 -579.999h150
c3.33301 229.333 68.666 422.666 195.999 579.999h-346zM1505 1255c-19.333 -50.667 -36.6641 -87.8359 -51.9971 -111.503s-37 -52.5 -65 -86.5s-55.333 -71.667 -82 -113s-60 -100.666 -100 -177.999c37.333 -24 91.166 -44.667 161.499 -62s130.5 -26 180.5 -26
c55.333 0 111.5 5.5 168.5 16.5s101.833 27.833 134.5 50.5c-48.667 84.667 -87.834 149.334 -117.501 194.001s-57.167 81.334 -82.5 110.001s-46.833 55.5 -64.5 80.5s-44.834 66.833 -81.501 125.5z" />
    <glyph glyph-name="afii10055" unicode="&#xb2;" horiz-adv-x="850" 
d="M266 86v1262h-170v86h658v-86h-170v-1262h170v-86h-658v86h170z" />
    <glyph glyph-name="afii10103" unicode="&#xb3;" horiz-adv-x="537" 
d="M315 0l-96.001 0.00292969c-17.333 0 -30.666 4.66699 -39.999 14s-16.833 31.166 -22.5 65.499s-9.66699 86.5 -12 156.5s-3.5 173.667 -3.5 311c0 129.333 2.83301 223.166 8.5 281.499s13.5 93.833 23.5 106.5s25.333 19 46 19c16 0 28.833 -0.166992 38.5 -0.5
s20.167 -0.833008 31.5 -1.5c20 0 48 1.33301 84 4h22c18 -2.66699 27 -13.334 27 -32.001c0 -20 -3.5 -47.333 -10.5 -82s-12.5 -72.5 -16.5 -113.5s-6 -98.833 -6 -173.5c0 -84 1.5 -144.5 4.5 -181.5s8.16699 -88.667 15.5 -155s11 -119.5 11 -159.5
c0 -23.333 -6 -39 -18 -47s-41 -12 -87 -12zM218.999 1331l69.9971 0.000976562c26.667 0.666992 48.834 1.16699 66.501 1.5s30.834 0.5 39.501 0.5c18 0 27 -10 27 -30c0 -22.667 -0.166992 -40.834 -0.5 -54.501s-0.833008 -28.5 -1.5 -44.5
c0.666992 -15.333 1.16699 -29.333 1.5 -42s0.5 -30 0.5 -52c0 -19.333 -9 -30.333 -27 -33h-22c-38.667 2.66699 -66.667 4 -84 4c-14.667 0 -27 -0.166992 -37 -0.5s-21 -0.833008 -33 -1.5c-22.667 0 -36.5 6.16699 -41.5 18.5s-7.5 48.5 -7.5 108.5
c0 39.333 1.83301 67.833 5.5 85.5s8.83398 28.667 15.501 33s16 6.5 28 6.5z" />
    <glyph glyph-name="afii10071" unicode="&#xb8;" horiz-adv-x="1020" 
d="M946 860l52.998 -62.999c-27.333 -18.667 -59 -35.334 -95 -50.001s-67.667 -22 -95 -22c-46 0 -94.333 24 -145 72c-8 7.33301 -22 22.333 -42 45s-37 39.167 -51 49.5s-29.667 15.5 -47 15.5c-62 0 -103 -39.5 -123 -118.5s-31.333 -179.5 -34 -301.5
c34.667 26.667 80.334 52.834 137.001 78.501s101.667 38.5 135 38.5c26 0 50.667 -4 74 -12c13.333 -4.66699 37.166 -16.834 71.499 -36.501s57.5 -29.5 69.5 -29.5c26.667 0 52.667 11 78 33l41 -55c-88.667 -100 -161.667 -150 -219 -150
c-18.667 0 -34.334 2.5 -47.001 7.5s-29.334 14.167 -50.001 27.5c-36.667 24.667 -65.167 41.5 -85.5 50.5s-42.166 13.5 -65.499 13.5c-46.667 0 -92.334 -20 -137.001 -60v-26c2 -68.667 15.333 -128.667 40 -180s58.334 -91.166 101.001 -119.499
s90.334 -42.5 143.001 -42.5c80 0 168.333 35.333 265 106l38 -43c-23.333 -24.667 -53.333 -49.5 -90 -74.5s-78.667 -45.167 -126 -60.5s-98 -23 -152 -23c-110.667 0 -200.667 19.833 -270 59.5s-121.166 88 -155.499 145s-56.166 108.5 -65.499 154.5
s-15 88.333 -17 127v69c3.33301 55.333 14.833 112 34.5 170s47.5 111.667 83.5 161s81.167 89.166 135.5 119.499s115.833 45.5 184.5 45.5c56 0 98.5 -6 127.5 -18s56.5 -29.5 82.5 -52.5s50.167 -39.833 72.5 -50.5s55.833 -16 100.5 -16c18 0 33 5.33301 45 16z
M271.998 1331h70c27.333 0.666992 50.333 1.16699 69 1.5s32.667 0.5 42 0.5c17.333 0 26 -10 26 -30c0 -12 -0.666992 -28.667 -2 -50s-2 -37.666 -2 -48.999c0 -9.33301 0.666992 -24.333 2 -45s2 -37 2 -49c0 -19.333 -8.66699 -30.333 -26 -33h-23
c-38.667 2.66699 -68 4 -88 4c-14.667 0 -27 -0.166992 -37 -0.5s-21 -0.833008 -33 -1.5c-10 0 -18.5 1.33301 -25.5 4s-12 8 -15 16s-4.83301 19 -5.5 33s-1 38.667 -1 74c0 13.333 -0.166992 24 -0.5 32s-0.833008 16.667 -1.5 26c0 23.333 3.33301 41.666 10 54.999
c4.66699 8 17.667 12 39 12zM648.998 1331l70.001 0.000976562c26.667 0.666992 49.167 1.16699 67.5 1.5s31.833 0.5 40.5 0.5c18 0 27 -10 27 -30c0 -12 -0.666992 -28.667 -2 -50s-2 -37.666 -2 -48.999c0 -9.33301 0.666992 -24.333 2 -45s2 -37 2 -49
c0 -19.333 -9 -30.333 -27 -33h-22c-38.667 2.66699 -67.334 4 -86.001 4c-14.667 0 -27 -0.166992 -37 -0.5s-21 -0.833008 -33 -1.5c-10 0 -18.5 1.33301 -25.5 4s-12 8 -15 16s-4.83301 19 -5.5 33s-1 38.667 -1 74c0 13.333 -0.166992 24 -0.5 32
s-0.833008 16.667 -1.5 26c0 23.333 3.33301 41.666 10 54.999c2.66699 5.33301 6.5 8.66602 11.5 9.99902s14.167 2 27.5 2z" />
    <glyph glyph-name="afii10105" unicode="&#xbc;" horiz-adv-x="1360" 
d="M719 -2l0.00195312 -522.004h-168v522h-289c-10 0 -17 0.333008 -21 1s-7.66699 2.66699 -11 6s-5.33301 7 -6 11s-1 11 -1 21v45c-6 164 -19.5 289.5 -40.5 376.5s-48.167 176 -81.5 267s-50 159.833 -50 206.5c0 10.667 5.66699 18.667 17 24h28
c22.667 -2.66699 57 -4 103 -4h102c14.667 0 25.334 -7.66699 32.001 -23s13.5 -42 20.5 -80s25.167 -145 54.5 -321c16.667 -100.667 28 -175.167 34 -223.5s11 -93.166 15 -134.499s8.66699 -75.333 14 -102h80l-16 1036c-0.666992 37.333 -2.83398 80.5 -6.50098 129.5
s-7.33398 91.167 -11.001 126.5s-6.16699 65.333 -7.5 90c0 28.667 4.66699 47.5 14 56.5s23 13.5 41 13.5c13.333 0 24.166 -0.166992 32.499 -0.5s17.5 -0.833008 27.5 -1.5c42 0 73.333 0.666992 94 2h22c16.667 -3.33301 25 -7.66602 25 -12.999
c0 -2 -1.33301 -16 -4 -42s-4.66699 -60.333 -6 -103c-1.33301 -41.333 -3 -84.166 -5 -128.499l-6 -129.5l-24 -1036h96c10 52 17.167 108.5 21.5 169.5s9.5 114.333 15.5 160s18.333 105.834 37 180.501c34 138.667 76.833 239.5 128.5 302.5s115.167 94.5 190.5 94.5
c66 0 99 -13.667 99 -41c0 -10.667 -5.33301 -25.834 -16 -45.501s-18.667 -35.834 -24 -48.501s-8.33301 -32.667 -9 -60c0 -34 -1.66699 -71.333 -5 -112l-47 -2c-11.333 35.333 -38 53 -80 53c-34 0 -62.5 -11.5 -85.5 -34.5s-41.333 -53.5 -55 -91.5
s-23.167 -71.167 -28.5 -99.5s-15.666 -89.166 -30.999 -182.499c-8 -49.333 -12.833 -85.166 -14.5 -107.499s-3.16699 -45.833 -4.5 -70.5s-5.33301 -60 -12 -106c-2 -12.667 -4.83301 -20.667 -8.5 -24s-11.834 -5 -24.501 -5h-145z" />
    <glyph glyph-name="afii10054" unicode="&#xbd;" horiz-adv-x="1303" 
d="M1161 1022l-275.995 1.99609c-18 0 -27 13.667 -27 41c0 92.667 -10.333 162.334 -31 209.001s-43.334 76.667 -68.001 90s-47.667 20 -69 20c-38.667 0 -70.167 -10.167 -94.5 -30.5s-42.333 -48.333 -54 -84s-19.5 -75.667 -23.5 -120s-6 -96.5 -6 -156.5
c0 -60.667 7.83301 -109.167 23.5 -145.5s37 -63.666 64 -81.999s51.5 -29.666 73.5 -33.999s66.667 -11.833 134 -22.5c149.333 -22.667 255 -68.667 317 -138s93 -145 93 -227c0 -62 -10.333 -123.833 -31 -185.5s-59.334 -114 -116.001 -157
s-133.334 -64.5 -230.001 -64.5c-34.667 0 -64.834 1.5 -90.501 4.5s-50.667 7.66699 -75 14s-51.166 14.5 -80.499 24.5c-74.667 26 -120.167 41.667 -136.5 47s-35.833 8 -58.5 8c-60 0 -90 -47 -90 -141c0 -6 1.33301 -18.333 4 -37c1.33301 -10 2 -23 2 -39
c0 -8.66699 -8.66699 -13 -26 -13c-12.667 0.666992 -25 1.16699 -37 1.5s-37.333 0.5 -76 0.5c-26 -4 -49.5 -10.667 -70.5 -20s-33.5 -14 -37.5 -14c-10.667 0 -20.834 12.5 -30.501 37.5s-14.5 54.833 -14.5 89.5c0 78.667 23 141.667 69 189s106.667 71 182 71
c36.667 0 79.334 -6 128.001 -18s110.667 -31.333 186 -58l37.5 -13c13 -4.66699 25.833 -8.16699 38.5 -10.5s23.334 -3.5 32.001 -3.5c106.667 0 160 109.333 160 328c0 100 -25.333 168.667 -76 206s-115.334 60 -194.001 68c-66.667 8 -120.5 16 -161.5 24
s-83 23.667 -126 47s-78.167 58.5 -105.5 105.5s-41 107.167 -41 180.5c0 72.667 14.167 136.834 42.5 192.501s67.666 102.5 117.999 140.5s106.666 66.333 168.999 85s128.5 28 198.5 28c110.667 0 204.5 -22 281.5 -66s134 -97.167 171 -159.5s55.5 -119.5 55.5 -171.5
c0 -28.667 -9 -43 -27 -43z" />
    <glyph glyph-name="afii10102" unicode="&#xbe;" horiz-adv-x="1192" 
d="M78 -184l-53 44.9941c48 78.667 93.167 137.167 135.5 175.5s79.5 62.333 111.5 72s65.667 14.5 101 14.5c22 0 41.167 -1.66699 57.5 -5s34.666 -8.66602 54.999 -15.999s36.833 -12.666 49.5 -15.999c38.667 -12 71.334 -18 98.001 -18c70 0 118.5 26.333 145.5 79
s40.5 107.334 40.5 164.001c0 42 -16.167 79.167 -48.5 111.5s-80.166 48.5 -143.499 48.5c-13.333 0 -45.666 -4.66699 -96.999 -14c-87.333 -18 -161.666 -27 -222.999 -27c-52.667 0 -106.834 17.5 -162.501 52.5s-83.5 99.5 -83.5 193.5
c0 78.667 23.833 140.334 71.5 185.001s104 74.834 169 90.501s127.5 23.5 187.5 23.5c67.333 0 134.166 -10.5 200.499 -31.5s121 -46.333 164 -76s64.5 -54.5 64.5 -74.5c0 -6.66699 -13.833 -18.334 -41.5 -35.001s-59.167 -31.834 -94.5 -45.501s-62 -20.5 -80 -20.5
c-24 0 -39 6 -45 18s-13 35.667 -21 71s-19.333 61.5 -34 78.5s-40.667 25.5 -78 25.5c-58.667 0 -104 -16.167 -136 -48.5s-48 -71.5 -48 -117.5c0 -47.333 18.833 -88.5 56.5 -123.5s90.5 -52.5 158.5 -52.5c34.667 0 79.667 7.33301 135 22
c46 12.667 78.667 21.334 98 26.001s38.666 7 57.999 7c68.667 0 122.667 -17.333 162 -52s65.5 -73 78.5 -115s19.5 -77 19.5 -105c0 -37.333 -6.5 -76.666 -19.5 -117.999s-35.833 -81.166 -68.5 -119.499s-77.167 -69.5 -133.5 -93.5s-125.166 -36 -206.499 -36
c-22 0 -52.667 3.66699 -92 11s-62.666 11.333 -69.999 12c-28.667 4 -58 6 -88 6c-46 0 -85.5 -4.5 -118.5 -13.5s-60.333 -20.333 -82 -34s-49.334 -35.667 -83.001 -66s-55.834 -49.833 -66.501 -58.5z" />
    <glyph glyph-name="afii10104" unicode="&#xbf;" horiz-adv-x="449" 
d="M84 547c0 123.333 2.66797 215.002 8.00098 275.002s13.166 97 23.499 111s25.833 21 46.5 21c16 0 28.667 -0.166992 38 -0.5s19.666 -0.833008 30.999 -1.5c20 0 48.667 1.33301 86 4h23c16.667 -2.66699 25 -13.334 25 -32.001c0 -28.667 -4 -65.334 -12 -110.001
s-13.5 -82.334 -16.5 -113.001s-4.5 -79.334 -4.5 -146.001c0 -31.333 2.83301 -74.666 8.5 -129.999s10.667 -111.5 15 -168.5s6.5 -122.833 6.5 -197.5c0 -23.333 -6 -39 -18 -47s-40.667 -12 -86 -12h-96c-20.667 0 -36 5.66699 -46 17s-17.167 32.833 -21.5 64.5
s-7.16602 80.334 -8.49902 146.001s-2 172.167 -2 319.5zM-11.999 1331l69.001 0.00195312c27.333 0.666992 50.166 1.16699 68.499 1.5s31.833 0.5 40.5 0.5c18 0 27 -10 27 -30c0 -17.333 -0.833008 -35.333 -2.5 -54s-2.5 -33.667 -2.5 -45
c0 -9.33301 0.833008 -23 2.5 -41s2.5 -35.667 2.5 -53c0 -18.667 -9 -29.667 -27 -33h-23c-37.333 2.66699 -66 4 -86 4c-14.667 0 -26.834 -0.166992 -36.501 -0.5s-20.5 -0.833008 -32.5 -1.5c-10 0 -18.5 1.33301 -25.5 4s-12 8 -15 16s-4.83301 19 -5.5 33
s-1 38.667 -1 74c0 13.333 -0.166992 24 -0.5 32s-0.833008 16.667 -1.5 26c0 23.333 3.33301 41.666 10 54.999c2.66699 5.33301 6.33398 8.66602 11.001 9.99902s14 2 28 2zM362.002 1331l70.0029 0.000976562c26.667 0.666992 49.167 1.16699 67.5 1.5
s32.166 0.5 41.499 0.5c17.333 0 26 -10 26 -30c0 -12 -0.666992 -28.667 -2 -50s-2 -37.666 -2 -48.999c0 -9.33301 0.666992 -24.333 2 -45s2 -37 2 -49c0 -19.333 -8.66699 -30.333 -26 -33h-23c-38.667 2.66699 -67.334 4 -86.001 4
c-14.667 0 -26.834 -0.166992 -36.501 -0.5s-20.834 -0.833008 -33.501 -1.5c-10 0 -18.5 1.33301 -25.5 4s-12 8 -15 16s-4.83301 19 -5.5 33s-1 38.667 -1 74c0 13.333 -0.166992 24 -0.5 32s-0.833008 16.667 -1.5 26c0 23.333 3.66699 41.666 11 54.999
c2.66699 5.33301 6.33398 8.66602 11.001 9.99902s13.667 2 27 2z" />
    <glyph glyph-name="afii10017" unicode="&#xc0;" horiz-adv-x="1415" 
d="M565 1376h-157.001v86h636v-86h-161l377 -1290h141v-86h-615v86h156l-154 530c-16 -76 -40.333 -153.167 -73 -231.5s-70.5 -148.166 -113.5 -209.499s-90.167 -110.666 -141.5 -147.999s-103.666 -56 -156.999 -56c-66.667 0 -121.5 21.5 -164.5 64.5
s-64.5 103.5 -64.5 181.5c0 68 13.833 142.167 41.5 222.5s62.667 159.333 105 237s90.5 158.167 144.5 241.5c15.333 24 44.5 67.167 87.5 129.5s73.167 112.166 90.5 149.499s26 78.666 26 123.999c0 12.667 -1.33301 31 -4 55zM728.999 811l-91.999 325.999
c-46.667 -62.667 -95.667 -135.667 -147 -219s-95 -166.666 -131 -249.999s-57.333 -158.666 -64 -225.999v-53c3.33301 -27.333 14.333 -50.833 33 -70.5s46.667 -29.5 84 -29.5c47.333 0 93.666 28.667 138.999 86s84 127.666 116 210.999s52.667 158.333 62 225z" />
    <glyph glyph-name="afii10017" unicode="&#x410;" horiz-adv-x="1415" 
d="M565 1376h-157.001v86h636v-86h-161l377 -1290h141v-86h-615v86h156l-154 530c-16 -76 -40.333 -153.167 -73 -231.5s-70.5 -148.166 -113.5 -209.499s-90.167 -110.666 -141.5 -147.999s-103.666 -56 -156.999 -56c-66.667 0 -121.5 21.5 -164.5 64.5
s-64.5 103.5 -64.5 181.5c0 68 13.833 142.167 41.5 222.5s62.667 159.333 105 237s90.5 158.167 144.5 241.5c15.333 24 44.5 67.167 87.5 129.5s73.167 112.166 90.5 149.499s26 78.666 26 123.999c0 12.667 -1.33301 31 -4 55zM728.999 811l-91.999 325.999
c-46.667 -62.667 -95.667 -135.667 -147 -219s-95 -166.666 -131 -249.999s-57.333 -158.666 -64 -225.999v-53c3.33301 -27.333 14.333 -50.833 33 -70.5s46.667 -29.5 84 -29.5c47.333 0 93.666 28.667 138.999 86s84 127.666 116 210.999s52.667 158.333 62 225z" />
    <glyph glyph-name="afii10018" unicode="&#xc1;" horiz-adv-x="1307" 
d="M80 1434h731.002c70 0 121.833 2.33301 155.5 7s62.167 10.334 85.5 17.001s43.333 10 60 10c22.667 0 39.667 -7.5 51 -22.5s17 -33.833 17 -56.5c0 -23.333 -5.83301 -68.333 -17.5 -135s-27.834 -127.167 -48.501 -181.5s-44.667 -81.5 -72 -81.5
c-14.667 0 -26.334 4.33301 -35.001 13s-16 21.667 -22 39s-11.833 37.666 -17.5 60.999s-12.167 43 -19.5 59c-22 56 -47.333 97.333 -76 124s-60.167 43.5 -94.5 50.5s-78.5 10.5 -132.5 10.5h-78v-514c31.333 -30 73.5 -57.333 126.5 -82s108 -44.167 165 -58.5
s108.167 -21.5 153.5 -21.5c9.33301 0 23.333 0.666992 42 2s32.667 2 42 2c46.667 0 80.167 -7.16699 100.5 -21.5s30.5 -51.5 30.5 -111.5v-400c0 -60.667 -9 -99.667 -27 -117s-52 -26 -102 -26h-1018v86h170v1262h-170v86zM567.002 86h251.999
c32.667 0 55.834 8.16699 69.501 24.5s20.5 53.833 20.5 112.5v232c0 24 -2 41.333 -6 52s-15.667 23 -35 37s-47.333 31.333 -84 52c-56.667 31.333 -99.5 57.333 -128.5 78s-58.5 48 -88.5 82v-670z" />
    <glyph glyph-name="afii10018" unicode="&#x411;" horiz-adv-x="1307" 
d="M80 1434h731.002c70 0 121.833 2.33301 155.5 7s62.167 10.334 85.5 17.001s43.333 10 60 10c22.667 0 39.667 -7.5 51 -22.5s17 -33.833 17 -56.5c0 -23.333 -5.83301 -68.333 -17.5 -135s-27.834 -127.167 -48.501 -181.5s-44.667 -81.5 -72 -81.5
c-14.667 0 -26.334 4.33301 -35.001 13s-16 21.667 -22 39s-11.833 37.666 -17.5 60.999s-12.167 43 -19.5 59c-22 56 -47.333 97.333 -76 124s-60.167 43.5 -94.5 50.5s-78.5 10.5 -132.5 10.5h-78v-514c31.333 -30 73.5 -57.333 126.5 -82s108 -44.167 165 -58.5
s108.167 -21.5 153.5 -21.5c9.33301 0 23.333 0.666992 42 2s32.667 2 42 2c46.667 0 80.167 -7.16699 100.5 -21.5s30.5 -51.5 30.5 -111.5v-400c0 -60.667 -9 -99.667 -27 -117s-52 -26 -102 -26h-1018v86h170v1262h-170v86zM567.002 86h251.999
c32.667 0 55.834 8.16699 69.501 24.5s20.5 53.833 20.5 112.5v232c0 24 -2 41.333 -6 52s-15.667 23 -35 37s-47.333 31.333 -84 52c-56.667 31.333 -99.5 57.333 -128.5 78s-58.5 48 -88.5 82v-670z" />
    <glyph glyph-name="afii10019" unicode="&#xc2;" horiz-adv-x="1331" 
d="M227 86l-0.000976562 649.001c0 114.667 6.66699 213.834 20 297.501s39.166 158.167 77.499 223.5s94.5 116 168.5 152s169 54 285 54c93.333 0 172.166 -16.333 236.499 -49s112 -74.334 143 -125.001s46.5 -102.334 46.5 -155.001c0 -48 -10.5 -94 -31.5 -138
s-55.667 -80.5 -104 -109.5s-109.5 -43.5 -183.5 -43.5c-61.333 0 -123.666 21.667 -186.999 65l-90 -112c69.333 -55.333 137 -95.833 203 -121.5s142.333 -38.5 229 -38.5h70c41.333 -2.66699 67.333 -14.667 78 -36s16 -57 16 -107v-326
c0 -54.667 -3.16699 -92.5 -9.5 -113.5s-20.166 -35 -41.499 -42s-57.666 -10.5 -108.999 -10.5h-987v86h170zM544.999 86.001h251.999c32 0 55 8 69 24s21 53.667 21 113v232c0 24 -2 41.333 -6 52s-15.667 23 -35 37s-47.333 31.333 -84 52
c-56.667 31.333 -99.167 57 -127.5 77s-58.166 47.667 -89.499 83v-670zM544.998 827.001l119.001 162.002c40 -23.333 71.333 -35 94 -35c31.333 0 60.666 16.5 87.999 49.5s41 86.833 41 161.5c0 53.333 -8 95.666 -24 126.999s-36.333 53.166 -61 65.499
s-50.334 18.5 -77.001 18.5c-73.333 0 -121.666 -38.333 -144.999 -115s-35 -179.667 -35 -309v-125z" />
    <glyph glyph-name="afii10019" unicode="&#x412;" horiz-adv-x="1331" 
d="M227 86l-0.000976562 649.001c0 114.667 6.66699 213.834 20 297.501s39.166 158.167 77.499 223.5s94.5 116 168.5 152s169 54 285 54c93.333 0 172.166 -16.333 236.499 -49s112 -74.334 143 -125.001s46.5 -102.334 46.5 -155.001c0 -48 -10.5 -94 -31.5 -138
s-55.667 -80.5 -104 -109.5s-109.5 -43.5 -183.5 -43.5c-61.333 0 -123.666 21.667 -186.999 65l-90 -112c69.333 -55.333 137 -95.833 203 -121.5s142.333 -38.5 229 -38.5h70c41.333 -2.66699 67.333 -14.667 78 -36s16 -57 16 -107v-326
c0 -54.667 -3.16699 -92.5 -9.5 -113.5s-20.166 -35 -41.499 -42s-57.666 -10.5 -108.999 -10.5h-987v86h170zM544.999 86.001h251.999c32 0 55 8 69 24s21 53.667 21 113v232c0 24 -2 41.333 -6 52s-15.667 23 -35 37s-47.333 31.333 -84 52
c-56.667 31.333 -99.167 57 -127.5 77s-58.166 47.667 -89.499 83v-670zM544.998 827.001l119.001 162.002c40 -23.333 71.333 -35 94 -35c31.333 0 60.666 16.5 87.999 49.5s41 86.833 41 161.5c0 53.333 -8 95.666 -24 126.999s-36.333 53.166 -61 65.499
s-50.334 18.5 -77.001 18.5c-73.333 0 -121.666 -38.333 -144.999 -115s-35 -179.667 -35 -309v-125z" />
    <glyph glyph-name="afii10020" unicode="&#xc3;" horiz-adv-x="1235" 
d="M80 1434l770 0.00195312c84.667 0 139 4.66699 163 14s70 14 138 14c22.667 0 39.667 -7.33301 51 -22s17 -34 17 -58c0 -22.667 -6.16699 -67.334 -18.5 -134.001s-28.666 -126.167 -48.999 -178.5s-43.833 -78.5 -70.5 -78.5c-14.667 0 -26.334 4.33301 -35.001 13
s-16 21.667 -22 39s-11.833 37.666 -17.5 60.999s-12.167 43 -19.5 59c-22 56 -47.333 97.333 -76 124s-60.167 43.5 -94.5 50.5s-78.5 10.5 -132.5 10.5h-117v-1262h170v-86h-657v86h170v1262h-170v86z" />
    <glyph glyph-name="afii10020" unicode="&#x413;" horiz-adv-x="1235" 
d="M80 1434l770 0.00195312c84.667 0 139 4.66699 163 14s70 14 138 14c22.667 0 39.667 -7.33301 51 -22s17 -34 17 -58c0 -22.667 -6.16699 -67.334 -18.5 -134.001s-28.666 -126.167 -48.999 -178.5s-43.833 -78.5 -70.5 -78.5c-14.667 0 -26.334 4.33301 -35.001 13
s-16 21.667 -22 39s-11.833 37.666 -17.5 60.999s-12.167 43 -19.5 59c-22 56 -47.333 97.333 -76 124s-60.167 43.5 -94.5 50.5s-78.5 10.5 -132.5 10.5h-117v-1262h170v-86h-657v86h170v1262h-170v86z" />
    <glyph glyph-name="afii10021" unicode="&#xc4;" horiz-adv-x="1417" 
d="M1069 1434l-0.000976562 -85.9971h-115c8 -84.667 23.333 -196.667 46 -336s50 -282.5 82 -429.5s62.5 -266.167 91.5 -357.5s53.5 -137 73.5 -137c8.66699 0 23.334 4.16699 44.001 12.5s37.334 12.5 50.001 12.5c16.667 0 30.834 -6.5 42.501 -19.5
s17.5 -29.833 17.5 -50.5c0 -30.667 -7.16699 -79.5 -21.5 -146.5s-32.5 -127.333 -54.5 -181s-46 -80.5 -72 -80.5c-22.667 0 -38.167 9 -46.5 27s-16.333 47.667 -24 89s-14.834 69.666 -21.501 84.999c-14.667 37.333 -34.167 67.666 -58.5 90.999s-50 40 -77 50
s-54.667 16.333 -83 19s-61.833 4 -100.5 4h-209h-72c-76.667 0 -139.834 -10.5 -189.501 -31.5s-87.5 -66.5 -113.5 -136.5c-6 -16 -13.833 -43.167 -23.5 -81.5s-19.834 -67.166 -30.501 -86.499s-26 -29 -46 -29c-19.333 0 -40.333 24.167 -63 72.5
s-41.5 106.166 -56.5 173.499s-22.5 124.666 -22.5 171.999c0 23.333 8.83301 39.166 26.5 47.499s35.5 12.5 53.5 12.5c15.333 0 29.333 -1.5 42 -4.5s23.334 -4.5 32.001 -4.5c24.667 0 44 14 58 42s25.667 70.167 35 126.5l28 163.5c9.33301 52.667 21 99 35 139
c32 86 64.5 161.5 97.5 226.5s67.5 128.5 103.5 190.5s61.333 110.667 76 146s22 74.333 22 117c0 24.667 -8.5 46.334 -25.5 65.001s-48.833 28 -95.5 28h-111v86h676zM531.999 86.0029h357l-83 317.5c-27.333 105 -46.833 186.333 -58.5 244l-35 181l-34.5 183.5
c-56 -71.333 -108.5 -157.5 -157.5 -258.5s-88 -200.833 -117 -299.5s-43.5 -177 -43.5 -235c0 -39.333 6.16699 -68.5 18.5 -87.5s30 -31.333 53 -37s56.5 -8.5 100.5 -8.5z" />
    <glyph glyph-name="afii10021" unicode="&#x414;" horiz-adv-x="1417" 
d="M1069 1434l-0.000976562 -85.9971h-115c8 -84.667 23.333 -196.667 46 -336s50 -282.5 82 -429.5s62.5 -266.167 91.5 -357.5s53.5 -137 73.5 -137c8.66699 0 23.334 4.16699 44.001 12.5s37.334 12.5 50.001 12.5c16.667 0 30.834 -6.5 42.501 -19.5
s17.5 -29.833 17.5 -50.5c0 -30.667 -7.16699 -79.5 -21.5 -146.5s-32.5 -127.333 -54.5 -181s-46 -80.5 -72 -80.5c-22.667 0 -38.167 9 -46.5 27s-16.333 47.667 -24 89s-14.834 69.666 -21.501 84.999c-14.667 37.333 -34.167 67.666 -58.5 90.999s-50 40 -77 50
s-54.667 16.333 -83 19s-61.833 4 -100.5 4h-209h-72c-76.667 0 -139.834 -10.5 -189.501 -31.5s-87.5 -66.5 -113.5 -136.5c-6 -16 -13.833 -43.167 -23.5 -81.5s-19.834 -67.166 -30.501 -86.499s-26 -29 -46 -29c-19.333 0 -40.333 24.167 -63 72.5
s-41.5 106.166 -56.5 173.499s-22.5 124.666 -22.5 171.999c0 23.333 8.83301 39.166 26.5 47.499s35.5 12.5 53.5 12.5c15.333 0 29.333 -1.5 42 -4.5s23.334 -4.5 32.001 -4.5c24.667 0 44 14 58 42s25.667 70.167 35 126.5l28 163.5c9.33301 52.667 21 99 35 139
c32 86 64.5 161.5 97.5 226.5s67.5 128.5 103.5 190.5s61.333 110.667 76 146s22 74.333 22 117c0 24.667 -8.5 46.334 -25.5 65.001s-48.833 28 -95.5 28h-111v86h676zM531.999 86.0029h357l-83 317.5c-27.333 105 -46.833 186.333 -58.5 244l-35 181l-34.5 183.5
c-56 -71.333 -108.5 -157.5 -157.5 -258.5s-88 -200.833 -117 -299.5s-43.5 -177 -43.5 -235c0 -39.333 6.16699 -68.5 18.5 -87.5s30 -31.333 53 -37s56.5 -8.5 100.5 -8.5z" />
    <glyph glyph-name="afii10022" unicode="&#xc5;" horiz-adv-x="1481" 
d="M741 717l75.9951 0.000976562c-12.667 42 -32 73 -58 93s-49.667 30 -71 30c-42 0 -83.667 -7.66699 -125 -23s-76.666 -39.333 -105.999 -72c13.333 -86 24.333 -146.833 33 -182.5s20.667 -79.334 36 -131.001s26 -93.167 32 -124.5s9 -73.666 9 -126.999
c0 -34.667 -6.66699 -70.667 -20 -108c18 -10 43.333 -15 76 -15c124 0 214.5 32.833 271.5 98.5s93.5 135.5 109.5 209.5h-103v84h537v-84l-76 -3c-42 -76 -96 -144 -162 -204s-136.5 -106.167 -211.5 -138.5s-149.833 -48.5 -224.5 -48.5c-142 0 -254 13 -336 39
c2.66699 22.667 4 39 4 49c0 52 -11.167 99.167 -33.5 141.5s-52.833 86.833 -91.5 133.5c-58 70.667 -103.333 131.334 -136 182.001s-55 97.667 -67 141s-18 92 -18 146c0 130.667 23.333 239.667 70 327s106.834 155.333 180.501 204s149 82.167 226 100.5
s151.5 27.5 223.5 27.5c119.333 0 232.666 -24.5 339.999 -73.5s183.333 -131.5 228 -247.5h98v-86h-508v86h64c-6.66699 38 -20.667 75.167 -42 111.5s-50.833 66 -88.5 89s-84.5 34.5 -140.5 34.5c-80.667 0 -142.667 -28.333 -186 -85s-71.666 -122.334 -84.999 -197.001
s-20 -148 -20 -220c0 -4 1.66699 -20.333 5 -49c97.333 86 211.333 129 342 129c46.667 0 95.334 -8.5 146.001 -25.5s96.334 -43.333 137.001 -79s70.334 -79.834 89.001 -132.501h84v-86h-508v86z" />
    <glyph glyph-name="afii10022" unicode="&#x415;" horiz-adv-x="1481" 
d="M741 717l75.9951 0.000976562c-12.667 42 -32 73 -58 93s-49.667 30 -71 30c-42 0 -83.667 -7.66699 -125 -23s-76.666 -39.333 -105.999 -72c13.333 -86 24.333 -146.833 33 -182.5s20.667 -79.334 36 -131.001s26 -93.167 32 -124.5s9 -73.666 9 -126.999
c0 -34.667 -6.66699 -70.667 -20 -108c18 -10 43.333 -15 76 -15c124 0 214.5 32.833 271.5 98.5s93.5 135.5 109.5 209.5h-103v84h537v-84l-76 -3c-42 -76 -96 -144 -162 -204s-136.5 -106.167 -211.5 -138.5s-149.833 -48.5 -224.5 -48.5c-142 0 -254 13 -336 39
c2.66699 22.667 4 39 4 49c0 52 -11.167 99.167 -33.5 141.5s-52.833 86.833 -91.5 133.5c-58 70.667 -103.333 131.334 -136 182.001s-55 97.667 -67 141s-18 92 -18 146c0 130.667 23.333 239.667 70 327s106.834 155.333 180.501 204s149 82.167 226 100.5
s151.5 27.5 223.5 27.5c119.333 0 232.666 -24.5 339.999 -73.5s183.333 -131.5 228 -247.5h98v-86h-508v86h64c-6.66699 38 -20.667 75.167 -42 111.5s-50.833 66 -88.5 89s-84.5 34.5 -140.5 34.5c-80.667 0 -142.667 -28.333 -186 -85s-71.666 -122.334 -84.999 -197.001
s-20 -148 -20 -220c0 -4 1.66699 -20.333 5 -49c97.333 86 211.333 129 342 129c46.667 0 95.334 -8.5 146.001 -25.5s96.334 -43.333 137.001 -79s70.334 -79.834 89.001 -132.501h84v-86h-508v86z" />
    <glyph glyph-name="afii10024" unicode="&#xc6;" horiz-adv-x="2038" 
d="M748 1434l542.001 -0.00195312v-86h-112v-537h14c15.333 28.667 29.333 56.167 42 82.5s21.334 43.833 26.001 52.5c37.333 73.333 63.5 126.666 78.5 159.999s27.5 59.333 37.5 78c30.667 60 61.5 110.333 92.5 151s65.5 72 103.5 94s81.333 33 130 33
c64.667 0 124 -12.333 178 -37c-4 -19.333 -10.667 -38.166 -20 -56.499s-17 -39.5 -23 -63.5c-3.33301 -14.667 -8 -68 -14 -160h-41c-16.667 6 -37.167 14.333 -61.5 25s-43.666 17.667 -57.999 21s-32.5 5 -54.5 5c-32.667 0 -64 -10.833 -94 -32.5
s-63.833 -62 -101.5 -121s-83.834 -147.167 -138.501 -264.5c64 -8.66699 129.667 -26.334 197 -53.001s130.166 -65.834 188.499 -117.501s106 -121 143 -208s55.5 -191.5 55.5 -313.5h124v-86h-581v86h96c0 137.333 -12.167 248.833 -36.5 334.5s-54.166 150 -89.499 193
s-69.833 72 -103.5 87s-63.5 23.167 -89.5 24.5v-639h104v-86h-526v86h104v639c-40.667 -3.33301 -84.334 -19.666 -131.001 -48.999s-89.667 -91.166 -129 -185.499s-59 -229.166 -59 -404.499h96v-86h-582v86h125c0 122 18.333 226 55 312s84.667 155.333 144 208
s122.333 92.334 189 119.001s132 44.334 196 53.001c-54.667 117.333 -100.834 205.5 -138.501 264.5s-71.5 99.333 -101.5 121s-61.333 32.5 -94 32.5c-21.333 0 -39.333 -1.66699 -54 -5s-34.167 -10.333 -58.5 -21s-44.833 -19 -61.5 -25h-41
c-6 92 -10.667 145.333 -14 160c-6 24 -13.667 45.167 -23 63.5s-16 37.166 -20 56.499c54 24.667 113.333 37 178 37c48 0 91 -11 129 -33s72 -52.833 102 -92.5s61.667 -90.5 95 -152.5l30 -61.5l36.5 -77l49.5 -99.5c2 -2.66699 10.5 -19.167 25.5 -49.5l42.5 -85.5h14
v537h-112v86z" />
    <glyph glyph-name="afii10024" unicode="&#x416;" horiz-adv-x="2038" 
d="M748 1434l542.001 -0.00195312v-86h-112v-537h14c15.333 28.667 29.333 56.167 42 82.5s21.334 43.833 26.001 52.5c37.333 73.333 63.5 126.666 78.5 159.999s27.5 59.333 37.5 78c30.667 60 61.5 110.333 92.5 151s65.5 72 103.5 94s81.333 33 130 33
c64.667 0 124 -12.333 178 -37c-4 -19.333 -10.667 -38.166 -20 -56.499s-17 -39.5 -23 -63.5c-3.33301 -14.667 -8 -68 -14 -160h-41c-16.667 6 -37.167 14.333 -61.5 25s-43.666 17.667 -57.999 21s-32.5 5 -54.5 5c-32.667 0 -64 -10.833 -94 -32.5
s-63.833 -62 -101.5 -121s-83.834 -147.167 -138.501 -264.5c64 -8.66699 129.667 -26.334 197 -53.001s130.166 -65.834 188.499 -117.501s106 -121 143 -208s55.5 -191.5 55.5 -313.5h124v-86h-581v86h96c0 137.333 -12.167 248.833 -36.5 334.5s-54.166 150 -89.499 193
s-69.833 72 -103.5 87s-63.5 23.167 -89.5 24.5v-639h104v-86h-526v86h104v639c-40.667 -3.33301 -84.334 -19.666 -131.001 -48.999s-89.667 -91.166 -129 -185.499s-59 -229.166 -59 -404.499h96v-86h-582v86h125c0 122 18.333 226 55 312s84.667 155.333 144 208
s122.333 92.334 189 119.001s132 44.334 196 53.001c-54.667 117.333 -100.834 205.5 -138.501 264.5s-71.5 99.333 -101.5 121s-61.333 32.5 -94 32.5c-21.333 0 -39.333 -1.66699 -54 -5s-34.167 -10.333 -58.5 -21s-44.833 -19 -61.5 -25h-41
c-6 92 -10.667 145.333 -14 160c-6 24 -13.667 45.167 -23 63.5s-16 37.166 -20 56.499c54 24.667 113.333 37 178 37c48 0 91 -11 129 -33s72 -52.833 102 -92.5s61.667 -90.5 95 -152.5l30 -61.5l36.5 -77l49.5 -99.5c2 -2.66699 10.5 -19.167 25.5 -49.5l42.5 -85.5h14
v537h-112v86z" />
    <glyph glyph-name="afii10025" unicode="&#xc7;" horiz-adv-x="1300" 
d="M444 655l-3.99902 118.999c14.667 0 26.167 -0.166992 34.5 -0.5s17.5 -0.833008 27.5 -1.5c88.667 0 155.334 9.83301 200.001 29.5s74 47.167 88 82.5s21.667 83.333 23 144v68c-1.33301 58 -6.16602 106.167 -14.499 144.5s-25.5 70.5 -51.5 96.5s-63.333 39 -112 39
c-52 0 -99.5 -15.5 -142.5 -46.5s-64.5 -89.833 -64.5 -176.5c0 -14.667 1.33301 -28.667 4 -42s4 -26 4 -38c0 -10.667 -2.66699 -17.167 -8 -19.5s-22.833 -3.5 -52.5 -3.5s-65.167 -1.33301 -106.5 -4s-94 -9.33398 -158 -20.001h-25c-2.66699 1.33301 -4 15 -4 41
c0 157.333 62.833 262.5 188.5 315.5s251.167 79.5 376.5 79.5c100 0 190.333 -16.333 271 -49s143.5 -77.5 188.5 -134.5s67.5 -119.833 67.5 -188.5c0 -57.333 -11.333 -106.166 -34 -146.499s-51.334 -73 -86.001 -98s-68.167 -44 -100.5 -57s-73.833 -27.5 -124.5 -43.5
c-2.66699 -0.666992 -5.5 -1.5 -8.5 -2.5s-6.16699 -2.16699 -9.5 -3.5v-37c98.667 -9.33301 191.667 -41.333 279 -96s131 -146 131 -274c0 -112.667 -38.5 -206.667 -115.5 -282s-174.5 -113 -292.5 -113c-39.333 0 -77.666 4 -114.999 12
c-66 12.667 -129.333 28.167 -190 46.5s-99 27.5 -115 27.5c-22.667 0 -42 -10 -58 -30s-24 -52.333 -24 -97c0 -11.333 1.33301 -24.666 4 -39.999s4 -26 4 -32c0 -10.667 -1.16699 -18.167 -3.5 -22.5s-7.83301 -6.5 -16.5 -6.5c-38 0 -62 1.33301 -72 4s-27 4 -51 4
c-18.667 0 -37.334 -4.66699 -56.001 -14s-30 -14 -34 -14c-39.333 0 -59 47 -59 141c0 73.333 20.333 134.333 61 183s90.667 73 150 73c23.333 0 47.166 -3.33301 71.499 -10s52.5 -15.667 84.5 -27l118 -41c85.333 -26 146.666 -39 183.999 -39c46.667 0 82 15 106 45
s39.333 64.833 46 104.5s10.667 82.167 12 127.5v114c-8.66699 86.667 -38 143.167 -88 169.5s-99.667 39.5 -149 39.5h-179z" />
    <glyph glyph-name="afii10025" unicode="&#x417;" horiz-adv-x="1300" 
d="M444 655l-3.99902 118.999c14.667 0 26.167 -0.166992 34.5 -0.5s17.5 -0.833008 27.5 -1.5c88.667 0 155.334 9.83301 200.001 29.5s74 47.167 88 82.5s21.667 83.333 23 144v68c-1.33301 58 -6.16602 106.167 -14.499 144.5s-25.5 70.5 -51.5 96.5s-63.333 39 -112 39
c-52 0 -99.5 -15.5 -142.5 -46.5s-64.5 -89.833 -64.5 -176.5c0 -14.667 1.33301 -28.667 4 -42s4 -26 4 -38c0 -10.667 -2.66699 -17.167 -8 -19.5s-22.833 -3.5 -52.5 -3.5s-65.167 -1.33301 -106.5 -4s-94 -9.33398 -158 -20.001h-25c-2.66699 1.33301 -4 15 -4 41
c0 157.333 62.833 262.5 188.5 315.5s251.167 79.5 376.5 79.5c100 0 190.333 -16.333 271 -49s143.5 -77.5 188.5 -134.5s67.5 -119.833 67.5 -188.5c0 -57.333 -11.333 -106.166 -34 -146.499s-51.334 -73 -86.001 -98s-68.167 -44 -100.5 -57s-73.833 -27.5 -124.5 -43.5
c-2.66699 -0.666992 -5.5 -1.5 -8.5 -2.5s-6.16699 -2.16699 -9.5 -3.5v-37c98.667 -9.33301 191.667 -41.333 279 -96s131 -146 131 -274c0 -112.667 -38.5 -206.667 -115.5 -282s-174.5 -113 -292.5 -113c-39.333 0 -77.666 4 -114.999 12
c-66 12.667 -129.333 28.167 -190 46.5s-99 27.5 -115 27.5c-22.667 0 -42 -10 -58 -30s-24 -52.333 -24 -97c0 -11.333 1.33301 -24.666 4 -39.999s4 -26 4 -32c0 -10.667 -1.16699 -18.167 -3.5 -22.5s-7.83301 -6.5 -16.5 -6.5c-38 0 -62 1.33301 -72 4s-27 4 -51 4
c-18.667 0 -37.334 -4.66699 -56.001 -14s-30 -14 -34 -14c-39.333 0 -59 47 -59 141c0 73.333 20.333 134.333 61 183s90.667 73 150 73c23.333 0 47.166 -3.33301 71.499 -10s52.5 -15.667 84.5 -27l118 -41c85.333 -26 146.666 -39 183.999 -39c46.667 0 82 15 106 45
s39.333 64.833 46 104.5s10.667 82.167 12 127.5v114c-8.66699 86.667 -38 143.167 -88 169.5s-99.667 39.5 -149 39.5h-179z" />
    <glyph glyph-name="afii10026" unicode="&#xc8;" 
d="M1020 993l-453 -553v-354h142v-86h-629v86h170v1262h-170v86h629v-86h-142v-773l453 555v218h-141v86h628v-86h-170v-1262h170v-86h-628v86h141v907z" />
    <glyph glyph-name="afii10026" unicode="&#x418;" 
d="M1020 993l-453 -553v-354h142v-86h-629v86h170v1262h-170v86h629v-86h-142v-773l453 555v218h-141v86h628v-86h-170v-1262h170v-86h-628v86h141v907z" />
    <glyph glyph-name="afii10027" unicode="&#xc9;" 
d="M1020 993l-453 -553v-354h142v-86h-629v86h170v1262h-170v86h606v-86h-119v-773l453 555v218h-119v86h606v-86h-170v-1262h170v-86h-628v86h141v907zM1036 1827l89.999 -33c-33.333 -88 -81 -160.167 -143 -216.5s-124.667 -84.5 -188 -84.5c-72 0 -134 31 -186 93
s-86.333 141.667 -103 239l80 22c38.667 -112 103.334 -168 194.001 -168c68 0 123.167 16.167 165.5 48.5s72.5 65.5 90.5 99.5z" />
    <glyph glyph-name="afii10027" unicode="&#x419;" 
d="M1020 993l-453 -553v-354h142v-86h-629v86h170v1262h-170v86h606v-86h-119v-773l453 555v218h-119v86h606v-86h-170v-1262h170v-86h-628v86h141v907zM1036 1827l89.999 -33c-33.333 -88 -81 -160.167 -143 -216.5s-124.667 -84.5 -188 -84.5c-72 0 -134 31 -186 93
s-86.333 141.667 -103 239l80 22c38.667 -112 103.334 -168 194.001 -168c68 0 123.167 16.167 165.5 48.5s72.5 65.5 90.5 99.5z" />
    <glyph glyph-name="afii10028" unicode="&#xca;" horiz-adv-x="1473" 
d="M567 801h76.001l29 57c4.66699 8.66699 25.667 57.167 63 145.5s74.5 164.333 111.5 228s81.5 118 133.5 163s110.333 67.5 175 67.5c67.333 0 127.333 -12.333 180 -37c-25.333 -68 -41.166 -116.333 -47.499 -145s-9.5 -73.667 -9.5 -135h-41
c-27.333 10.667 -50.333 20 -69 28s-35.167 13.833 -49.5 17.5s-33.5 5.5 -57.5 5.5c-40.667 0 -77 -14.667 -109 -44s-62.833 -70 -92.5 -122s-73.834 -136 -132.501 -252c8 -1.33301 14.333 -2.66602 19 -3.99902s10 -2.66602 16 -3.99902
c60.667 -14 117.334 -31.333 170.001 -52s107.167 -55 163.5 -103s103.666 -115.667 141.999 -203s58.5 -196 60.5 -326h123v-86h-557v86h80c2.66699 49.333 4 85.666 4 108.999c0 78.667 -6.83301 148.167 -20.5 208.5s-34.834 111.666 -63.501 153.999
s-67.5 78 -116.5 107s-109.167 50.5 -180.5 64.5v-643h127v-86h-614v86h170v1262h-170v86h629v-86h-142v-547z" />
    <glyph glyph-name="afii10028" unicode="&#x41a;" horiz-adv-x="1473" 
d="M567 801h76.001l29 57c4.66699 8.66699 25.667 57.167 63 145.5s74.5 164.333 111.5 228s81.5 118 133.5 163s110.333 67.5 175 67.5c67.333 0 127.333 -12.333 180 -37c-25.333 -68 -41.166 -116.333 -47.499 -145s-9.5 -73.667 -9.5 -135h-41
c-27.333 10.667 -50.333 20 -69 28s-35.167 13.833 -49.5 17.5s-33.5 5.5 -57.5 5.5c-40.667 0 -77 -14.667 -109 -44s-62.833 -70 -92.5 -122s-73.834 -136 -132.501 -252c8 -1.33301 14.333 -2.66602 19 -3.99902s10 -2.66602 16 -3.99902
c60.667 -14 117.334 -31.333 170.001 -52s107.167 -55 163.5 -103s103.666 -115.667 141.999 -203s58.5 -196 60.5 -326h123v-86h-557v86h80c2.66699 49.333 4 85.666 4 108.999c0 78.667 -6.83301 148.167 -20.5 208.5s-34.834 111.666 -63.501 153.999
s-67.5 78 -116.5 107s-109.167 50.5 -180.5 64.5v-643h127v-86h-614v86h170v1262h-170v86h629v-86h-142v-547z" />
    <glyph glyph-name="afii10029" unicode="&#xcb;" horiz-adv-x="1360" 
d="M729 86l133.001 -0.00195312c-38 120 -66.5 217.833 -85.5 293.5s-36.833 156.167 -53.5 241.5l-49.5 258.5c-16.333 87 -34.833 168.5 -55.5 244.5c-44 -52 -87.167 -118.833 -129.5 -200.5s-77 -166 -104 -253s-40.5 -161.833 -40.5 -224.5
c0 -70.667 6.16699 -123.5 18.5 -158.5s31.166 -78.333 56.499 -130s38 -94.5 38 -128.5c0 -19.333 -9.66699 -33.666 -29 -42.999c-14 -6 -29 -9 -45 -9c-12 0 -35.333 3 -70 9c-12 1.33301 -30.333 2 -55 2c-28.667 0 -50.334 -0.666992 -65.001 -2
c-39.333 0 -67.333 4.5 -84 13.5s-26.334 28.167 -29.001 57.5v72c4 64 12.833 122.333 26.5 175s37.334 116.667 71.001 192s83.167 177 148.5 305l101.5 186c33 60 62.167 118.833 87.5 176.5s38 101.834 38 132.501c0 22.667 -6.16699 37 -18.5 43s-29.5 9 -51.5 9h-141
v86h676v-86h-125c16.667 -122.667 35.834 -237 57.501 -343s47 -213.167 76 -321.5l82.5 -303.5c26 -94 50.333 -192 73 -294h149v-86h-602v86z" />
    <glyph glyph-name="afii10029" unicode="&#x41b;" horiz-adv-x="1360" 
d="M729 86l133.001 -0.00195312c-38 120 -66.5 217.833 -85.5 293.5s-36.833 156.167 -53.5 241.5l-49.5 258.5c-16.333 87 -34.833 168.5 -55.5 244.5c-44 -52 -87.167 -118.833 -129.5 -200.5s-77 -166 -104 -253s-40.5 -161.833 -40.5 -224.5
c0 -70.667 6.16699 -123.5 18.5 -158.5s31.166 -78.333 56.499 -130s38 -94.5 38 -128.5c0 -19.333 -9.66699 -33.666 -29 -42.999c-14 -6 -29 -9 -45 -9c-12 0 -35.333 3 -70 9c-12 1.33301 -30.333 2 -55 2c-28.667 0 -50.334 -0.666992 -65.001 -2
c-39.333 0 -67.333 4.5 -84 13.5s-26.334 28.167 -29.001 57.5v72c4 64 12.833 122.333 26.5 175s37.334 116.667 71.001 192s83.167 177 148.5 305l101.5 186c33 60 62.167 118.833 87.5 176.5s38 101.834 38 132.501c0 22.667 -6.16699 37 -18.5 43s-29.5 9 -51.5 9h-141
v86h676v-86h-125c16.667 -122.667 35.834 -237 57.501 -343s47 -213.167 76 -321.5l82.5 -303.5c26 -94 50.333 -192 73 -294h149v-86h-602v86z" />
    <glyph glyph-name="afii10030" unicode="&#xcc;" horiz-adv-x="2210" 
d="M889 86l-222.996 1040c-76 -115.333 -134 -224.833 -174 -328.5s-60 -212.5 -60 -326.5c0 -36.667 1.83301 -73.167 5.5 -109.5s8 -76.333 13 -120s8.5 -80.5 10.5 -110.5v-102c-2.66699 -20.667 -12.334 -35 -29.001 -43c-14 -6 -29 -9 -45 -9c-12 0 -36.667 3 -74 9
c-12 1.33301 -29.667 2 -53 2c-28.667 0 -50.334 -0.666992 -65.001 -2c-20 -2.66699 -35 -4 -45 -4c-22.667 0 -40 10.167 -52 30.5s-18 59.166 -18 116.499c0 99.333 13.333 189.333 40 270s58.667 150.334 96 209.001s89.666 132.334 156.999 221.001
s115.666 155.667 144.999 201c65.333 102 98 190.667 98 266c0 12 -1.33301 29.333 -4 52h-151v86h586v-86h-115l260 -1203l227 1203h-90v86h551v-86h-133l274 -1262h142v-86h-549v86h90l-231 1077l-201 -1077h108v-86h-598v86h107z" />
    <glyph glyph-name="afii10030" unicode="&#x41c;" horiz-adv-x="2210" 
d="M889 86l-222.996 1040c-76 -115.333 -134 -224.833 -174 -328.5s-60 -212.5 -60 -326.5c0 -36.667 1.83301 -73.167 5.5 -109.5s8 -76.333 13 -120s8.5 -80.5 10.5 -110.5v-102c-2.66699 -20.667 -12.334 -35 -29.001 -43c-14 -6 -29 -9 -45 -9c-12 0 -36.667 3 -74 9
c-12 1.33301 -29.667 2 -53 2c-28.667 0 -50.334 -0.666992 -65.001 -2c-20 -2.66699 -35 -4 -45 -4c-22.667 0 -40 10.167 -52 30.5s-18 59.166 -18 116.499c0 99.333 13.333 189.333 40 270s58.667 150.334 96 209.001s89.666 132.334 156.999 221.001
s115.666 155.667 144.999 201c65.333 102 98 190.667 98 266c0 12 -1.33301 29.333 -4 52h-151v86h586v-86h-115l260 -1203l227 1203h-90v86h551v-86h-133l274 -1262h142v-86h-549v86h90l-231 1077l-201 -1077h108v-86h-598v86h107z" />
    <glyph glyph-name="afii10031" unicode="&#xcd;" 
d="M567 993v-907h142v-86h-629v86h170v1262h-170v86h629v-86h-142v-218l453 -555v773h-141v86h628v-86h-170v-1262h170v-86h-628v86h141v354z" />
    <glyph glyph-name="afii10031" unicode="&#x41d;" 
d="M567 993v-907h142v-86h-629v86h170v1262h-170v86h629v-86h-142v-218l453 -555v773h-141v86h628v-86h-170v-1262h170v-86h-628v86h141v354z" />
    <glyph glyph-name="afii10032" unicode="&#xce;" horiz-adv-x="1305" 
d="M666 1489c34 0 82.1699 -23.832 144.503 -71.499s124.833 -108.834 187.5 -183.501s115.5 -157.334 158.5 -248.001s64.5 -177 64.5 -259c0 -88 -14.667 -165.167 -44 -231.5s-67.833 -126 -115.5 -179s-126.5 -133.167 -236.5 -240.5
c-58.667 -57.333 -97.334 -93.5 -116.001 -108.5s-36.667 -22.5 -54 -22.5c-14 0 -31.167 6.83301 -51.5 20.5s-61.833 47.167 -124.5 100.5c-81.333 70.667 -141.833 124.834 -181.5 162.501s-76.334 79.834 -110.001 126.501s-59.334 97.5 -77.001 152.5
s-26.5 117.167 -26.5 186.5c0 141.333 39.333 267.333 118 378s173 208.667 283 294c16.667 12.667 38.167 31.167 64.5 55.5s47.833 41.666 64.5 51.999s34 15.5 52 15.5zM530.003 1219c-51.333 -7.33301 -95.6689 -27.5 -133.002 -60.5s-65.666 -71.667 -84.999 -116
s-29 -85.833 -29 -124.5c0 -54.667 17.833 -111.667 53.5 -171s85.167 -124 148.5 -194l145 -148.5c51.333 -50.333 84.5 -86.5 99.5 -108.5s24.5 -51 28.5 -87c64 24 120.667 63.333 170 118s78 109.667 86 165v69c-8 54 -29.167 101.333 -63.5 142
s-84.166 89.834 -149.499 147.501s-120 113.667 -164 168s-79.667 121.166 -107 200.499z" />
    <glyph glyph-name="afii10032" unicode="&#x41e;" horiz-adv-x="1305" 
d="M666 1489c34 0 82.1699 -23.832 144.503 -71.499s124.833 -108.834 187.5 -183.501s115.5 -157.334 158.5 -248.001s64.5 -177 64.5 -259c0 -88 -14.667 -165.167 -44 -231.5s-67.833 -126 -115.5 -179s-126.5 -133.167 -236.5 -240.5
c-58.667 -57.333 -97.334 -93.5 -116.001 -108.5s-36.667 -22.5 -54 -22.5c-14 0 -31.167 6.83301 -51.5 20.5s-61.833 47.167 -124.5 100.5c-81.333 70.667 -141.833 124.834 -181.5 162.501s-76.334 79.834 -110.001 126.501s-59.334 97.5 -77.001 152.5
s-26.5 117.167 -26.5 186.5c0 141.333 39.333 267.333 118 378s173 208.667 283 294c16.667 12.667 38.167 31.167 64.5 55.5s47.833 41.666 64.5 51.999s34 15.5 52 15.5zM530.003 1219c-51.333 -7.33301 -95.6689 -27.5 -133.002 -60.5s-65.666 -71.667 -84.999 -116
s-29 -85.833 -29 -124.5c0 -54.667 17.833 -111.667 53.5 -171s85.167 -124 148.5 -194l145 -148.5c51.333 -50.333 84.5 -86.5 99.5 -108.5s24.5 -51 28.5 -87c64 24 120.667 63.333 170 118s78 109.667 86 165v69c-8 54 -29.167 101.333 -63.5 142
s-84.166 89.834 -149.499 147.501s-120 113.667 -164 168s-79.667 121.166 -107 200.499z" />
    <glyph glyph-name="afii10033" unicode="&#xcf;" 
d="M567 1348v-1262h142v-86h-629v86h170v1262h-170v86h1427v-86h-170v-1262h170v-86h-628v86h141v1262h-453z" />
    <glyph glyph-name="afii10033" unicode="&#x41f;" 
d="M567 1348v-1262h142v-86h-629v86h170v1262h-170v86h1427v-86h-170v-1262h170v-86h-628v86h141v1262h-453z" />
    <glyph glyph-name="afii10034" unicode="&#xd0;" horiz-adv-x="1358" 
d="M567 547l0.00195312 -460.998h170v-86h-657v86h170v750c0 55.333 0.5 110.166 1.5 164.499s2.5 103.166 4.5 146.499c26 62 62.667 116.5 110 163.5s104.166 84 170.499 111s137.5 40.5 213.5 40.5c75.333 0 145.5 -9.5 210.5 -28.5s120 -46.167 165 -81.5
s80 -78.333 105 -129s37.5 -107.334 37.5 -170.001c0 -67.333 -13.833 -131.833 -41.5 -193.5s-67.834 -111.167 -120.501 -148.5s-114 -56 -184 -56c-22 0 -40.667 1.5 -56 4.5s-31.5 8.16699 -48.5 15.5s-33.167 15.333 -48.5 24s-35.333 19.334 -60 32.001z
M567.002 670.002l131.001 166c28.667 -23.333 54 -35 76 -35c34.667 0 65.5 18.833 92.5 56.5s40.5 104.167 40.5 199.5c0 94.667 -11.5 171.5 -34.5 230.5s-68.833 88.5 -137.5 88.5s-113.834 -32.667 -135.501 -98s-32.5 -150 -32.5 -254v-78v-276z" />
    <glyph glyph-name="afii10034" unicode="&#x420;" horiz-adv-x="1358" 
d="M567 547l0.00195312 -460.998h170v-86h-657v86h170v750c0 55.333 0.5 110.166 1.5 164.499s2.5 103.166 4.5 146.499c26 62 62.667 116.5 110 163.5s104.166 84 170.499 111s137.5 40.5 213.5 40.5c75.333 0 145.5 -9.5 210.5 -28.5s120 -46.167 165 -81.5
s80 -78.333 105 -129s37.5 -107.334 37.5 -170.001c0 -67.333 -13.833 -131.833 -41.5 -193.5s-67.834 -111.167 -120.501 -148.5s-114 -56 -184 -56c-22 0 -40.667 1.5 -56 4.5s-31.5 8.16699 -48.5 15.5s-33.167 15.333 -48.5 24s-35.333 19.334 -60 32.001z
M567.002 670.002l131.001 166c28.667 -23.333 54 -35 76 -35c34.667 0 65.5 18.833 92.5 56.5s40.5 104.167 40.5 199.5c0 94.667 -11.5 171.5 -34.5 230.5s-68.833 88.5 -137.5 88.5s-113.834 -32.667 -135.501 -98s-32.5 -150 -32.5 -254v-78v-276z" />
    <glyph glyph-name="afii10035" unicode="&#xd1;" horiz-adv-x="1419" 
d="M1362 926l-537.001 -0.00292969v86h88c0 74.667 -7 137 -21 187s-32.167 87.667 -54.5 113s-45.5 42.333 -69.5 51s-49.333 13 -76 13c-71.333 0 -130.166 -35 -176.499 -105s-69.5 -181.667 -69.5 -335c0 -122 4.66699 -201.333 14 -238s24 -67.834 44 -93.501
s35.167 -68 45.5 -127s15.5 -173.167 15.5 -342.5c0 -16 -1.16699 -29.667 -3.5 -41s-5.5 -23.166 -9.5 -35.499s-7.66699 -25.166 -11 -38.499c9.33301 -8 25.666 -12 48.999 -12c43.333 0 90.5 22.667 141.5 68s94.333 106.333 130 183s53.5 159 53.5 247
c0 24.667 -0.666992 43 -2 55h-88v86h537v-86h-84c-4 -90.667 -28.667 -174.167 -74 -250.5s-103.666 -141.166 -174.999 -194.499s-146.666 -93.5 -225.999 -120.5s-152.333 -40.5 -219 -40.5c-62 0 -112 8.33301 -150 25v57
c-0.666992 36.667 -7.33398 72.834 -20.001 108.501s-28.334 68.167 -47.001 97.5s-40.334 59.666 -65.001 90.999l-64 82c-64 85.333 -105.333 158.833 -124 220.5s-28 125.167 -28 190.5c0 119.333 26.333 227.5 79 324.5s126.667 173 222 228s204 82.5 326 82.5
c127.333 0 231.333 -23.667 312 -71s139.834 -104.166 177.501 -170.499s62.834 -135.833 75.501 -208.5h84v-86z" />
    <glyph glyph-name="afii10035" unicode="&#x421;" horiz-adv-x="1419" 
d="M1362 926l-537.001 -0.00292969v86h88c0 74.667 -7 137 -21 187s-32.167 87.667 -54.5 113s-45.5 42.333 -69.5 51s-49.333 13 -76 13c-71.333 0 -130.166 -35 -176.499 -105s-69.5 -181.667 -69.5 -335c0 -122 4.66699 -201.333 14 -238s24 -67.834 44 -93.501
s35.167 -68 45.5 -127s15.5 -173.167 15.5 -342.5c0 -16 -1.16699 -29.667 -3.5 -41s-5.5 -23.166 -9.5 -35.499s-7.66699 -25.166 -11 -38.499c9.33301 -8 25.666 -12 48.999 -12c43.333 0 90.5 22.667 141.5 68s94.333 106.333 130 183s53.5 159 53.5 247
c0 24.667 -0.666992 43 -2 55h-88v86h537v-86h-84c-4 -90.667 -28.667 -174.167 -74 -250.5s-103.666 -141.166 -174.999 -194.499s-146.666 -93.5 -225.999 -120.5s-152.333 -40.5 -219 -40.5c-62 0 -112 8.33301 -150 25v57
c-0.666992 36.667 -7.33398 72.834 -20.001 108.501s-28.334 68.167 -47.001 97.5s-40.334 59.666 -65.001 90.999l-64 82c-64 85.333 -105.333 158.833 -124 220.5s-28 125.167 -28 190.5c0 119.333 26.333 227.5 79 324.5s126.667 173 222 228s204 82.5 326 82.5
c127.333 0 231.333 -23.667 312 -71s139.834 -104.166 177.501 -170.499s62.834 -135.833 75.501 -208.5h84v-86z" />
    <glyph glyph-name="afii10036" unicode="&#xd2;" 
d="M635 86l0.00292969 1262h-88c-9.33301 0.666992 -17.833 1.16699 -25.5 1.5s-17.5 0.5 -29.5 0.5c-41.333 0 -76.833 -13.333 -106.5 -40s-57.834 -83.667 -84.501 -171c-4.66699 -16.667 -12.334 -46.334 -23.001 -89.001s-20.334 -70.667 -29.001 -84s-22 -20 -40 -20
c-26 0 -51.167 26.167 -75.5 78.5s-44.166 113.833 -59.499 184.5s-23 129 -23 175c0 20.667 8.16699 38.834 24.5 54.501s38.166 23.5 65.499 23.5c39.333 0 67.166 -3.83301 83.499 -11.5s42.333 -12.667 78 -15s72.167 -3.5 109.5 -3.5
c14 0.666992 26.333 1.16699 37 1.5s24 0.5 40 0.5h609c16 0 29.5 -0.166992 40.5 -0.5s23.5 -0.833008 37.5 -1.5c36.667 0 72.667 1.33301 108 4c36.667 2 63.167 6.83301 79.5 14.5s43.833 11.5 82.5 11.5c27.333 0 49.166 -7.83301 65.499 -23.5
s24.5 -33.834 24.5 -54.501c0 -46 -7.66699 -104.333 -23 -175s-35.166 -132.167 -59.499 -184.5s-49.5 -78.5 -75.5 -78.5c-16 0 -28.333 5.66699 -37 17s-17.667 35.333 -27 72s-18.666 71.334 -27.999 104.001c-16.667 61.333 -36.5 107.333 -59.5 138
s-48.167 50.167 -75.5 58.5s-64.333 12.5 -111 12.5h-88v-1262h170v-86h-657v86h170z" />
    <glyph glyph-name="afii10036" unicode="&#x422;" 
d="M635 86l0.00292969 1262h-88c-9.33301 0.666992 -17.833 1.16699 -25.5 1.5s-17.5 0.5 -29.5 0.5c-41.333 0 -76.833 -13.333 -106.5 -40s-57.834 -83.667 -84.501 -171c-4.66699 -16.667 -12.334 -46.334 -23.001 -89.001s-20.334 -70.667 -29.001 -84s-22 -20 -40 -20
c-26 0 -51.167 26.167 -75.5 78.5s-44.166 113.833 -59.499 184.5s-23 129 -23 175c0 20.667 8.16699 38.834 24.5 54.501s38.166 23.5 65.499 23.5c39.333 0 67.166 -3.83301 83.499 -11.5s42.333 -12.667 78 -15s72.167 -3.5 109.5 -3.5
c14 0.666992 26.333 1.16699 37 1.5s24 0.5 40 0.5h609c16 0 29.5 -0.166992 40.5 -0.5s23.5 -0.833008 37.5 -1.5c36.667 0 72.667 1.33301 108 4c36.667 2 63.167 6.83301 79.5 14.5s43.833 11.5 82.5 11.5c27.333 0 49.166 -7.83301 65.499 -23.5
s24.5 -33.834 24.5 -54.501c0 -46 -7.66699 -104.333 -23 -175s-35.166 -132.167 -59.499 -184.5s-49.5 -78.5 -75.5 -78.5c-16 0 -28.333 5.66699 -37 17s-17.667 35.333 -27 72s-18.666 71.334 -27.999 104.001c-16.667 61.333 -36.5 107.333 -59.5 138
s-48.167 50.167 -75.5 58.5s-64.333 12.5 -111 12.5h-88v-1262h170v-86h-657v86h170z" />
    <glyph glyph-name="afii10037" unicode="&#xd3;" horiz-adv-x="1401" 
d="M877 0l-107.003 -0.000976562c-5.33301 -52 -8.66602 -104.667 -9.99902 -158v-92c1.33301 -71.333 6.33301 -129 15 -173s13 -65.333 13 -64c0 -6 -1.33301 -14.333 -4 -25l-190 -14c0 45.333 1.33301 92 4 140s5.83398 89.833 9.50098 125.5s7 65.167 10 88.5l21.5 172
h-186l-326 1348h-84v86h551v-86h-141l256 -1092c41.333 194.667 77.666 356.5 108.999 485.5s57.166 230.167 77.499 303.5s34.5 121 42.5 143c28.667 86 61.834 153.167 99.501 201.5s92.5 72.5 164.5 72.5c30.667 0 65.167 -5.5 103.5 -16.5s62.5 -24.5 72.5 -40.5
c-3.33301 -27.333 -9.16602 -49.833 -17.499 -67.5s-14.666 -38.667 -18.999 -63s-6.5 -74.5 -6.5 -150.5h-30l-47 25c-13.333 7.33301 -26.333 13.333 -39 18s-24.334 7 -35.001 7c-60.667 0 -106.167 -27.167 -136.5 -81.5s-59.166 -131.166 -86.499 -230.499
c-54.667 -198 -89.667 -327.667 -105 -389s-25.333 -105.5 -30 -132.5l-16 -94c-6 -35.667 -18 -89.167 -36 -160.5h103v-86z" />
    <glyph glyph-name="afii10037" unicode="&#x423;" horiz-adv-x="1401" 
d="M877 0l-107.003 -0.000976562c-5.33301 -52 -8.66602 -104.667 -9.99902 -158v-92c1.33301 -71.333 6.33301 -129 15 -173s13 -65.333 13 -64c0 -6 -1.33301 -14.333 -4 -25l-190 -14c0 45.333 1.33301 92 4 140s5.83398 89.833 9.50098 125.5s7 65.167 10 88.5l21.5 172
h-186l-326 1348h-84v86h551v-86h-141l256 -1092c41.333 194.667 77.666 356.5 108.999 485.5s57.166 230.167 77.499 303.5s34.5 121 42.5 143c28.667 86 61.834 153.167 99.501 201.5s92.5 72.5 164.5 72.5c30.667 0 65.167 -5.5 103.5 -16.5s62.5 -24.5 72.5 -40.5
c-3.33301 -27.333 -9.16602 -49.833 -17.499 -67.5s-14.666 -38.667 -18.999 -63s-6.5 -74.5 -6.5 -150.5h-30l-47 25c-13.333 7.33301 -26.333 13.333 -39 18s-24.334 7 -35.001 7c-60.667 0 -106.167 -27.167 -136.5 -81.5s-59.166 -131.166 -86.499 -230.499
c-54.667 -198 -89.667 -327.667 -105 -389s-25.333 -105.5 -30 -132.5l-16 -94c-6 -35.667 -18 -89.167 -36 -160.5h103v-86z" />
    <glyph glyph-name="afii10038" unicode="&#xd4;" horiz-adv-x="1919" 
d="M1278 0l-636.997 -0.00390625v86h170v182l-112.5 -32c-27.667 -8 -53.5 -13.833 -77.5 -17.5s-55 -5.5 -93 -5.5c-79.333 0 -153.333 16.5 -222 49.5s-122.834 77.667 -162.501 134s-59.5 118.166 -59.5 185.499c0 79.333 20.333 149.666 61 210.999
s89.667 114.833 147 160.5s143.666 107.5 258.999 185.5s202 140.667 260 188v21h-172v86h641v-86h-172v-21c58 -47.333 145.667 -110.666 263 -189.999s203.833 -141.166 259.5 -185.499s103.667 -97.166 144 -158.499s60.5 -131.666 60.5 -210.999
c0 -67.333 -19.833 -129.166 -59.5 -185.499s-93.834 -101 -162.501 -134s-142.667 -49.5 -222 -49.5c-32 0 -56.167 1 -72.5 3s-34.833 5.33301 -55.5 10s-45.5 11.334 -74.5 20.001s-55.833 16 -80.5 22v-182h170v-86zM1108 1227l-0.000976562 -886.999
c28 -6.66699 60 -10 96 -10c68 0 123.833 18.833 167.5 56.5s75.167 83.5 94.5 137.5s29 105.333 29 154c0 70 -17.667 136.167 -53 198.5s-77.666 117.666 -126.999 165.999s-118.333 109.833 -207 184.5zM811.002 1227
c-88.667 -74.667 -157.669 -136.168 -207.002 -184.501s-91.666 -103.666 -126.999 -165.999s-53 -128.5 -53 -198.5c0 -82 23.833 -160.5 71.5 -235.5s120.834 -112.5 219.501 -112.5c36 0 68 3.33301 96 10v887z" />
    <glyph glyph-name="afii10038" unicode="&#x424;" horiz-adv-x="1919" 
d="M1278 0l-636.997 -0.00390625v86h170v182l-112.5 -32c-27.667 -8 -53.5 -13.833 -77.5 -17.5s-55 -5.5 -93 -5.5c-79.333 0 -153.333 16.5 -222 49.5s-122.834 77.667 -162.501 134s-59.5 118.166 -59.5 185.499c0 79.333 20.333 149.666 61 210.999
s89.667 114.833 147 160.5s143.666 107.5 258.999 185.5s202 140.667 260 188v21h-172v86h641v-86h-172v-21c58 -47.333 145.667 -110.666 263 -189.999s203.833 -141.166 259.5 -185.499s103.667 -97.166 144 -158.499s60.5 -131.666 60.5 -210.999
c0 -67.333 -19.833 -129.166 -59.5 -185.499s-93.834 -101 -162.501 -134s-142.667 -49.5 -222 -49.5c-32 0 -56.167 1 -72.5 3s-34.833 5.33301 -55.5 10s-45.5 11.334 -74.5 20.001s-55.833 16 -80.5 22v-182h170v-86zM1108 1227l-0.000976562 -886.999
c28 -6.66699 60 -10 96 -10c68 0 123.833 18.833 167.5 56.5s75.167 83.5 94.5 137.5s29 105.333 29 154c0 70 -17.667 136.167 -53 198.5s-77.666 117.666 -126.999 165.999s-118.333 109.833 -207 184.5zM811.002 1227
c-88.667 -74.667 -157.669 -136.168 -207.002 -184.501s-91.666 -103.666 -126.999 -165.999s-53 -128.5 -53 -198.5c0 -82 23.833 -160.5 71.5 -235.5s120.834 -112.5 219.501 -112.5c36 0 68 3.33301 96 10v887z" />
    <glyph glyph-name="afii10039" unicode="&#xd5;" horiz-adv-x="1475" 
d="M520 1348l215 -349.001c41.333 109.333 78.833 196 112.5 260s76.5 113.833 128.5 149.5s118.667 53.5 200 53.5c40 0 83.333 -6.83301 130 -20.5s70 -27.834 70 -42.501c0 -16 -8.83301 -39.167 -26.5 -69.5s-30.334 -53.166 -38.001 -68.499
s-11.5 -37.666 -11.5 -66.999c0 -24.667 -2 -47.334 -6 -68.001h-59c-42.667 30.667 -74.167 50 -94.5 58s-44.166 12 -71.499 12c-50.667 0 -94.834 -20 -132.501 -60s-81.5 -122.333 -131.5 -247l467 -803h174v-86h-731v86h194l-317 541l-119 -228
c-61.333 -116 -92 -204.667 -92 -266c0 -18 8.83301 -30.333 26.5 -37s40.167 -10 67.5 -10h51v-86h-497v86c54 0 100.333 11.5 139 34.5s71.334 53.333 98.001 91s50.5 79.334 71.5 125.001l65.5 144.5l123 254l-358 613h-135v86h639v-86h-152z" />
    <glyph glyph-name="afii10039" unicode="&#x425;" horiz-adv-x="1475" 
d="M520 1348l215 -349.001c41.333 109.333 78.833 196 112.5 260s76.5 113.833 128.5 149.5s118.667 53.5 200 53.5c40 0 83.333 -6.83301 130 -20.5s70 -27.834 70 -42.501c0 -16 -8.83301 -39.167 -26.5 -69.5s-30.334 -53.166 -38.001 -68.499
s-11.5 -37.666 -11.5 -66.999c0 -24.667 -2 -47.334 -6 -68.001h-59c-42.667 30.667 -74.167 50 -94.5 58s-44.166 12 -71.499 12c-50.667 0 -94.834 -20 -132.501 -60s-81.5 -122.333 -131.5 -247l467 -803h174v-86h-731v86h194l-317 541l-119 -228
c-61.333 -116 -92 -204.667 -92 -266c0 -18 8.83301 -30.333 26.5 -37s40.167 -10 67.5 -10h51v-86h-497v86c54 0 100.333 11.5 139 34.5s71.334 53.333 98.001 91s50.5 79.334 71.5 125.001l65.5 144.5l123 254l-358 613h-135v86h639v-86h-152z" />
    <glyph glyph-name="afii10040" unicode="&#xd6;" horiz-adv-x="1690" 
d="M1499 1434l-0.000976562 -86.0039h-170v-1262h70c38 0 76.833 3 116.5 9s66.167 9 79.5 9c22 0 43.333 -8.33301 64 -25s31 -45 31 -85c0 -43.333 -7.83301 -104.666 -23.5 -183.999s-35.834 -148.666 -60.501 -207.999s-50.667 -89 -78 -89c-18 0 -31.667 7 -41 21
s-19.166 43.167 -29.499 87.5s-18.166 76.833 -23.499 97.5c-22 78.667 -42 136.334 -60 173.001s-44 63.834 -78 81.501s-82.333 26.5 -145 26.5h-1071v86h170v1262h-170v86h629v-86h-142v-1262h445v1262h-142v86h629z" />
    <glyph glyph-name="afii10040" unicode="&#x426;" horiz-adv-x="1690" 
d="M1499 1434l-0.000976562 -86.0039h-170v-1262h70c38 0 76.833 3 116.5 9s66.167 9 79.5 9c22 0 43.333 -8.33301 64 -25s31 -45 31 -85c0 -43.333 -7.83301 -104.666 -23.5 -183.999s-35.834 -148.666 -60.501 -207.999s-50.667 -89 -78 -89c-18 0 -31.667 7 -41 21
s-19.166 43.167 -29.499 87.5s-18.166 76.833 -23.499 97.5c-22 78.667 -42 136.334 -60 173.001s-44 63.834 -78 81.501s-82.333 26.5 -145 26.5h-1071v86h170v1262h-170v86h629v-86h-142v-1262h445v1262h-142v86h629z" />
    <glyph glyph-name="afii10041" unicode="&#xd7;" 
d="M1020 86l-0.000976562 547c-124 1.33301 -233.833 9.66602 -329.5 24.999s-178.5 45.333 -248.5 90c-56.667 36.667 -102.334 84.334 -137.001 143.001s-59.5 124.667 -74.5 198s-24.167 159.666 -27.5 258.999h-123v86h614v-86h-137c-1.33301 -22 -2 -53.667 -2 -95
c0 -85.333 7.83301 -161.666 23.5 -228.999s39.834 -124 72.501 -170s74 -80.667 124 -104s109 -35 177 -35c14.667 0 37.334 1.33301 68.001 4v629h-127v86h614v-86h-170v-1262h170v-86h-628v86h141z" />
    <glyph glyph-name="afii10041" unicode="&#x427;" 
d="M1020 86l-0.000976562 547c-124 1.33301 -233.833 9.66602 -329.5 24.999s-178.5 45.333 -248.5 90c-56.667 36.667 -102.334 84.334 -137.001 143.001s-59.5 124.667 -74.5 198s-24.167 159.666 -27.5 258.999h-123v86h614v-86h-137c-1.33301 -22 -2 -53.667 -2 -95
c0 -85.333 7.83301 -161.666 23.5 -228.999s39.834 -124 72.501 -170s74 -80.667 124 -104s109 -35 177 -35c14.667 0 37.334 1.33301 68.001 4v629h-127v86h614v-86h-170v-1262h170v-86h-628v86h141z" />
    <glyph glyph-name="afii10042" unicode="&#xd8;" horiz-adv-x="2267" 
d="M561 86h414v1262h-141v86h600v-86h-142v-1262h414v1262h-141v86h628v-86h-170v-1262h170v-86h-2119v86h170v1262h-170v86h628v-86h-141v-1262z" />
    <glyph glyph-name="afii10042" unicode="&#x428;" horiz-adv-x="2267" 
d="M561 86h414v1262h-141v86h600v-86h-142v-1262h414v1262h-141v86h628v-86h-170v-1262h170v-86h-2119v86h170v1262h-170v86h628v-86h-141v-1262z" />
    <glyph glyph-name="afii10043" unicode="&#xd9;" horiz-adv-x="2382" 
d="M567 86l414 0.000976562v1262h-141v86h600v-86h-142v-1262h414v1262h-141v86h629v-86h-170v-1262h69c28.667 0 61.834 3 99.5 9c37.667 6 63.834 9 78.5 9c22 0 43.333 -8.33301 64 -25s31 -45 31 -85c0 -36 -4.5 -81.333 -13.5 -136s-20.5 -107.334 -34.5 -158.001
s-31.167 -94.5 -51.5 -131.5s-41.166 -55.5 -62.5 -55.5c-10.667 0 -19.334 2.66699 -26 8c-6.66699 5.33301 -13.834 16.833 -21.5 34.5c-7.66699 17.667 -15 39.167 -22 64.5l-26.5 95c-25.333 98 -57 170 -95 216s-105.333 69 -202 69h-1737v86h170v1262h-170v86h629v-86
h-142v-1262z" />
    <glyph glyph-name="afii10043" unicode="&#x429;" horiz-adv-x="2382" 
d="M567 86l414 0.000976562v1262h-141v86h600v-86h-142v-1262h414v1262h-141v86h629v-86h-170v-1262h69c28.667 0 61.834 3 99.5 9c37.667 6 63.834 9 78.5 9c22 0 43.333 -8.33301 64 -25s31 -45 31 -85c0 -36 -4.5 -81.333 -13.5 -136s-20.5 -107.334 -34.5 -158.001
s-31.167 -94.5 -51.5 -131.5s-41.166 -55.5 -62.5 -55.5c-10.667 0 -19.334 2.66699 -26 8c-6.66699 5.33301 -13.834 16.833 -21.5 34.5c-7.66699 17.667 -15 39.167 -22 64.5l-26.5 95c-25.333 98 -57 170 -95 216s-105.333 69 -202 69h-1737v86h170v1262h-170v86h629v-86
h-142v-1262z" />
    <glyph glyph-name="afii10044" unicode="&#xda;" horiz-adv-x="1698" 
d="M1133 1434l0.000976562 -86h-170v-506c28 -24 59.5 -45.667 94.5 -65s72.833 -36.333 113.5 -51s81.5 -26 122.5 -34s79.5 -12 115.5 -12c9.33301 0 23.333 0.666992 42 2s32.667 2 42 2c45.333 0 77.5 -7.83301 96.5 -23.5s28.5 -52.167 28.5 -109.5v-408
c0 -60.667 -9.5 -99.667 -28.5 -117s-50.5 -26 -94.5 -26h-1020v86h170v1262h-135c-54.667 0 -103.667 -13.833 -147 -41.5s-80.333 -86.5 -111 -176.5c-2.66699 -8 -8.5 -27.833 -17.5 -59.5s-17.833 -52.834 -26.5 -63.501s-21.334 -16 -38.001 -16
c-12.667 0 -29.167 7.5 -49.5 22.5s-40 51.333 -59 109s-28.5 142.834 -28.5 255.501c0 22 5.83301 41.167 17.5 57.5s28.167 24.5 49.5 24.5c4.66699 0 9.5 -0.5 14.5 -1.5s11.667 -2.5 20 -4.5l25.5 -6c46 -9.33301 83.333 -14 112 -14h861zM963.001 86l184 -0.00195312
c47.333 0 84.666 7 111.999 21s41 45.333 41 94v243c0 50 -3 84 -9 102s-20.667 32 -44 42c-15.333 6.66699 -37.5 14.834 -66.5 24.501s-53.5 18.834 -73.5 27.501s-42.167 20 -66.5 34s-50.166 32.333 -77.499 55v-643z" />
    <glyph glyph-name="afii10044" unicode="&#x42a;" horiz-adv-x="1698" 
d="M1133 1434l0.000976562 -86h-170v-506c28 -24 59.5 -45.667 94.5 -65s72.833 -36.333 113.5 -51s81.5 -26 122.5 -34s79.5 -12 115.5 -12c9.33301 0 23.333 0.666992 42 2s32.667 2 42 2c45.333 0 77.5 -7.83301 96.5 -23.5s28.5 -52.167 28.5 -109.5v-408
c0 -60.667 -9.5 -99.667 -28.5 -117s-50.5 -26 -94.5 -26h-1020v86h170v1262h-135c-54.667 0 -103.667 -13.833 -147 -41.5s-80.333 -86.5 -111 -176.5c-2.66699 -8 -8.5 -27.833 -17.5 -59.5s-17.833 -52.834 -26.5 -63.501s-21.334 -16 -38.001 -16
c-12.667 0 -29.167 7.5 -49.5 22.5s-40 51.333 -59 109s-28.5 142.834 -28.5 255.501c0 22 5.83301 41.167 17.5 57.5s28.167 24.5 49.5 24.5c4.66699 0 9.5 -0.5 14.5 -1.5s11.667 -2.5 20 -4.5l25.5 -6c46 -9.33301 83.333 -14 112 -14h861zM963.001 86l184 -0.00195312
c47.333 0 84.666 7 111.999 21s41 45.333 41 94v243c0 50 -3 84 -9 102s-20.667 32 -44 42c-15.333 6.66699 -37.5 14.834 -66.5 24.501s-53.5 18.834 -73.5 27.501s-42.167 20 -66.5 34s-50.166 32.333 -77.499 55v-643z" />
    <glyph glyph-name="afii10045" unicode="&#xdb;" horiz-adv-x="2040" 
d="M737 1434v-86h-170v-506c54 -50 125.833 -90.833 215.5 -122.5s166.167 -47.5 229.5 -47.5c9.33301 0 23.333 0.666992 42 2s32.667 2 42 2c44 0 76.167 -7 96.5 -21s30.5 -51.333 30.5 -112v-400c0 -60.667 -9 -99.667 -27 -117s-50.667 -26 -98 -26h-1018v86h170v1262
h-170v86h657zM1473 86v1262h-170v86h657v-86h-170v-1262h170v-86h-657v86h170zM567 86l185.001 -0.00292969c47.333 0 84.666 6.83301 111.999 20.5s41 45.167 41 94.5v243c0 50 -3 84 -9 102s-20.667 32 -44 42c-15.333 6.66699 -37.5 14.834 -66.5 24.501
s-53.5 18.834 -73.5 27.501s-42 19.834 -66 33.501s-50.333 32.167 -79 55.5v-643z" />
    <glyph glyph-name="afii10045" unicode="&#x42b;" horiz-adv-x="2040" 
d="M737 1434v-86h-170v-506c54 -50 125.833 -90.833 215.5 -122.5s166.167 -47.5 229.5 -47.5c9.33301 0 23.333 0.666992 42 2s32.667 2 42 2c44 0 76.167 -7 96.5 -21s30.5 -51.333 30.5 -112v-400c0 -60.667 -9 -99.667 -27 -117s-50.667 -26 -98 -26h-1018v86h170v1262
h-170v86h657zM1473 86v1262h-170v86h657v-86h-170v-1262h170v-86h-657v86h170zM567 86l185.001 -0.00292969c47.333 0 84.666 6.83301 111.999 20.5s41 45.167 41 94.5v243c0 50 -3 84 -9 102s-20.667 32 -44 42c-15.333 6.66699 -37.5 14.834 -66.5 24.501
s-53.5 18.834 -73.5 27.501s-42 19.834 -66 33.501s-50.333 32.167 -79 55.5v-643z" />
    <glyph glyph-name="afii10046" unicode="&#xdc;" horiz-adv-x="1303" 
d="M737 1434v-86h-170v-506c54 -50 125.833 -90.833 215.5 -122.5s166.167 -47.5 229.5 -47.5c9.33301 0 23.333 0.666992 42 2s32.667 2 42 2c44 0 76.167 -7 96.5 -21s30.5 -51.333 30.5 -112v-400c0 -60.667 -9 -99.667 -27 -117s-50.667 -26 -98 -26h-1018v86h170v1262
h-170v86h657zM567 86l185.001 -0.00292969c47.333 0 84.666 6.83301 111.999 20.5s41 45.167 41 94.5v243c0 50 -3 84 -9 102s-20.667 32 -44 42c-15.333 6.66699 -37.5 14.834 -66.5 24.501s-53.5 18.834 -73.5 27.501s-42 19.834 -66 33.501s-50.333 32.167 -79 55.5v-643
z" />
    <glyph glyph-name="afii10046" unicode="&#x42c;" horiz-adv-x="1303" 
d="M737 1434v-86h-170v-506c54 -50 125.833 -90.833 215.5 -122.5s166.167 -47.5 229.5 -47.5c9.33301 0 23.333 0.666992 42 2s32.667 2 42 2c44 0 76.167 -7 96.5 -21s30.5 -51.333 30.5 -112v-400c0 -60.667 -9 -99.667 -27 -117s-50.667 -26 -98 -26h-1018v86h170v1262
h-170v86h657zM567 86l185.001 -0.00292969c47.333 0 84.666 6.83301 111.999 20.5s41 45.167 41 94.5v243c0 50 -3 84 -9 102s-20.667 32 -44 42c-15.333 6.66699 -37.5 14.834 -66.5 24.501s-53.5 18.834 -73.5 27.501s-42 19.834 -66 33.501s-50.333 32.167 -79 55.5v-643
z" />
    <glyph glyph-name="afii10047" unicode="&#xdd;" horiz-adv-x="1495" 
d="M29 1055l-0.00390625 86.0029h98c23.333 60.667 56.333 112.167 99 154.5s90.667 75.666 144 99.999s107.333 41.5 162 51.5s108.667 15 162 15c85.333 0 168.666 -10.333 249.999 -31s157.5 -58.167 228.5 -112.5s128.167 -131 171.5 -230s65 -223.5 65 -373.5
c0 -161.333 -21.5 -294 -64.5 -398s-99.167 -183.833 -168.5 -239.5s-140.166 -93 -212.499 -112s-145.166 -28.5 -218.499 -28.5c-21.333 0 -51.333 4 -90 12c-26.667 6.66699 -53.167 14.667 -79.5 24l-64.5 23.5c-16.667 6.33301 -34 12.333 -52 18s-33 8.5 -45 8.5
c-32.667 0 -54.167 -12 -64.5 -36s-15.5 -54.333 -15.5 -91c0 -26 2 -50 6 -72v-21c-3.33301 -6.66699 -8 -10 -14 -10c-10 0 -18.5 0.5 -25.5 1.5s-20.167 2.66699 -39.5 5s-40.666 3.5 -63.999 3.5c-20 0 -38.667 -4.66699 -56 -14s-28 -14 -32 -14
c-16.667 0 -31.167 12.833 -43.5 38.5s-18.5 59.834 -18.5 102.501c0 79.333 22.5 141.833 67.5 187.5s93.5 68.5 145.5 68.5c18.667 0 37 -3 55 -9s45.333 -17 82 -33l84 -36c70 -27.333 122 -41 156 -41c69.333 0 135.333 18 198 54s114.334 94.167 155.001 174.5
s61 183.166 61 308.499c0 10 -0.166992 18.333 -0.5 25s-0.833008 14 -1.5 22c-36 -22.667 -66.167 -40.334 -90.5 -53.001s-49.5 -19 -75.5 -19c-9.33301 0 -23.333 -0.666992 -42 -2s-32 -2 -40 -2c-18 0 -35 2 -51 6c-30 7.33301 -62.167 18.666 -96.5 33.999
s-61.5 26.166 -81.5 32.499s-46.667 9.5 -80 9.5s-69.333 -7.5 -108 -22.5s-73.667 -32.167 -105 -51.5l-48 62c59.333 80.667 112.833 139 160.5 175s106.834 54 177.501 54c46.667 0 85.5 -4.66699 116.5 -14s63.167 -24.333 96.5 -45
c93.333 -54.667 165.666 -82 216.999 -82c11.333 0 28 9.66699 50 29c0.666992 12 1.16699 22.833 1.5 32.5s0.5 21.834 0.5 36.501c0 205.333 -32 349.833 -96 433.5s-144 125.5 -240 125.5c-56 0 -101.667 -13.5 -137 -40.5s-60.666 -58.5 -75.999 -94.5
s-25 -69.333 -29 -100h64v-86h-508z" />
    <glyph glyph-name="afii10047" unicode="&#x42d;" horiz-adv-x="1495" 
d="M29 1055l-0.00390625 86.0029h98c23.333 60.667 56.333 112.167 99 154.5s90.667 75.666 144 99.999s107.333 41.5 162 51.5s108.667 15 162 15c85.333 0 168.666 -10.333 249.999 -31s157.5 -58.167 228.5 -112.5s128.167 -131 171.5 -230s65 -223.5 65 -373.5
c0 -161.333 -21.5 -294 -64.5 -398s-99.167 -183.833 -168.5 -239.5s-140.166 -93 -212.499 -112s-145.166 -28.5 -218.499 -28.5c-21.333 0 -51.333 4 -90 12c-26.667 6.66699 -53.167 14.667 -79.5 24l-64.5 23.5c-16.667 6.33301 -34 12.333 -52 18s-33 8.5 -45 8.5
c-32.667 0 -54.167 -12 -64.5 -36s-15.5 -54.333 -15.5 -91c0 -26 2 -50 6 -72v-21c-3.33301 -6.66699 -8 -10 -14 -10c-10 0 -18.5 0.5 -25.5 1.5s-20.167 2.66699 -39.5 5s-40.666 3.5 -63.999 3.5c-20 0 -38.667 -4.66699 -56 -14s-28 -14 -32 -14
c-16.667 0 -31.167 12.833 -43.5 38.5s-18.5 59.834 -18.5 102.501c0 79.333 22.5 141.833 67.5 187.5s93.5 68.5 145.5 68.5c18.667 0 37 -3 55 -9s45.333 -17 82 -33l84 -36c70 -27.333 122 -41 156 -41c69.333 0 135.333 18 198 54s114.334 94.167 155.001 174.5
s61 183.166 61 308.499c0 10 -0.166992 18.333 -0.5 25s-0.833008 14 -1.5 22c-36 -22.667 -66.167 -40.334 -90.5 -53.001s-49.5 -19 -75.5 -19c-9.33301 0 -23.333 -0.666992 -42 -2s-32 -2 -40 -2c-18 0 -35 2 -51 6c-30 7.33301 -62.167 18.666 -96.5 33.999
s-61.5 26.166 -81.5 32.499s-46.667 9.5 -80 9.5s-69.333 -7.5 -108 -22.5s-73.667 -32.167 -105 -51.5l-48 62c59.333 80.667 112.833 139 160.5 175s106.834 54 177.501 54c46.667 0 85.5 -4.66699 116.5 -14s63.167 -24.333 96.5 -45
c93.333 -54.667 165.666 -82 216.999 -82c11.333 0 28 9.66699 50 29c0.666992 12 1.16699 22.833 1.5 32.5s0.5 21.834 0.5 36.501c0 205.333 -32 349.833 -96 433.5s-144 125.5 -240 125.5c-56 0 -101.667 -13.5 -137 -40.5s-60.666 -58.5 -75.999 -94.5
s-25 -69.333 -29 -100h64v-86h-508z" />
    <glyph glyph-name="afii10048" unicode="&#xde;" horiz-adv-x="2044" 
d="M565 819l275.001 0.00292969c10 64.667 41.5 144.167 94.5 238.5s149.833 197.166 290.5 308.499c11.333 8.66699 31.333 26.167 60 52.5s51.5 44.666 68.5 54.999s34.167 15.5 51.5 15.5c34 0 82.167 -23.833 144.5 -71.5s124.833 -108.834 187.5 -183.501
s115.5 -157.334 158.5 -248.001s64.5 -177 64.5 -259c0 -88 -14.333 -165 -43 -231s-67 -125.667 -115 -179s-127 -133.666 -237 -240.999c-55.333 -54.667 -93.333 -90.167 -114 -106.5s-39.334 -24.5 -56.001 -24.5c-15.333 0 -35.333 9.16699 -60 27.5
s-80 63.833 -166 136.5l-138.5 123.5c-31 29 -63 65.667 -96 110s-59.833 94.5 -80.5 150.5s-31 117 -31 183c0 24.667 0.666992 43.667 2 57h-260v-647h170v-86h-657v86h170v1262h-170v86h657v-86h-170v-529zM1270 1219c-70 -8.66699 -128.834 -42.8301 -176.501 -102.497
s-71.5 -125.834 -71.5 -198.501c0 -67.333 16 -122 48 -164s84.667 -93.667 158 -155s132.5 -120.333 177.5 -177s76.833 -129 95.5 -217c64.667 29.333 120.667 69.166 168 119.499s75.333 106.166 84 167.499v69c-8 52.667 -28.167 98.667 -60.5 138
s-83.333 90.5 -153 153.5s-125.667 120.667 -168 173s-76.166 116.833 -101.499 193.5z" />
    <glyph glyph-name="afii10048" unicode="&#x42e;" horiz-adv-x="2044" 
d="M565 819l275.001 0.00292969c10 64.667 41.5 144.167 94.5 238.5s149.833 197.166 290.5 308.499c11.333 8.66699 31.333 26.167 60 52.5s51.5 44.666 68.5 54.999s34.167 15.5 51.5 15.5c34 0 82.167 -23.833 144.5 -71.5s124.833 -108.834 187.5 -183.501
s115.5 -157.334 158.5 -248.001s64.5 -177 64.5 -259c0 -88 -14.333 -165 -43 -231s-67 -125.667 -115 -179s-127 -133.666 -237 -240.999c-55.333 -54.667 -93.333 -90.167 -114 -106.5s-39.334 -24.5 -56.001 -24.5c-15.333 0 -35.333 9.16699 -60 27.5
s-80 63.833 -166 136.5l-138.5 123.5c-31 29 -63 65.667 -96 110s-59.833 94.5 -80.5 150.5s-31 117 -31 183c0 24.667 0.666992 43.667 2 57h-260v-647h170v-86h-657v86h170v1262h-170v86h657v-86h-170v-529zM1270 1219c-70 -8.66699 -128.834 -42.8301 -176.501 -102.497
s-71.5 -125.834 -71.5 -198.501c0 -67.333 16 -122 48 -164s84.667 -93.667 158 -155s132.5 -120.333 177.5 -177s76.833 -129 95.5 -217c64.667 29.333 120.667 69.166 168 119.499s75.333 106.166 84 167.499v69c-8 52.667 -28.167 98.667 -60.5 138
s-83.333 90.5 -153 153.5s-125.667 120.667 -168 173s-76.166 116.833 -101.499 193.5z" />
    <glyph glyph-name="afii10049" unicode="&#xdf;" horiz-adv-x="1475" 
d="M1395 1434l0.000976562 -86h-170v-1262h170v-86h-588v86h100v627c-47.333 0 -94.666 -8 -141.999 -24s-92.833 -45.5 -136.5 -88.5s-78.834 -103 -105.501 -180s-40 -173.5 -40 -289.5v-45h80v-86h-528v86h94c4.66699 138.667 35.667 255.834 93 351.501
s133.666 168.167 228.999 217.5s201 76.666 317 81.999v31c-132 16.667 -244.667 49 -338 97s-162 105.5 -206 172.5s-66 137.5 -66 211.5c0 56 11.667 97.333 35 124s55.833 43.5 97.5 50.5s102.5 10.5 182.5 10.5h922zM907.001 864v484h-233
c-104 0 -156 -41.667 -156 -125c0 -54 15.167 -108.5 45.5 -163.5s75.333 -101.167 135 -138.5s129.167 -56.333 208.5 -57z" />
    <glyph glyph-name="afii10049" unicode="&#x42f;" horiz-adv-x="1475" 
d="M1395 1434l0.000976562 -86h-170v-1262h170v-86h-588v86h100v627c-47.333 0 -94.666 -8 -141.999 -24s-92.833 -45.5 -136.5 -88.5s-78.834 -103 -105.501 -180s-40 -173.5 -40 -289.5v-45h80v-86h-528v86h94c4.66699 138.667 35.667 255.834 93 351.501
s133.666 168.167 228.999 217.5s201 76.666 317 81.999v31c-132 16.667 -244.667 49 -338 97s-162 105.5 -206 172.5s-66 137.5 -66 211.5c0 56 11.667 97.333 35 124s55.833 43.5 97.5 50.5s102.5 10.5 182.5 10.5h922zM907.001 864v484h-233
c-104 0 -156 -41.667 -156 -125c0 -54 15.167 -108.5 45.5 -163.5s75.333 -101.167 135 -138.5s129.167 -56.333 208.5 -57z" />
    <glyph glyph-name="afii10065" unicode="&#xe0;" horiz-adv-x="1020" 
d="M481 952l208.999 -0.000976562c15.333 0 23.666 -4 24.999 -12c0 -2 1.5 -14.833 4.5 -38.5s6.16699 -42.834 9.5 -57.501c30 -125.333 59.333 -235.333 88 -330c3.33301 -12.667 20 -69.167 50 -169.5s51 -167.5 63 -201.5c10 -33.333 20 -61.5 30 -84.5
s15 -36.5 15 -40.5c0 -12 -13.667 -18 -41 -18h-209c-9.33301 0 -15.666 5 -18.999 15s-12.5 45.333 -27.5 106s-32.833 123.334 -53.5 188.001c-69.333 -221.333 -177.333 -332 -324 -332c-82 0 -139 29.333 -171 88s-48 118.334 -48 179.001c0 57.333 20.5 118 61.5 182
s92.833 132.333 155.5 205l94.5 105c27.667 29.333 45.834 49.333 54.501 60s13 21.667 13 33c0 18.667 -3.5 39.167 -10.5 61.5s-10.5 38.833 -10.5 49.5c0 8 13.667 12 41 12zM497.999 749.999c-54.667 -59.333 -97.167 -114.168 -127.5 -164.501
s-50.833 -92.5 -61.5 -126.5s-16 -62 -16 -84c0 -37.333 10.333 -69.833 31 -97.5s50.667 -41.5 90 -41.5c34.667 0 65.167 8.5 91.5 25.5s46.666 38.167 60.999 63.5s21.5 50.666 21.5 75.999c0 13.333 -5.16699 42.333 -15.5 87s-23.166 93.334 -38.499 146.001
s-27.333 91.334 -36 116.001z" />
    <glyph glyph-name="afii10065" unicode="&#x430;" horiz-adv-x="1020" 
d="M481 952l208.999 -0.000976562c15.333 0 23.666 -4 24.999 -12c0 -2 1.5 -14.833 4.5 -38.5s6.16699 -42.834 9.5 -57.501c30 -125.333 59.333 -235.333 88 -330c3.33301 -12.667 20 -69.167 50 -169.5s51 -167.5 63 -201.5c10 -33.333 20 -61.5 30 -84.5
s15 -36.5 15 -40.5c0 -12 -13.667 -18 -41 -18h-209c-9.33301 0 -15.666 5 -18.999 15s-12.5 45.333 -27.5 106s-32.833 123.334 -53.5 188.001c-69.333 -221.333 -177.333 -332 -324 -332c-82 0 -139 29.333 -171 88s-48 118.334 -48 179.001c0 57.333 20.5 118 61.5 182
s92.833 132.333 155.5 205l94.5 105c27.667 29.333 45.834 49.333 54.501 60s13 21.667 13 33c0 18.667 -3.5 39.167 -10.5 61.5s-10.5 38.833 -10.5 49.5c0 8 13.667 12 41 12zM497.999 749.999c-54.667 -59.333 -97.167 -114.168 -127.5 -164.501
s-50.833 -92.5 -61.5 -126.5s-16 -62 -16 -84c0 -37.333 10.333 -69.833 31 -97.5s50.667 -41.5 90 -41.5c34.667 0 65.167 8.5 91.5 25.5s46.666 38.167 60.999 63.5s21.5 50.666 21.5 75.999c0 13.333 -5.16699 42.333 -15.5 87s-23.166 93.334 -38.499 146.001
s-27.333 91.334 -36 116.001z" />
    <glyph glyph-name="afii10066" unicode="&#xe1;" horiz-adv-x="1077" 
d="M516 883l-129.005 -0.000976562c-2.66699 -23.333 -5.66699 -54.666 -9 -93.999s-6.33301 -86.333 -9 -141s-4 -95.334 -4 -122.001c63.333 -3.33301 121 -8.66602 173 -15.999s101.333 -19.5 148 -36.5s89 -40.5 127 -70.5
c52.667 -40.667 92.834 -91.334 120.501 -152.001s41.5 -118.334 41.5 -173.001c0 -32.667 -9 -53.834 -27 -63.501s-48 -14.5 -90 -14.5h-684c-28 0 -45.167 10 -51.5 30s-9.5 60 -9.5 120c0 176.667 2.33301 323 7 439s10.834 200 18.501 252s15.834 83.5 24.501 94.5
s19.334 16.5 32.001 16.5h450c40 0 85.667 1.5 137 4.5s89.666 4.5 114.999 4.5c32.667 0 56.5 -3.16699 71.5 -9.5s22.5 -19.166 22.5 -38.499c0 -12 -3.16699 -25.5 -9.5 -40.5s-15 -33.333 -26 -55l-44.5 -91.5c-18.667 -39.333 -35.667 -78.666 -51 -117.999l-94 4
c2.66699 16.667 5.33398 46 8.00098 88v66c-6 52.667 -29.167 85.334 -69.5 98.001s-103.166 19 -188.499 19zM361.995 69.999l293.002 -0.000976562h35c2.66699 14.667 4 36.334 4 65.001c0 78 -16.333 139.333 -49 184s-73.334 75 -122.001 91s-101.334 24 -158.001 24
c-3.33301 -31.333 -5 -80.333 -5 -147v-117z" />
    <glyph glyph-name="afii10066" unicode="&#x431;" horiz-adv-x="1077" 
d="M516 883l-129.005 -0.000976562c-2.66699 -23.333 -5.66699 -54.666 -9 -93.999s-6.33301 -86.333 -9 -141s-4 -95.334 -4 -122.001c63.333 -3.33301 121 -8.66602 173 -15.999s101.333 -19.5 148 -36.5s89 -40.5 127 -70.5
c52.667 -40.667 92.834 -91.334 120.501 -152.001s41.5 -118.334 41.5 -173.001c0 -32.667 -9 -53.834 -27 -63.501s-48 -14.5 -90 -14.5h-684c-28 0 -45.167 10 -51.5 30s-9.5 60 -9.5 120c0 176.667 2.33301 323 7 439s10.834 200 18.501 252s15.834 83.5 24.501 94.5
s19.334 16.5 32.001 16.5h450c40 0 85.667 1.5 137 4.5s89.666 4.5 114.999 4.5c32.667 0 56.5 -3.16699 71.5 -9.5s22.5 -19.166 22.5 -38.499c0 -12 -3.16699 -25.5 -9.5 -40.5s-15 -33.333 -26 -55l-44.5 -91.5c-18.667 -39.333 -35.667 -78.666 -51 -117.999l-94 4
c2.66699 16.667 5.33398 46 8.00098 88v66c-6 52.667 -29.167 85.334 -69.5 98.001s-103.166 19 -188.499 19zM361.995 69.999l293.002 -0.000976562h35c2.66699 14.667 4 36.334 4 65.001c0 78 -16.333 139.333 -49 184s-73.334 75 -122.001 91s-101.334 24 -158.001 24
c-3.33301 -31.333 -5 -80.333 -5 -147v-117z" />
    <glyph glyph-name="afii10067" unicode="&#xe2;" horiz-adv-x="1079" 
d="M199 952l490.997 0.00488281c68.667 0 118.334 -6.5 149.001 -19.5s46 -45.167 46 -96.5c0 -54.667 -18 -101.334 -54 -140.001s-80.5 -69.834 -133.5 -93.501s-112.833 -45.5 -179.5 -65.5v-13c68.667 -16.667 139 -40.834 211 -72.501s133.333 -74 184 -127
s76 -115.5 76 -187.5c0 -61.333 -15.833 -99.5 -47.5 -114.5s-77.167 -22.5 -136.5 -22.5h-627c-20 0 -34.5 7.83301 -43.5 23.5s-14.833 47.667 -17.5 96s-4 125.833 -4 232.5c0 132 1 238.167 3 318.5s5.83301 140.666 11.5 180.999s13.834 67.166 24.501 80.499
s26.334 20 47.001 20zM364.997 575.005c72.667 0 132.666 23.333 179.999 70s71 98.667 71 156c0 33.333 -11.167 55.333 -33.5 66s-55.5 16 -99.5 16h-59c-10 0 -18.167 -0.166992 -24.5 -0.5s-13.166 -0.833008 -20.499 -1.5c-9.33301 -88.667 -14 -190.667 -14 -306z
M366.996 74.0049c3.33301 0 21 -0.668945 53 -2.00195s57.333 -2 76 -2c71.333 0 121.5 6.33301 150.5 19s43.5 46.334 43.5 101.001c0 44.667 -13.5 90.834 -40.5 138.501s-65.333 87.5 -115 119.5s-106.167 48 -169.5 48c0 -14.667 -0.833008 -41 -2.5 -79
s-2.5 -68.333 -2.5 -91c0 -32.667 2.33301 -116.667 7 -252z" />
    <glyph glyph-name="afii10067" unicode="&#x432;" horiz-adv-x="1079" 
d="M199 952l490.997 0.00488281c68.667 0 118.334 -6.5 149.001 -19.5s46 -45.167 46 -96.5c0 -54.667 -18 -101.334 -54 -140.001s-80.5 -69.834 -133.5 -93.501s-112.833 -45.5 -179.5 -65.5v-13c68.667 -16.667 139 -40.834 211 -72.501s133.333 -74 184 -127
s76 -115.5 76 -187.5c0 -61.333 -15.833 -99.5 -47.5 -114.5s-77.167 -22.5 -136.5 -22.5h-627c-20 0 -34.5 7.83301 -43.5 23.5s-14.833 47.667 -17.5 96s-4 125.833 -4 232.5c0 132 1 238.167 3 318.5s5.83301 140.666 11.5 180.999s13.834 67.166 24.501 80.499
s26.334 20 47.001 20zM364.997 575.005c72.667 0 132.666 23.333 179.999 70s71 98.667 71 156c0 33.333 -11.167 55.333 -33.5 66s-55.5 16 -99.5 16h-59c-10 0 -18.167 -0.166992 -24.5 -0.5s-13.166 -0.833008 -20.499 -1.5c-9.33301 -88.667 -14 -190.667 -14 -306z
M366.996 74.0049c3.33301 0 21 -0.668945 53 -2.00195s57.333 -2 76 -2c71.333 0 121.5 6.33301 150.5 19s43.5 46.334 43.5 101.001c0 44.667 -13.5 90.834 -40.5 138.501s-65.333 87.5 -115 119.5s-106.167 48 -169.5 48c0 -14.667 -0.833008 -41 -2.5 -79
s-2.5 -68.333 -2.5 -91c0 -32.667 2.33301 -116.667 7 -252z" />
    <glyph glyph-name="afii10068" unicode="&#xe3;" horiz-adv-x="885" 
d="M504 883l-123 -0.000976562c-16.667 -103.333 -25 -213.333 -25 -330c0 -111.333 5.83301 -217.166 17.5 -317.499s17.5 -159.166 17.5 -176.499c0 -22 -4.66699 -37.333 -14 -46s-32 -13 -68 -13h-123c-26 0 -44.167 12.5 -54.5 37.5s-16.666 70.5 -18.999 136.5
s-3.5 189.667 -3.5 371c0 118 2.16699 206.667 6.5 266s11.666 98 21.999 116s26.5 27 48.5 27c19.333 0 35 -0.166992 47 -0.5s25 -0.833008 39 -1.5c28.667 0 62.167 0.5 100.5 1.5s78.333 1.83301 120 2.5s80.5 1.16699 116.5 1.5s95.667 0.5 179 0.5
c32.667 0 57 -2.66699 73 -8s24 -17 24 -35c0 -12.667 -14 -49.834 -42 -111.501s-57 -130.834 -87 -207.501l-86 8c0 2.66699 2 16.834 6 42.501s6 46.5 6 62.5c0 58 -11.167 101.5 -33.5 130.5s-70.5 43.5 -144.5 43.5z" />
    <glyph glyph-name="afii10068" unicode="&#x433;" horiz-adv-x="885" 
d="M504 883l-123 -0.000976562c-16.667 -103.333 -25 -213.333 -25 -330c0 -111.333 5.83301 -217.166 17.5 -317.499s17.5 -159.166 17.5 -176.499c0 -22 -4.66699 -37.333 -14 -46s-32 -13 -68 -13h-123c-26 0 -44.167 12.5 -54.5 37.5s-16.666 70.5 -18.999 136.5
s-3.5 189.667 -3.5 371c0 118 2.16699 206.667 6.5 266s11.666 98 21.999 116s26.5 27 48.5 27c19.333 0 35 -0.166992 47 -0.5s25 -0.833008 39 -1.5c28.667 0 62.167 0.5 100.5 1.5s78.333 1.83301 120 2.5s80.5 1.16699 116.5 1.5s95.667 0.5 179 0.5
c32.667 0 57 -2.66699 73 -8s24 -17 24 -35c0 -12.667 -14 -49.834 -42 -111.501s-57 -130.834 -87 -207.501l-86 8c0 2.66699 2 16.834 6 42.501s6 46.5 6 62.5c0 58 -11.167 101.5 -33.5 130.5s-70.5 43.5 -144.5 43.5z" />
    <glyph glyph-name="afii10069" unicode="&#xe4;" horiz-adv-x="1133" 
d="M629 -2l-155.996 -0.000976562c-47.333 0 -94 -10 -140 -30s-69 -62.667 -69 -128c0 -22.667 5.83301 -55 17.5 -97s24.167 -80 37.5 -114l-104 -14c-18 44.667 -38.5 87.334 -61.5 128.001l-76 128.5c-27.667 45 -47.5 78.667 -59.5 101s-18 41.833 -18 58.5
c0 8 4.66699 17 14 27s23.666 16 42.999 18h39c33.333 0 60 4.83301 80 14.5s36.167 24.834 48.5 45.501s26.166 49.667 41.499 87c30 71.333 65.167 172.166 105.5 302.499s60.5 225.5 60.5 285.5c0 36.667 -5.5 66 -16.5 88s-16.5 35.667 -16.5 41
c0 10.667 15.667 16 47 16c8.66699 0 29.667 -0.666992 63 -2s53.333 -2 60 -2l53.5 2c17 0.666992 31.167 1.33398 42.5 2.00098s20.166 1.16699 26.499 1.5s15.5 0.5 27.5 0.5c18.667 0 30 -2.16699 34 -6.5s7.33301 -23.5 10 -57.5s6.66699 -69.5 12 -106.5
s17.333 -92.5 36 -166.5c22.667 -82.667 57.5 -191.834 104.5 -327.501s83.167 -208.167 108.5 -217.5h49c10.667 0 20.5 -2 29.5 -6s16.333 -9.5 22 -16.5s8.5 -14.5 8.5 -22.5c0 -16 -4.33301 -32 -13 -48s-27.334 -46.167 -56.001 -90.5s-55 -88.166 -79 -131.499
s-47.333 -92 -70 -146l-104 14c11.333 24.667 23.333 59.667 36 105s19 80.666 19 105.999c0 64 -25 106.333 -75 127s-104 31 -162 31zM281.004 67.999h464c-31.333 53.333 -58.333 110.5 -81 171.5s-42.667 127 -60 198s-30.833 133.5 -40.5 187.5l-26.5 145h-31
c-9.33301 -54.667 -26.5 -128.834 -51.5 -222.501s-53 -184.167 -84 -271.5s-60.833 -156.666 -89.5 -207.999z" />
    <glyph glyph-name="afii10069" unicode="&#x434;" horiz-adv-x="1133" 
d="M629 -2l-155.996 -0.000976562c-47.333 0 -94 -10 -140 -30s-69 -62.667 -69 -128c0 -22.667 5.83301 -55 17.5 -97s24.167 -80 37.5 -114l-104 -14c-18 44.667 -38.5 87.334 -61.5 128.001l-76 128.5c-27.667 45 -47.5 78.667 -59.5 101s-18 41.833 -18 58.5
c0 8 4.66699 17 14 27s23.666 16 42.999 18h39c33.333 0 60 4.83301 80 14.5s36.167 24.834 48.5 45.501s26.166 49.667 41.499 87c30 71.333 65.167 172.166 105.5 302.499s60.5 225.5 60.5 285.5c0 36.667 -5.5 66 -16.5 88s-16.5 35.667 -16.5 41
c0 10.667 15.667 16 47 16c8.66699 0 29.667 -0.666992 63 -2s53.333 -2 60 -2l53.5 2c17 0.666992 31.167 1.33398 42.5 2.00098s20.166 1.16699 26.499 1.5s15.5 0.5 27.5 0.5c18.667 0 30 -2.16699 34 -6.5s7.33301 -23.5 10 -57.5s6.66699 -69.5 12 -106.5
s17.333 -92.5 36 -166.5c22.667 -82.667 57.5 -191.834 104.5 -327.501s83.167 -208.167 108.5 -217.5h49c10.667 0 20.5 -2 29.5 -6s16.333 -9.5 22 -16.5s8.5 -14.5 8.5 -22.5c0 -16 -4.33301 -32 -13 -48s-27.334 -46.167 -56.001 -90.5s-55 -88.166 -79 -131.499
s-47.333 -92 -70 -146l-104 14c11.333 24.667 23.333 59.667 36 105s19 80.666 19 105.999c0 64 -25 106.333 -75 127s-104 31 -162 31zM281.004 67.999h464c-31.333 53.333 -58.333 110.5 -81 171.5s-42.667 127 -60 198s-30.833 133.5 -40.5 187.5l-26.5 145h-31
c-9.33301 -54.667 -26.5 -128.834 -51.5 -222.501s-53 -184.167 -84 -271.5s-60.833 -156.666 -89.5 -207.999z" />
    <glyph glyph-name="afii10070" unicode="&#xe5;" horiz-adv-x="1020" 
d="M946 860l52.998 -62.999c-27.333 -18.667 -59 -35.334 -95 -50.001s-67.667 -22 -95 -22c-46 0 -94.333 24 -145 72c-8 7.33301 -22 22.333 -42 45s-37 39.167 -51 49.5s-29.667 15.5 -47 15.5c-62 0 -103 -39.5 -123 -118.5s-31.333 -179.5 -34 -301.5
c34.667 26.667 80.334 52.834 137.001 78.501s101.667 38.5 135 38.5c26 0 50.667 -4 74 -12c13.333 -4.66699 37.166 -16.834 71.499 -36.501s57.5 -29.5 69.5 -29.5c26.667 0 52.667 11 78 33l41 -55c-88.667 -100 -161.667 -150 -219 -150
c-18.667 0 -34.334 2.5 -47.001 7.5s-29.334 14.167 -50.001 27.5c-36.667 24.667 -65.167 41.5 -85.5 50.5s-42.166 13.5 -65.499 13.5c-46.667 0 -92.334 -20 -137.001 -60v-26c2 -68.667 15.333 -128.667 40 -180s58.334 -91.166 101.001 -119.499
s90.334 -42.5 143.001 -42.5c80 0 168.333 35.333 265 106l38 -43c-23.333 -24.667 -53.333 -49.5 -90 -74.5s-78.667 -45.167 -126 -60.5s-98 -23 -152 -23c-110.667 0 -200.667 19.833 -270 59.5s-121.166 88 -155.499 145s-56.166 108.5 -65.499 154.5
s-15 88.333 -17 127v69c3.33301 55.333 14.833 112 34.5 170s47.5 111.667 83.5 161s81.167 89.166 135.5 119.499s115.833 45.5 184.5 45.5c56 0 98.5 -6 127.5 -18s56.5 -29.5 82.5 -52.5s50.167 -39.833 72.5 -50.5s55.833 -16 100.5 -16c18 0 33 5.33301 45 16z" />
    <glyph glyph-name="afii10070" unicode="&#x435;" horiz-adv-x="1020" 
d="M946 860l52.998 -62.999c-27.333 -18.667 -59 -35.334 -95 -50.001s-67.667 -22 -95 -22c-46 0 -94.333 24 -145 72c-8 7.33301 -22 22.333 -42 45s-37 39.167 -51 49.5s-29.667 15.5 -47 15.5c-62 0 -103 -39.5 -123 -118.5s-31.333 -179.5 -34 -301.5
c34.667 26.667 80.334 52.834 137.001 78.501s101.667 38.5 135 38.5c26 0 50.667 -4 74 -12c13.333 -4.66699 37.166 -16.834 71.499 -36.501s57.5 -29.5 69.5 -29.5c26.667 0 52.667 11 78 33l41 -55c-88.667 -100 -161.667 -150 -219 -150
c-18.667 0 -34.334 2.5 -47.001 7.5s-29.334 14.167 -50.001 27.5c-36.667 24.667 -65.167 41.5 -85.5 50.5s-42.166 13.5 -65.499 13.5c-46.667 0 -92.334 -20 -137.001 -60v-26c2 -68.667 15.333 -128.667 40 -180s58.334 -91.166 101.001 -119.499
s90.334 -42.5 143.001 -42.5c80 0 168.333 35.333 265 106l38 -43c-23.333 -24.667 -53.333 -49.5 -90 -74.5s-78.667 -45.167 -126 -60.5s-98 -23 -152 -23c-110.667 0 -200.667 19.833 -270 59.5s-121.166 88 -155.499 145s-56.166 108.5 -65.499 154.5
s-15 88.333 -17 127v69c3.33301 55.333 14.833 112 34.5 170s47.5 111.667 83.5 161s81.167 89.166 135.5 119.499s115.833 45.5 184.5 45.5c56 0 98.5 -6 127.5 -18s56.5 -29.5 82.5 -52.5s50.167 -39.833 72.5 -50.5s55.833 -16 100.5 -16c18 0 33 5.33301 45 16z" />
    <glyph glyph-name="afii10072" unicode="&#xe6;" horiz-adv-x="1475" 
d="M860 422c-1.33301 -19.333 -2.00391 -47.3301 -2.00391 -83.9971c0 -40.667 3.83301 -91.834 11.5 -153.501s11.5 -103.5 11.5 -125.5c0 -16.667 -1.66699 -28.834 -5 -36.501s-10.333 -13.334 -21 -17.001s-28.667 -5.5 -54 -5.5h-115c-20.667 0 -35 3 -43 9
s-13.667 21 -17 45s-5.83301 61.833 -7.5 113.5l-8.5 254.5c-36.667 -6 -78 -29 -124 -69s-90 -116 -132 -228l-26.5 -73.5c-9.66699 -27.667 -16.667 -43.5 -21 -47.5s-12.833 -6 -25.5 -6c-15.333 0.666992 -29.166 1.16699 -41.499 1.5s-27.833 0.5 -46.5 0.5
c-11.333 -0 -19.833 -0.166992 -25.5 -0.5s-13 -0.833008 -22 -1.5s-18.833 -1.33398 -29.5 -2.00098l-32 -2c-16.667 0 -29 2 -37 6s-12 14.333 -12 31c0 28 16.833 73.167 50.5 135.5s67.167 111.166 100.5 146.499c95.333 99.333 210.666 156.666 345.999 171.999
c-48 100.667 -96.167 166.5 -144.5 197.5s-90.833 46.5 -127.5 46.5c-16 0 -27.833 -1.83301 -35.5 -5.5s-14.667 -9.5 -21 -17.5s-12.166 -13.667 -17.499 -17s-14.666 -5 -27.999 -5c-14.667 0 -30 30.667 -46 92s-24 116 -24 164c0 8 5.33301 15.833 16 23.5
s25 11.5 43 11.5c34 0 76.333 -17.167 127 -51.5s105.5 -87.166 164.5 -158.499s116.833 -161 173.5 -269c0.666992 27.333 1.16699 51.166 1.5 71.499s0.5 44.833 0.5 73.5v90v78c0.666992 63.333 6 103 16 119s26.667 24 50 24h145c32.667 0 49 -10 49 -30
c0 -11.333 -2.5 -32.666 -7.5 -63.999s-8.5 -77 -10.5 -137v-82v-143c86 142 166.167 257.333 240.5 346s150.5 133 228.5 133c18 0 32.333 -3.83301 43 -11.5s16 -15.5 16 -23.5c0 -51.333 -7.66699 -106.833 -23 -166.5s-30.666 -89.5 -45.999 -89.5
c-10.667 0 -19.667 2.83301 -27 8.5s-13.5 11.334 -18.5 17.001s-11.667 10.334 -20 14.001s-20.166 5.5 -35.499 5.5c-48 0 -95 -19.333 -141 -58s-89.667 -100.667 -131 -186c81.333 -10 150.333 -31.167 207 -63.5s103 -68.5 139 -108.5
c34 -34.667 67.833 -84 101.5 -148s50.5 -108.667 50.5 -134c0 -24.667 -17 -37 -51 -37c-8 0 -19.333 0.5 -34 1.5l-43 3c-14 1 -24.667 1.5 -32 1.5c-19.333 -0 -35 -0.166992 -47 -0.5s-25.667 -0.833008 -41 -1.5c-12.667 0 -21.167 2 -25.5 6s-9.83301 15 -16.5 33
l-32 88c-66.667 178.667 -152.667 277.667 -258 297z" />
    <glyph glyph-name="afii10072" unicode="&#x436;" horiz-adv-x="1475" 
d="M860 422c-1.33301 -19.333 -2.00391 -47.3301 -2.00391 -83.9971c0 -40.667 3.83301 -91.834 11.5 -153.501s11.5 -103.5 11.5 -125.5c0 -16.667 -1.66699 -28.834 -5 -36.501s-10.333 -13.334 -21 -17.001s-28.667 -5.5 -54 -5.5h-115c-20.667 0 -35 3 -43 9
s-13.667 21 -17 45s-5.83301 61.833 -7.5 113.5l-8.5 254.5c-36.667 -6 -78 -29 -124 -69s-90 -116 -132 -228l-26.5 -73.5c-9.66699 -27.667 -16.667 -43.5 -21 -47.5s-12.833 -6 -25.5 -6c-15.333 0.666992 -29.166 1.16699 -41.499 1.5s-27.833 0.5 -46.5 0.5
c-11.333 -0 -19.833 -0.166992 -25.5 -0.5s-13 -0.833008 -22 -1.5s-18.833 -1.33398 -29.5 -2.00098l-32 -2c-16.667 0 -29 2 -37 6s-12 14.333 -12 31c0 28 16.833 73.167 50.5 135.5s67.167 111.166 100.5 146.499c95.333 99.333 210.666 156.666 345.999 171.999
c-48 100.667 -96.167 166.5 -144.5 197.5s-90.833 46.5 -127.5 46.5c-16 0 -27.833 -1.83301 -35.5 -5.5s-14.667 -9.5 -21 -17.5s-12.166 -13.667 -17.499 -17s-14.666 -5 -27.999 -5c-14.667 0 -30 30.667 -46 92s-24 116 -24 164c0 8 5.33301 15.833 16 23.5
s25 11.5 43 11.5c34 0 76.333 -17.167 127 -51.5s105.5 -87.166 164.5 -158.499s116.833 -161 173.5 -269c0.666992 27.333 1.16699 51.166 1.5 71.499s0.5 44.833 0.5 73.5v90v78c0.666992 63.333 6 103 16 119s26.667 24 50 24h145c32.667 0 49 -10 49 -30
c0 -11.333 -2.5 -32.666 -7.5 -63.999s-8.5 -77 -10.5 -137v-82v-143c86 142 166.167 257.333 240.5 346s150.5 133 228.5 133c18 0 32.333 -3.83301 43 -11.5s16 -15.5 16 -23.5c0 -51.333 -7.66699 -106.833 -23 -166.5s-30.666 -89.5 -45.999 -89.5
c-10.667 0 -19.667 2.83301 -27 8.5s-13.5 11.334 -18.5 17.001s-11.667 10.334 -20 14.001s-20.166 5.5 -35.499 5.5c-48 0 -95 -19.333 -141 -58s-89.667 -100.667 -131 -186c81.333 -10 150.333 -31.167 207 -63.5s103 -68.5 139 -108.5
c34 -34.667 67.833 -84 101.5 -148s50.5 -108.667 50.5 -134c0 -24.667 -17 -37 -51 -37c-8 0 -19.333 0.5 -34 1.5l-43 3c-14 1 -24.667 1.5 -32 1.5c-19.333 -0 -35 -0.166992 -47 -0.5s-25.667 -0.833008 -41 -1.5c-12.667 0 -21.167 2 -25.5 6s-9.83301 15 -16.5 33
l-32 88c-66.667 178.667 -152.667 277.667 -258 297z" />
    <glyph glyph-name="afii10073" unicode="&#xe7;" horiz-adv-x="1077" 
d="M408 406l-0.000976562 86.0049c62.667 1.33301 113.834 9.83301 153.501 25.5s68.667 40.167 87 73.5s27.5 77.333 27.5 132c0 57.333 -12.5 102 -37.5 134s-59.5 48 -103.5 48c-49.333 0 -88.333 -17.5 -117 -52.5s-43 -74.833 -43 -119.5c0 -4 0.5 -9.5 1.5 -16.5
s2 -14.5 3 -22.5s1.5 -14 1.5 -18c0 -30 -29.833 -50.833 -89.5 -62.5s-111.167 -17.5 -154.5 -17.5c-2.66699 0 -4 11.667 -4 35c0 72 19.5 134 58.5 186s92.333 91.333 160 118s143.834 40 228.501 40c35.333 0 80.166 -4.83301 134.499 -14.5
s106.5 -32.834 156.5 -69.501s75 -91.334 75 -164.001c0 -87.333 -28.667 -151 -86 -191s-135 -65.667 -233 -77v-13c65.333 -14 114.166 -24.833 146.499 -32.5s65.666 -20.334 99.999 -38.001s62.5 -42.834 84.5 -75.501s33 -75.334 33 -128.001
c0 -76.667 -24 -141.167 -72 -193.5s-120.333 -78.5 -217 -78.5c-49.333 0 -108 12.333 -176 37l-71 25c-16.667 6 -32.834 11.167 -48.501 15.5s-29.5 6.5 -41.5 6.5c-52 0 -111.167 -10.667 -177.5 -32s-124.166 -45.666 -173.499 -72.999l-43 51
c62.667 68 114.5 117.5 155.5 148.5s88.167 46.5 141.5 46.5c20 0 36.833 -2.33301 50.5 -7s27.834 -12.334 42.501 -23.001s26.667 -19 36 -25c46.667 -31.333 99.334 -47 158.001 -47c22.667 0 45 6.16699 67 18.5s40.833 33 56.5 62s23.5 68.167 23.5 117.5
c0 34.667 -8.83301 66.167 -26.5 94.5s-42.167 50.5 -73.5 66.5s-65.333 24 -102 24h-92z" />
    <glyph glyph-name="afii10073" unicode="&#x437;" horiz-adv-x="1077" 
d="M408 406l-0.000976562 86.0049c62.667 1.33301 113.834 9.83301 153.501 25.5s68.667 40.167 87 73.5s27.5 77.333 27.5 132c0 57.333 -12.5 102 -37.5 134s-59.5 48 -103.5 48c-49.333 0 -88.333 -17.5 -117 -52.5s-43 -74.833 -43 -119.5c0 -4 0.5 -9.5 1.5 -16.5
s2 -14.5 3 -22.5s1.5 -14 1.5 -18c0 -30 -29.833 -50.833 -89.5 -62.5s-111.167 -17.5 -154.5 -17.5c-2.66699 0 -4 11.667 -4 35c0 72 19.5 134 58.5 186s92.333 91.333 160 118s143.834 40 228.501 40c35.333 0 80.166 -4.83301 134.499 -14.5
s106.5 -32.834 156.5 -69.501s75 -91.334 75 -164.001c0 -87.333 -28.667 -151 -86 -191s-135 -65.667 -233 -77v-13c65.333 -14 114.166 -24.833 146.499 -32.5s65.666 -20.334 99.999 -38.001s62.5 -42.834 84.5 -75.501s33 -75.334 33 -128.001
c0 -76.667 -24 -141.167 -72 -193.5s-120.333 -78.5 -217 -78.5c-49.333 0 -108 12.333 -176 37l-71 25c-16.667 6 -32.834 11.167 -48.501 15.5s-29.5 6.5 -41.5 6.5c-52 0 -111.167 -10.667 -177.5 -32s-124.166 -45.666 -173.499 -72.999l-43 51
c62.667 68 114.5 117.5 155.5 148.5s88.167 46.5 141.5 46.5c20 0 36.833 -2.33301 50.5 -7s27.834 -12.334 42.501 -23.001s26.667 -19 36 -25c46.667 -31.333 99.334 -47 158.001 -47c22.667 0 45 6.16699 67 18.5s40.833 33 56.5 62s23.5 68.167 23.5 117.5
c0 34.667 -8.83301 66.167 -26.5 94.5s-42.167 50.5 -73.5 66.5s-65.333 24 -102 24h-92z" />
    <glyph glyph-name="afii10074" unicode="&#xe8;" horiz-adv-x="1081" 
d="M352 553l348.004 207c4 64.667 7.66699 109.334 11 134.001s8.66602 40.5 15.999 47.5s21.666 10.5 42.999 10.5h178c18 0 27 -10.667 27 -32c0 -13.333 -5.66699 -53 -17 -119c-12 -84 -18 -166.667 -18 -248s5.5 -172.833 16.5 -274.5s16.5 -174.834 16.5 -219.501
c0 -22 -4.66699 -37.333 -14 -46s-32 -13 -68 -13h-121c-19.333 -0 -33.5 4.83301 -42.5 14.5s-16.333 34 -22 73s-9.33398 102 -11.001 189s-2.5 181.833 -2.5 284.5c0 24.667 1.33301 63 4 115l-344 -207c1.33301 -50.667 7.16602 -122.167 17.499 -214.5
s15.5 -157.5 15.5 -195.5c0 -22 -4.66699 -37.333 -14 -46s-32 -13 -68 -13h-121c-15.333 0 -27.333 4 -36 12s-16.334 29.5 -23.001 64.5s-11.5 91.167 -14.5 168.5s-4.5 177.333 -4.5 300s3.16699 214.5 9.5 275.5s14.333 98.167 24 111.5s23.167 20 40.5 20h182
c18 0 27 -10.667 27 -32c0 -31.333 -1.5 -57 -4.5 -77s-7.16699 -43.667 -12.5 -71s-9.66602 -57.833 -12.999 -91.5s-5 -76.167 -5 -127.5z" />
    <glyph glyph-name="afii10074" unicode="&#x438;" horiz-adv-x="1081" 
d="M352 553l348.004 207c4 64.667 7.66699 109.334 11 134.001s8.66602 40.5 15.999 47.5s21.666 10.5 42.999 10.5h178c18 0 27 -10.667 27 -32c0 -13.333 -5.66699 -53 -17 -119c-12 -84 -18 -166.667 -18 -248s5.5 -172.833 16.5 -274.5s16.5 -174.834 16.5 -219.501
c0 -22 -4.66699 -37.333 -14 -46s-32 -13 -68 -13h-121c-19.333 -0 -33.5 4.83301 -42.5 14.5s-16.333 34 -22 73s-9.33398 102 -11.001 189s-2.5 181.833 -2.5 284.5c0 24.667 1.33301 63 4 115l-344 -207c1.33301 -50.667 7.16602 -122.167 17.499 -214.5
s15.5 -157.5 15.5 -195.5c0 -22 -4.66699 -37.333 -14 -46s-32 -13 -68 -13h-121c-15.333 0 -27.333 4 -36 12s-16.334 29.5 -23.001 64.5s-11.5 91.167 -14.5 168.5s-4.5 177.333 -4.5 300s3.16699 214.5 9.5 275.5s14.333 98.167 24 111.5s23.167 20 40.5 20h182
c18 0 27 -10.667 27 -32c0 -31.333 -1.5 -57 -4.5 -77s-7.16699 -43.667 -12.5 -71s-9.66602 -57.833 -12.999 -91.5s-5 -76.167 -5 -127.5z" />
    <glyph glyph-name="afii10075" unicode="&#xe9;" horiz-adv-x="1081" 
d="M352 553l348.004 207c4 64.667 7.66699 109.334 11 134.001s8.66602 40.5 15.999 47.5s21.666 10.5 42.999 10.5h178c18 0 27 -10.667 27 -32c0 -13.333 -5.66699 -53 -17 -119c-12 -84 -18 -166.667 -18 -248s5.5 -172.833 16.5 -274.5s16.5 -174.834 16.5 -219.501
c0 -22 -4.66699 -37.333 -14 -46s-32 -13 -68 -13h-121c-19.333 -0 -33.5 4.83301 -42.5 14.5s-16.333 34 -22 73s-9.33398 102 -11.001 189s-2.5 181.833 -2.5 284.5c0 24.667 1.33301 63 4 115l-344 -207c1.33301 -50.667 7.16602 -122.167 17.499 -214.5
s15.5 -157.5 15.5 -195.5c0 -22 -4.66699 -37.333 -14 -46s-32 -13 -68 -13h-121c-15.333 0 -27.333 4 -36 12s-16.334 29.5 -23.001 64.5s-11.5 91.167 -14.5 168.5s-4.5 177.333 -4.5 300s3.16699 214.5 9.5 275.5s14.333 98.167 24 111.5s23.167 20 40.5 20h182
c18 0 27 -10.667 27 -32c0 -31.333 -1.5 -57 -4.5 -77s-7.16699 -43.667 -12.5 -71s-9.66602 -57.833 -12.999 -91.5s-5 -76.167 -5 -127.5zM772.004 1311l45 -29c-39.333 -88 -82.333 -151.333 -129 -190s-89 -58 -127 -58c-28.667 0 -59.334 22.833 -92.001 68.5
s-58.667 110.167 -78 193.5l-12 56l55 14c37.333 -98 88.666 -147 153.999 -147c36.667 0 69.834 5.33301 99.501 16s51.834 27 66.501 49z" />
    <glyph glyph-name="afii10075" unicode="&#x439;" horiz-adv-x="1081" 
d="M352 553l348.004 207c4 64.667 7.66699 109.334 11 134.001s8.66602 40.5 15.999 47.5s21.666 10.5 42.999 10.5h178c18 0 27 -10.667 27 -32c0 -13.333 -5.66699 -53 -17 -119c-12 -84 -18 -166.667 -18 -248s5.5 -172.833 16.5 -274.5s16.5 -174.834 16.5 -219.501
c0 -22 -4.66699 -37.333 -14 -46s-32 -13 -68 -13h-121c-19.333 -0 -33.5 4.83301 -42.5 14.5s-16.333 34 -22 73s-9.33398 102 -11.001 189s-2.5 181.833 -2.5 284.5c0 24.667 1.33301 63 4 115l-344 -207c1.33301 -50.667 7.16602 -122.167 17.499 -214.5
s15.5 -157.5 15.5 -195.5c0 -22 -4.66699 -37.333 -14 -46s-32 -13 -68 -13h-121c-15.333 0 -27.333 4 -36 12s-16.334 29.5 -23.001 64.5s-11.5 91.167 -14.5 168.5s-4.5 177.333 -4.5 300s3.16699 214.5 9.5 275.5s14.333 98.167 24 111.5s23.167 20 40.5 20h182
c18 0 27 -10.667 27 -32c0 -31.333 -1.5 -57 -4.5 -77s-7.16699 -43.667 -12.5 -71s-9.66602 -57.833 -12.999 -91.5s-5 -76.167 -5 -127.5zM772.004 1311l45 -29c-39.333 -88 -82.333 -151.333 -129 -190s-89 -58 -127 -58c-28.667 0 -59.334 22.833 -92.001 68.5
s-58.667 110.167 -78 193.5l-12 56l55 14c37.333 -98 88.666 -147 153.999 -147c36.667 0 69.834 5.33301 99.501 16s51.834 27 66.501 49z" />
    <glyph glyph-name="afii10076" unicode="&#xea;" horiz-adv-x="965" 
d="M356 516h17.0039c31.333 56 61.666 107.167 90.999 153.5s64.5 93.833 105.5 142.5s83.5 88 127.5 118s88.667 45 134 45c23.333 0 44 -3.16699 62 -9.5s27 -14.166 27 -23.499c0 -4.66699 -6 -19.334 -18 -44.001s-22.667 -55 -32 -91
c-3.33301 -16.667 -7.33301 -56.334 -12 -119.001l-53 -2c-8 19.333 -20.667 34.833 -38 46.5s-36 17.5 -56 17.5c-34.667 0 -68.334 -13.667 -101.001 -41s-62.667 -59.333 -90 -96l-86 -117c117.333 -32.667 212.833 -79 286.5 -139s126.334 -121 158.001 -183
s47.5 -113.333 47.5 -154c0 -10.667 -5.33301 -17.667 -16 -21s-30.667 -5 -60 -5c-6.66699 0.666992 -13.834 1.33398 -21.501 2.00098s-14.5 1.33398 -20.5 2.00098s-10.833 1.16699 -14.5 1.5s-9.5 0.5 -17.5 0.5c-6.66699 0 -17.334 -0.666992 -32.001 -2
s-26.334 -2 -35.001 -2c-24.667 0 -41.334 2.5 -50.001 7.5s-14.667 13.333 -18 25s-11 44.5 -23 98.5c-7.33301 33.333 -21 71.333 -41 114s-48.667 83 -86 121s-82.333 65.333 -135 82v-69c0.666992 -52 4.33398 -111.167 11.001 -177.5s10 -112.5 10 -138.5
c0 -22.667 -5.33301 -38.167 -16 -46.5s-36.667 -12.5 -78 -12.5h-97c-20 0 -35 5.5 -45 16.5s-17.167 32.833 -21.5 65.5s-7.16602 81.5 -8.49902 146.5s-2 170.5 -2 316.5c0 118 2.16699 207 6.5 267s11.666 99 21.999 117s26.5 27 48.5 27c6 0 15 -0.666992 27 -2
s21 -2 27 -2c32.667 0 66.667 2 102 6h23c16 -2.66699 24 -13.334 24 -32.001s-5.83301 -65.167 -17.5 -139.5s-17.5 -144.833 -17.5 -211.5c0.666992 -9.33301 1.16699 -18 1.5 -26s0.5 -19 0.5 -33z" />
    <glyph glyph-name="afii10076" unicode="&#x43a;" horiz-adv-x="965" 
d="M356 516h17.0039c31.333 56 61.666 107.167 90.999 153.5s64.5 93.833 105.5 142.5s83.5 88 127.5 118s88.667 45 134 45c23.333 0 44 -3.16699 62 -9.5s27 -14.166 27 -23.499c0 -4.66699 -6 -19.334 -18 -44.001s-22.667 -55 -32 -91
c-3.33301 -16.667 -7.33301 -56.334 -12 -119.001l-53 -2c-8 19.333 -20.667 34.833 -38 46.5s-36 17.5 -56 17.5c-34.667 0 -68.334 -13.667 -101.001 -41s-62.667 -59.333 -90 -96l-86 -117c117.333 -32.667 212.833 -79 286.5 -139s126.334 -121 158.001 -183
s47.5 -113.333 47.5 -154c0 -10.667 -5.33301 -17.667 -16 -21s-30.667 -5 -60 -5c-6.66699 0.666992 -13.834 1.33398 -21.501 2.00098s-14.5 1.33398 -20.5 2.00098s-10.833 1.16699 -14.5 1.5s-9.5 0.5 -17.5 0.5c-6.66699 0 -17.334 -0.666992 -32.001 -2
s-26.334 -2 -35.001 -2c-24.667 0 -41.334 2.5 -50.001 7.5s-14.667 13.333 -18 25s-11 44.5 -23 98.5c-7.33301 33.333 -21 71.333 -41 114s-48.667 83 -86 121s-82.333 65.333 -135 82v-69c0.666992 -52 4.33398 -111.167 11.001 -177.5s10 -112.5 10 -138.5
c0 -22.667 -5.33301 -38.167 -16 -46.5s-36.667 -12.5 -78 -12.5h-97c-20 0 -35 5.5 -45 16.5s-17.167 32.833 -21.5 65.5s-7.16602 81.5 -8.49902 146.5s-2 170.5 -2 316.5c0 118 2.16699 207 6.5 267s11.666 99 21.999 117s26.5 27 48.5 27c6 0 15 -0.666992 27 -2
s21 -2 27 -2c32.667 0 66.667 2 102 6h23c16 -2.66699 24 -13.334 24 -32.001s-5.83301 -65.167 -17.5 -139.5s-17.5 -144.833 -17.5 -211.5c0.666992 -9.33301 1.16699 -18 1.5 -26s0.5 -19 0.5 -33z" />
    <glyph glyph-name="afii10077" unicode="&#xeb;" horiz-adv-x="965" 
d="M440 793c-24.667 -80 -54.8359 -159.667 -90.5029 -239s-58.5 -134.166 -68.5 -164.499s-15 -74.833 -15 -133.5c0 -26.667 2.33301 -51.167 7 -73.5s14 -49.166 28 -80.499c4.66699 -10 11.5 -21.667 20.5 -35s15 -22.833 18 -28.5s4.5 -10.834 4.5 -15.501
c0 -16.667 -13 -25 -39 -25c-18.667 0.666992 -35.667 1.16699 -51 1.5s-34.333 0.5 -57 0.5c-10.667 0 -27 -0.666992 -49 -2s-38 -2 -48 -2c-28 0 -45.833 4.33301 -53.5 13s-11.5 27.667 -11.5 57c0 48 8.5 97.5 25.5 148.5s38.5 101 64.5 150s54.667 97.5 86 145.5
c8 12.667 25.333 38.667 52 78s48.667 73 66 101s32.333 56 45 84s19 53 19 75c0 11.333 -4 31.666 -12 60.999v25c5.33301 12 19 18 41 18h184c29.333 0 48.333 -3.5 57 -10.5s13.834 -21 15.501 -42l8 -96c3.66699 -43 11.834 -88.833 24.501 -137.5
c32 -122 59.5 -212.5 82.5 -271.5s52.167 -128.5 87.5 -208.5s53 -132.333 53 -157c0 -12.667 -4.16699 -20.667 -12.5 -24s-23.166 -5 -44.499 -5c-14.667 0.666992 -28 1.16699 -40 1.5s-26.667 0.5 -44 0.5c-18 0 -32.667 -0.166992 -44 -0.5s-24 -0.833008 -38 -1.5
c-22 0 -38.667 5.16699 -50 15.5s-23.333 33 -36 68s-34 106.833 -64 215.5l-63 232.5c-12 45 -23.667 93.333 -35 145s-19 90.5 -23 116.5z" />
    <glyph glyph-name="afii10077" unicode="&#x43b;" horiz-adv-x="965" 
d="M440 793c-24.667 -80 -54.8359 -159.667 -90.5029 -239s-58.5 -134.166 -68.5 -164.499s-15 -74.833 -15 -133.5c0 -26.667 2.33301 -51.167 7 -73.5s14 -49.166 28 -80.499c4.66699 -10 11.5 -21.667 20.5 -35s15 -22.833 18 -28.5s4.5 -10.834 4.5 -15.501
c0 -16.667 -13 -25 -39 -25c-18.667 0.666992 -35.667 1.16699 -51 1.5s-34.333 0.5 -57 0.5c-10.667 0 -27 -0.666992 -49 -2s-38 -2 -48 -2c-28 0 -45.833 4.33301 -53.5 13s-11.5 27.667 -11.5 57c0 48 8.5 97.5 25.5 148.5s38.5 101 64.5 150s54.667 97.5 86 145.5
c8 12.667 25.333 38.667 52 78s48.667 73 66 101s32.333 56 45 84s19 53 19 75c0 11.333 -4 31.666 -12 60.999v25c5.33301 12 19 18 41 18h184c29.333 0 48.333 -3.5 57 -10.5s13.834 -21 15.501 -42l8 -96c3.66699 -43 11.834 -88.833 24.501 -137.5
c32 -122 59.5 -212.5 82.5 -271.5s52.167 -128.5 87.5 -208.5s53 -132.333 53 -157c0 -12.667 -4.16699 -20.667 -12.5 -24s-23.166 -5 -44.499 -5c-14.667 0.666992 -28 1.16699 -40 1.5s-26.667 0.5 -44 0.5c-18 0 -32.667 -0.166992 -44 -0.5s-24 -0.833008 -38 -1.5
c-22 0 -38.667 5.16699 -50 15.5s-23.333 33 -36 68s-34 106.833 -64 215.5l-63 232.5c-12 45 -23.667 93.333 -35 145s-19 90.5 -23 116.5z" />
    <glyph glyph-name="afii10078" unicode="&#xec;" horiz-adv-x="1415" 
d="M389 952h160.001c16 0 27.833 -1.33301 35.5 -4s13.5 -8.5 17.5 -17.5s7 -21.333 9 -37s5.33301 -43.167 10 -82.5c6.66699 -54.667 21.167 -131.334 43.5 -230.001s47.833 -204.334 76.5 -317.001c13.333 80.667 27.5 136.5 42.5 167.5s33.667 58.167 56 81.5
s38.166 49.666 47.499 78.999s14 83.333 14 162c0 52.667 -2.66699 96.667 -8 132s-8 53.333 -8 54c0 8 15.667 12 47 12h168c28.667 0 46 -3.16699 52 -9.5s9.66699 -32.666 11 -78.999s4.33301 -91 9 -134s16.667 -103.167 36 -180.5c27.333 -104.667 52 -186.5 74 -245.5
s44.5 -115.667 67.5 -170s34.5 -89.166 34.5 -104.499c0 -13.333 -3.16699 -21.5 -9.5 -24.5s-18.166 -4.5 -35.499 -4.5h-139c-19.333 0 -35 3.83301 -47 11.5s-24.5 24.667 -37.5 51s-32.5 75.833 -58.5 148.5c-25.333 70.667 -43 123.5 -53 158.5s-21 81.5 -33 139.5
s-20.333 96.667 -25 116c-22.667 -52 -44.334 -108.667 -65.001 -170s-38.167 -124.666 -52.5 -189.999s-22.833 -122.333 -25.5 -171v-45c0 -32.667 -5.66699 -49 -17 -49h-157c-18 -0 -33.333 5.33301 -46 16s-27.334 37.167 -44.001 79.5s-37.5 115.5 -62.5 219.5
s-52.167 233 -81.5 387c-58.667 -73.333 -104 -151.666 -136 -234.999s-48 -161.333 -48 -234c0 -40 4.33301 -74.5 13 -103.5s18.167 -54.333 28.5 -76s15.5 -35.5 15.5 -41.5c0 -8 -7.33301 -12 -22 -12h-178c-22 0 -33 30.667 -33 92c0 93.333 13 159.666 39 198.999
s64.833 75 116.5 107s90.834 69.5 117.501 112.5s40 115.833 40 218.5c0 46.667 -2.66699 93.667 -8 141v56c4 12 9.5 19.333 16.5 22s17.833 4 32.5 4z" />
    </font>
</defs>
</svg>
